<svg xmlns="http://www.w3.org/2000/svg" viewBox="0 0 190.28 147.04"><defs><style>.cls-1{fill:#ffc0c7;}.cls-1,.cls-2,.cls-3{stroke:#690519;stroke-linecap:round;stroke-linejoin:round;stroke-width:2px;}.cls-2{fill:#fcce70;}.cls-3{fill:#51dddf;}</style></defs><title>Asset 5</title><g id="Layer_2" data-name="Layer 2"><g id="Layer_5" data-name="Layer 5"><path class="cls-1" d="M99.71,97.27l.38-.22c.15-.08.3-.17.45-.24s.25-.13.38-.19l.45-.21.39-.16.39-.14c.22-.08.43-.15.65-.21l.34-.1q.38-.1.75-.18l.25-.05c.31-.06.63-.11,1-.14l.17,0,.79,0h.27c.27,0,.54,0,.8,0h.32l.87.09.17,0c.32,0,.64.1,1,.17l.25.06q.34.07.69.18l.31.09.62.21.3.11.72.31.14.06c.28.13.56.27.82.42l.22.13c.2.11.39.23.57.35l.26.17c.17.12.34.24.5.37l.23.17c.2.16.4.33.58.5l.09.07c.21.2.41.4.6.61l.17.19.38.46.18.24c.11.15.22.31.32.47l.14.22q.2.33.36.66l0,.05a7.6,7.6,0,0,1,.31.73c0,.08,0,.15.07.23a5.26,5.26,0,0,1,.15.53,1.31,1.31,0,0,1,.06.27,5.07,5.07,0,0,1,.09.54l0,.24a6.87,6.87,0,0,1,0,.79h0l.55-17.47a5.09,5.09,0,0,0,0-.78,1.9,1.9,0,0,0,0-.25c0-.18,0-.36-.08-.54l-.06-.26c0-.18-.1-.36-.16-.54a1.87,1.87,0,0,0-.07-.22,6.81,6.81,0,0,0-.31-.74.08.08,0,0,1,0-.05,7.3,7.3,0,0,0-.37-.66l-.14-.22c-.1-.16-.21-.32-.32-.47l-.18-.23c-.12-.16-.25-.32-.38-.47l-.16-.18c-.2-.21-.4-.42-.61-.61a.6.6,0,0,1-.08-.08l-.59-.5-.23-.17c-.16-.13-.33-.25-.5-.37l-.26-.17-.56-.35-.23-.13c-.26-.14-.54-.29-.82-.42l-.14-.06c-.23-.11-.48-.21-.72-.31l-.29-.1-.62-.22-.32-.09a7,7,0,0,0-.69-.18l-.25-.06c-.31-.07-.63-.12-1-.17h-.16a8.46,8.46,0,0,0-.88-.08l-.31,0c-.27,0-.54,0-.81,0a1.2,1.2,0,0,0-.19,0h-.08c-.26,0-.53,0-.79.06h-.17c-.31,0-.63.08-1,.14h0l-.2,0c-.25,0-.5.1-.74.17l-.35.1c-.22.06-.43.13-.65.21l-.2.07-.19.08-.39.16-.45.2c-.13.06-.26.12-.38.19l-.45.24-.38.22-.44.28-.36.25-.16.11-.52.4-13,10.44-.55,17.46,13-10.44.67-.5.37-.25Z"/><path class="cls-1" d="M131.22,87.41c0,.37-.05.74-.09,1.11,0,.13,0,.25,0,.38l0,.24c0,.19-.07.39-.11.58l0,.17c-.06.24-.12.49-.19.74a1.21,1.21,0,0,0-.05.18l-.18.56-.09.25c-.06.18-.13.36-.2.53l-.09.23c-.11.25-.22.49-.34.74v0c-.11.24-.24.47-.36.7s-.17.3-.26.45l-.23.38c-.09.15-.19.3-.29.45s-.16.25-.25.37l-.33.45c-.09.12-.18.25-.28.37l-.37.45-.3.36c-.13.16-.28.31-.42.47s-.2.23-.31.34l-.48.48-.32.32-.57.52-.3.27c-.3.27-.61.53-.94.79l-13,10.44-.55,17.46,13-10.44c.33-.26.64-.52.94-.78l.29-.27c.2-.17.39-.35.57-.52l.33-.32.47-.48c.11-.12.22-.23.32-.35s.29-.3.42-.46l.3-.36.37-.45c.1-.12.19-.25.28-.37l.33-.45.25-.38c.1-.15.2-.29.29-.44l.23-.39c.09-.14.17-.29.25-.44l.06-.09c.11-.2.21-.41.31-.61v0c.12-.25.23-.5.34-.74l.09-.23c.07-.18.14-.35.2-.53l.09-.25c.06-.19.12-.38.17-.57l.06-.18c.07-.24.13-.49.18-.74a.94.94,0,0,0,0-.16c0-.2.07-.39.1-.58a2,2,0,0,0,0-.24c0-.08,0-.16,0-.24a.66.66,0,0,1,0-.14c0-.37.07-.74.08-1.11Z"/><path class="cls-2" d="M90.25,74.19c22.48-18,56.05,8,33.5,26.12l-13,10.44,13.94,10.87-8.67,7L68.63,91.64C75.87,85.84,83,80,90.25,74.19Zm25.31,19.73C126.67,85,109.82,72,98.78,80.84l-13,10.44,16.78,13.08,13-10.44"/><polygon class="cls-1" points="124.69 121.62 124.13 139.09 115.46 146.04 116.01 128.58 124.69 121.62"/><polygon class="cls-3" points="116.01 128.58 115.46 146.04 68.08 109.11 68.64 91.64 116.01 128.58"/><polygon class="cls-2" points="33.06 66.5 9.78 55.59 1 74.32 24.28 85.23 20 94.37 50.49 86.09 37.34 57.36 33.06 66.5"/><polygon class="cls-2" points="100.03 26.54 97.05 1 76.51 3.39 79.48 28.93 69.46 30.1 92.54 51.67 110.05 25.37 100.03 26.54"/><polygon class="cls-2" points="171.74 58.16 189.28 39.36 174.15 25.25 156.61 44.04 149.24 37.16 147.74 68.72 179.12 65.04 171.74 58.16"/></g></g></svg>