<?xml version="1.0" encoding="utf-8"?>
<!-- Generator: Adobe Illustrator 22.0.1, SVG Export Plug-In . SVG Version: 6.00 Build 0)  -->
<svg version="1.1" xmlns="http://www.w3.org/2000/svg" xmlns:xlink="http://www.w3.org/1999/xlink" x="0px" y="0px"
	 viewBox="0 0 841.9 595.3" style="enable-background:new 0 0 841.9 595.3;" xml:space="preserve">
<style type="text/css">
	.st0{fill:url(#SVGID_1_);}
	.st1{fill:url(#SVGID_2_);}
	.st2{fill:url(#SVGID_3_);}
	.st3{fill:url(#SVGID_4_);}
	.st4{fill:url(#SVGID_5_);}
	.st5{fill:url(#SVGID_6_);}
	.st6{fill:#FFFFFF;}
	.st7{font-family:'NexaBold';}
	.st8{font-size:14px;}
	.st9{fill:none;}
	.st10{font-family:'NexaLight';}
</style>
<g id="Layer_1">
</g>
<g id="Layer_2">
	<g>
		<linearGradient id="SVGID_1_" gradientUnits="userSpaceOnUse" x1="210.6409" y1="37.4551" x2="-25.3145" y2="551.8381">
			<stop  offset="0" style="stop-color:#7385C1"/>
			<stop  offset="1" style="stop-color:#4B70B6"/>
		</linearGradient>
		<rect x="14.8" y="14.3" class="st0" width="152.9" height="566.6"/>
		<linearGradient id="SVGID_2_" gradientUnits="userSpaceOnUse" x1="540.2949" y1="37.4551" x2="304.3395" y2="551.8381">
			<stop  offset="0" style="stop-color:#7385C1"/>
			<stop  offset="1" style="stop-color:#4B70B6"/>
		</linearGradient>
		<rect x="344.5" y="14.3" class="st1" width="152.9" height="566.6"/>
		<linearGradient id="SVGID_3_" gradientUnits="userSpaceOnUse" x1="705.1219" y1="37.4551" x2="469.1665" y2="551.8381">
			<stop  offset="0" style="stop-color:#7385C1"/>
			<stop  offset="1" style="stop-color:#4B70B6"/>
		</linearGradient>
		<rect x="509.3" y="14.3" class="st2" width="152.9" height="566.6"/>
		<linearGradient id="SVGID_4_" gradientUnits="userSpaceOnUse" x1="869.949" y1="37.4551" x2="633.9935" y2="551.8381">
			<stop  offset="0" style="stop-color:#7385C1"/>
			<stop  offset="1" style="stop-color:#4B70B6"/>
		</linearGradient>
		<rect x="674.2" y="14.3" class="st3" width="152.9" height="566.6"/>
		<g>
			<linearGradient id="SVGID_5_" gradientUnits="userSpaceOnUse" x1="321.3377" y1="11.0575" x2="192.398" y2="292.1462">
				<stop  offset="0" style="stop-color:#7385C1"/>
				<stop  offset="1" style="stop-color:#4B70B6"/>
			</linearGradient>
			<rect x="179.7" y="14.3" class="st4" width="152.9" height="277.8"/>
			<linearGradient id="SVGID_6_" gradientUnits="userSpaceOnUse" x1="321.0126" y1="301.4365" x2="192.7156" y2="581.124">
				<stop  offset="0" style="stop-color:#7385C1"/>
				<stop  offset="1" style="stop-color:#4B70B6"/>
			</linearGradient>
			<rect x="179.7" y="304.9" class="st5" width="152.9" height="276.1"/>
		</g>
		<text transform="matrix(1 0 0 1 63.3962 47)" class="st6 st7 st8">Problem</text>
		<rect x="28" y="94.3" class="st9" width="126.5" height="397"/>
		<text transform="matrix(1 0 0 1 28.041 104.0825)"><tspan x="0" y="0" class="st6 st10 st8">International stu</tspan><tspan x="106.9" y="0" class="st6 st10 st8">-</tspan><tspan x="0" y="16.8" class="st6 st10 st8">dents in universi</tspan><tspan x="105.1" y="16.8" class="st6 st10 st8">-</tspan><tspan x="0" y="33.6" class="st6 st10 st8">ties are most </tspan><tspan x="0" y="50.4" class="st6 st10 st8">prone to ill mental </tspan><tspan x="0" y="67.2" class="st6 st10 st8">health. They come </tspan><tspan x="0" y="84" class="st6 st10 st8">to a new contry </tspan><tspan x="0" y="100.8" class="st6 st10 st8">and experience a </tspan><tspan x="0" y="117.6" class="st6 st10 st8">loss of ‘community’ </tspan><tspan x="0" y="134.4" class="st6 st10 st8">which leads to </tspan><tspan x="0" y="151.2" class="st6 st10 st8">having emotions </tspan><tspan x="0" y="168" class="st6 st10 st8">like homesickness, </tspan><tspan x="0" y="184.8" class="st6 st10 st8">culture shock, lone</tspan><tspan x="119.1" y="184.8" class="st6 st10 st8">-</tspan><tspan x="0" y="201.6" class="st6 st10 st8">liness which are </tspan><tspan x="0" y="218.4" class="st6 st10 st8">preceding issues to </tspan><tspan x="0" y="235.2" class="st6 st10 st8">mental unwellness </tspan><tspan x="0" y="252" class="st6 st10 st8">e.g. anxiety, social </tspan><tspan x="0" y="268.8" class="st6 st10 st8">isolation and de</tspan><tspan x="103.3" y="268.8" class="st6 st10 st8">-</tspan><tspan x="0" y="285.6" class="st6 st10 st8">pression.</tspan></text>
		<text transform="matrix(1 0 0 1 377.2931 47)"><tspan x="0" y="0" class="st6 st7 st8">Unique Value</tspan><tspan x="0" y="16.8" class="st6 st7 st8">Proposition</tspan></text>
		<rect x="357.7" y="94.3" class="st9" width="126.5" height="397"/>
		<text transform="matrix(1 0 0 1 357.695 104.0825)"><tspan x="0" y="0" class="st6 st10 st8">This web-based </tspan><tspan x="0" y="16.8" class="st6 st10 st8">application will be </tspan><tspan x="0" y="33.6" class="st6 st10 st8">an informative </tspan><tspan x="0" y="50.4" class="st6 st10 st8">platform for the </tspan><tspan x="0" y="67.2" class="st6 st10 st8">target audience to </tspan><tspan x="0" y="84" class="st6 st10 st8">prepare for their </tspan><tspan x="0" y="100.8" class="st6 st10 st8">university life in </tspan><tspan x="0" y="117.6" class="st6 st10 st8">Australia and at </tspan><tspan x="0" y="134.4" class="st6 st10 st8">the same time an </tspan><tspan x="0" y="151.2" class="st6 st10 st8">interactive plat</tspan><tspan x="98.3" y="151.2" class="st6 st10 st8">-</tspan><tspan x="0" y="168" class="st6 st10 st8">form to help these </tspan><tspan x="0" y="184.8" class="st6 st10 st8">students in organ</tspan><tspan x="114.4" y="184.8" class="st6 st10 st8">-</tspan><tspan x="0" y="201.6" class="st6 st10 st8">ising their arrival to </tspan><tspan x="0" y="218.4" class="st6 st10 st8">Melbourne and </tspan><tspan x="0" y="235.2" class="st6 st10 st8">planning their first </tspan><tspan x="0" y="252" class="st6 st10 st8">3-day in a new </tspan><tspan x="0" y="268.8" class="st6 st10 st8">country.</tspan></text>
		<text transform="matrix(1 0 0 1 555.2872 47)" class="st6 st7 st8">Channels</text>
		<rect x="522.5" y="94.3" class="st9" width="126.5" height="397"/>
		<text transform="matrix(1 0 0 1 522.522 104.0825)"><tspan x="0" y="0" class="st6 st10 st8">The website may/</tspan><tspan x="118.3" y="0" class="st6 st10 st8">-</tspan><tspan x="0" y="16.8" class="st6 st10 st8">can be promoted </tspan><tspan x="0" y="33.6" class="st6 st10 st8">by Monash Univer</tspan><tspan x="115.8" y="33.6" class="st6 st10 st8">-</tspan><tspan x="0" y="50.4" class="st6 st10 st8">sity during orienta</tspan><tspan x="117.3" y="50.4" class="st6 st10 st8">-</tspan><tspan x="0" y="67.2" class="st6 st10 st8">tion week encour</tspan><tspan x="110.9" y="67.2" class="st6 st10 st8">-</tspan><tspan x="0" y="84" class="st6 st10 st8">aging current stu</tspan><tspan x="110.6" y="84" class="st6 st10 st8">-</tspan><tspan x="0" y="100.8" class="st6 st10 st8">dents to use the </tspan><tspan x="0" y="117.6" class="st6 st10 st8">application. Future </tspan><tspan x="0" y="134.4" class="st6 st10 st8">incoming students </tspan><tspan x="0" y="151.2" class="st6 st10 st8">and when they </tspan><tspan x="0" y="168" class="st6 st10 st8">arrive in Melbourne </tspan><tspan x="0" y="184.8" class="st6 st10 st8">when highly pro</tspan><tspan x="100.9" y="184.8" class="st6 st10 st8">-</tspan><tspan x="0" y="201.6" class="st6 st10 st8">moted by the Uni</tspan><tspan x="113" y="201.6" class="st6 st10 st8">-</tspan><tspan x="0" y="218.4" class="st6 st10 st8">versity.</tspan></text>
		<text transform="matrix(1 0 0 1 696.8328 47)" class="st6 st7 st8">Target Audience</text>
		<rect x="687.3" y="94.3" class="st9" width="126.5" height="397"/>
		<text transform="matrix(1 0 0 1 687.349 104.0825)"><tspan x="0" y="0" class="st6 st10 st8">Chinese</tspan><tspan x="0" y="16.8" class="st6 st10 st8">Internation stu</tspan><tspan x="95.7" y="16.8" class="st6 st10 st8">-</tspan><tspan x="0" y="33.6" class="st6 st10 st8">dents in Monash </tspan><tspan x="0" y="50.4" class="st6 st10 st8">University, Mel</tspan><tspan x="92.5" y="50.4" class="st6 st10 st8">-</tspan><tspan x="0" y="67.2" class="st6 st10 st8">bourne</tspan><tspan x="0" y="100.8" class="st6 st10 st8">Group Aged 18-25</tspan><tspan x="0" y="134.4" class="st6 st10 st8">Chinese ethnicity</tspan></text>
		<text transform="matrix(1 0 0 1 228.9023 38.0004)" class="st6 st7 st8">Solution</text>
		<rect x="192.9" y="60.5" class="st9" width="126.5" height="224"/>
		<text transform="matrix(1 0 0 1 192.868 70.3002)"><tspan x="0" y="0" class="st6 st10 st8">A web-based ap</tspan><tspan x="110.2" y="0" class="st6 st10 st8">-</tspan><tspan x="0" y="16.8" class="st6 st10 st8">plication that en</tspan><tspan x="105.5" y="16.8" class="st6 st10 st8">-</tspan><tspan x="0" y="33.6" class="st6 st10 st8">hances the target </tspan><tspan x="0" y="50.4" class="st6 st10 st8">audience’s social </tspan><tspan x="0" y="67.2" class="st6 st10 st8">life by making </tspan><tspan x="0" y="84" class="st6 st10 st8">them informed </tspan><tspan x="0" y="100.8" class="st6 st10 st8">about the living </tspan><tspan x="0" y="117.6" class="st6 st10 st8">conditions in Aus</tspan><tspan x="109.3" y="117.6" class="st6 st10 st8">-</tspan><tspan x="0" y="134.4" class="st6 st10 st8">tralia and providing </tspan><tspan x="0" y="151.2" class="st6 st10 st8">information that </tspan><tspan x="0" y="168" class="st6 st10 st8">will help them </tspan><tspan x="0" y="184.8" class="st6 st10 st8">easily transition </tspan><tspan x="0" y="201.6" class="st6 st10 st8">living in a foreign </tspan></text>
		<text transform="matrix(1 0 0 1 218.2482 325.8103)" class="st6 st7 st8">Key Metrics</text>
		<rect x="192.9" y="348.3" class="st9" width="126.5" height="224"/>
		<text transform="matrix(1 0 0 1 192.868 358.1101)"><tspan x="0" y="0" class="st6 st10 st8">Number of active </tspan><tspan x="0" y="16.8" class="st6 st10 st8">users of applica</tspan><tspan x="103.9" y="16.8" class="st6 st10 st8">-</tspan><tspan x="0" y="33.6" class="st6 st10 st8">tion before arrival. </tspan><tspan x="0" y="67.2" class="st6 st10 st8">Number of active </tspan><tspan x="0" y="84" class="st6 st10 st8">users of applica</tspan><tspan x="103.9" y="84" class="st6 st10 st8">-</tspan><tspan x="0" y="100.8" class="st6 st10 st8">tion after arrival.</tspan><tspan x="0" y="134.4" class="st6 st10 st8">Number of users </tspan><tspan x="0" y="151.2" class="st6 st10 st8">designing the </tspan><tspan x="0" y="168" class="st6 st10 st8">3-day plan.</tspan></text>
	</g>
</g>
</svg>
