<svg xmlns="http://www.w3.org/2000/svg" viewBox="0 0 190.28 144.63"><defs><style>.cls-1{fill:#51dddf;}.cls-1,.cls-2{stroke:#690519;stroke-linecap:round;stroke-linejoin:round;stroke-width:2px;}.cls-2{fill:#fcce70;}</style></defs><title>Asset 4</title><g id="Layer_2" data-name="Layer 2"><g id="Layer_5" data-name="Layer 5"><path class="cls-1" d="M125.12,128.13a2,2,0,0,1,0,.24,5,5,0,0,1-.11.53,1.89,1.89,0,0,1,0,.23c-.06.22-.14.44-.22.65l0,.08c-.09.23-.2.47-.31.69s-.18.3-.26.45l-.2.33c-.11.16-.22.3-.34.45l-.23.3c-.13.16-.29.32-.44.47l-.22.24c-.24.23-.49.45-.77.67a3.62,3.62,0,0,1-.32.22,10.15,10.15,0,0,1-1.12.72l-.11.06q-.6.31-1.23.57l-.08,0c-.3.12-.61.22-.92.32l-.27.07-.71.17-.32.07-.68.11-.29,0c-.32,0-.64.06-1,.08h-.06q-.51,0-1,0h-.3l-.88-.07-.22,0-.49-.07-.36-.07-.51-.11-.34-.08-.56-.16-.27-.08q-.41-.13-.81-.3a8.53,8.53,0,0,1-1.18,1.14l-.38.27c-.31.21-.62.41-.94.59l-.27.16c-.4.21-.8.4-1.22.57l-.43.15c-.19.07-.38.14-.57.19l-.47.13-.58.14-.52.1-.52.08-.53.06-.53,0h-.46q-.34,0-.69,0l-.47,0-.67-.05-.57-.08-.34,0-.7-.14-.26-.06c-.32-.08-.63-.17-.94-.27l-.18-.07a7.28,7.28,0,0,1-.73-.28l-.3-.13-.59-.28-.3-.16c-.2-.11-.39-.23-.58-.35l-.25-.16a8.64,8.64,0,0,1-.78-.57,7.89,7.89,0,0,1-.74-.66,8.27,8.27,0,0,1-.64-.7h0q-.69.21-1.41.36l-.2,0-1,.17-.19,0-.88.07h-.32c-.35,0-.7,0-1,0H85.5c-.39,0-.78-.05-1.17-.09l-.37,0-.51-.08-.41-.08-.5-.11-.41-.11-.49-.14-.39-.13-.49-.17-.38-.15-.48-.22-.35-.16c-.17-.08-.33-.17-.49-.26l-.32-.17-.51-.33-.26-.16-.73-.55A9.42,9.42,0,0,1,74,127.49l.13-4.77a13.31,13.31,0,0,1-4.73-2.36,9.73,9.73,0,0,1-3.14-4.3,7.84,7.84,0,0,1-.42-1.88c.26.16.52.31.79.45l.13-5a10,10,0,0,1-1.71-1.1,7.16,7.16,0,0,1-2.89-5.74L62,107.79a7.16,7.16,0,0,0,2.89,5.74,10.13,10.13,0,0,0,.85.61l-.1,4.09a9,9,0,0,0,3.6,7.18,12.88,12.88,0,0,0,4.36,2.23l-.07,2.53a8.83,8.83,0,0,0,3.57,7.14c.23.19.48.37.73.55l.25.16c.17.11.34.22.52.32a3.3,3.3,0,0,0,.32.18l.48.26.36.16.48.22.38.14a4.68,4.68,0,0,0,.48.18l.4.13.49.14.4.1.51.12.4.07.52.08.24,0h.13c.39.05.77.08,1.17.1h1.5c.3,0,.59,0,.89-.08l.19,0c.35,0,.7-.1,1-.17h.08l.12,0c.48-.1,1-.22,1.4-.36A10,10,0,0,0,92,141c.24.2.51.39.77.57l.26.16c.19.12.38.24.57.34l.31.17.59.28.3.13c.24.1.48.2.73.28l.18.07c.31.1.62.19.94.27l.26.06.7.14.34.05.32.05.24,0,.67.06.47,0h1.15l.54-.05.53-.05.52-.09.39-.06.13,0,.57-.14.48-.13.56-.19.37-.13.07,0a11,11,0,0,0,1.21-.56l.28-.16c.32-.18.63-.38.93-.59a1.88,1.88,0,0,0,.18-.12l.2-.15a9.22,9.22,0,0,0,1.19-1.14c.26.11.54.21.81.3l.27.08.56.16.33.08.51.11.37.06.49.08h.22c.29,0,.58.06.88.08h1.37l1-.08.29,0,.67-.11.17,0,.16,0,.7-.17.27-.08a9.21,9.21,0,0,0,.93-.31h0l0,0a12.71,12.71,0,0,0,1.24-.57l.11-.06a11.86,11.86,0,0,0,1.12-.72.41.41,0,0,0,.11-.07l.21-.16a9.88,9.88,0,0,0,.77-.66l.22-.24c.15-.16.3-.31.44-.47l.23-.3c.11-.15.23-.3.33-.45a2.9,2.9,0,0,0,.2-.33c.09-.15.18-.3.26-.45a.25.25,0,0,0,0-.07,4.91,4.91,0,0,0,.28-.62l0-.08c.08-.21.15-.43.21-.65s0-.16.06-.23.08-.35.11-.53,0-.16,0-.24a.68.68,0,0,1,0-.14c0-.2,0-.39,0-.59l.13-5A5.83,5.83,0,0,1,125.12,128.13Z"/><path class="cls-1" d="M148,102a2,2,0,0,1,0,.24c0,.17-.06.35-.1.53l-.06.23a5.53,5.53,0,0,1-.22.65s0,0,0,.08c-.1.23-.21.46-.32.69s-.17.3-.26.45l-.2.33-.34.45-.22.3c-.14.16-.29.31-.44.47s-.15.16-.23.23c-.24.23-.49.45-.76.67s-.36.26-.55.38l-.21.14-.7.4-.13,5.05c.24-.13.47-.26.7-.41l.21-.14c.13-.08.26-.16.38-.25a4.6,4.6,0,0,1-.05.64,1.57,1.57,0,0,1,0,.23c0,.18-.06.35-.1.53l-.06.23a6.45,6.45,0,0,1-.21.62l0,.1a5.42,5.42,0,0,1-.32.69l-.25.45-.2.33c-.1.15-.22.29-.33.44s-.15.2-.23.29a6.29,6.29,0,0,1-.43.47l-.23.24a9.73,9.73,0,0,1-.75.65l-.38.27a10,10,0,0,1-.94.6l-.27.15c-.4.21-.8.4-1.22.57l-.43.15c-.19.07-.37.14-.57.2l-.47.12-.57.14-.52.1-.53.08c-.17,0-.35,0-.53.06l-.53,0h-.46q-.34,0-.69,0l-.47,0-.67,0-.56-.07-.34-.06-.71-.14-.26-.06q-.47-.12-.93-.27l-.18-.07c-.25-.08-.49-.17-.73-.27l-.3-.14-.59-.28-.31-.16-.57-.35-.26-.16a8.64,8.64,0,0,1-.78-.57L100.93,98.43l.6-.16.08,0c.24-.07.48-.15.71-.24l.52-.22a1.15,1.15,0,0,1,.36-.11h.06a1.36,1.36,0,0,1,.35,0h0a1.09,1.09,0,0,1,.24.07.61.61,0,0,1,.13,0,1.35,1.35,0,0,1,.33.19l1.77,1.43.13-5-1.77-1.43a1.42,1.42,0,0,0-.32-.19l-.15,0a1,1,0,0,0-.23-.06h0a1,1,0,0,0-.25,0h-.22l-.22.07-.07,0a10.69,10.69,0,0,1-1.23.46l-.08,0c-.4.11-.81.2-1.22.27l-.24,0a11.63,11.63,0,0,1-1.2.11h-.25c-.35,0-.7,0-1.05,0l-.27,0c-.27,0-.53-.09-.8-.14s-.38-.06-.57-.11a7.75,7.75,0,0,1-.78-.24c-.17-.06-.35-.1-.52-.17s-.54-.25-.81-.39l-.4-.19a9.46,9.46,0,0,1-1.11-.76l-8.1-6.53a7.18,7.18,0,0,1-2.89-5.75l-.13,5a7.16,7.16,0,0,0,2.89,5.75l8.1,6.53a7.71,7.71,0,0,0,1.11.75c.13.08.27.13.4.2a8.59,8.59,0,0,0,.81.39l.52.17c.26.08.51.17.78.24s.38.07.57.11l.64.12h.16l.27,0c.35,0,.7,0,1,0h.25a.57.57,0,0,0,.13,0c.26,0,.52,0,.77-.06l-.1,4,25.63,20.66q.38.3.78.57a2.26,2.26,0,0,0,.26.16,6.59,6.59,0,0,0,.57.34l.31.17.58.28.3.13c.25.1.49.2.74.28l.17.07c.31.1.62.19.94.27l.26.06.7.14.35.05.32,0,.24,0c.22,0,.45,0,.67.06l.47,0q.34,0,.69,0c.11,0,.22,0,.32,0h.14l.53-.05.53,0a4.89,4.89,0,0,0,.53-.09c.13,0,.26,0,.39-.06l.12,0,.58-.14.47-.13c.19,0,.38-.12.57-.19l.37-.12s0,0,.06,0c.42-.17.82-.36,1.22-.57l.27-.15q.48-.29.93-.6l.18-.11.2-.16a8.18,8.18,0,0,0,.76-.66,2.39,2.39,0,0,0,.22-.23c.15-.15.3-.31.44-.47a3.15,3.15,0,0,0,.22-.29q.18-.22.33-.45a2.23,2.23,0,0,0,.2-.33c.09-.14.18-.29.26-.44l0-.06c.1-.21.19-.42.28-.63l0-.1a6.45,6.45,0,0,0,.21-.62c0-.08,0-.16.05-.23a5,5,0,0,0,.11-.53c0-.08,0-.15,0-.23a.59.59,0,0,1,0-.14c0-.2,0-.39,0-.59l.13-5,.16-.11c.27-.22.52-.44.76-.67.08-.07.15-.16.22-.23s.31-.31.44-.48.15-.2.23-.29.23-.3.33-.45a3.87,3.87,0,0,0,.21-.34c.08-.14.18-.29.25-.44l0-.07q.15-.32.27-.63l0-.08c.08-.21.15-.43.21-.64a2.1,2.1,0,0,0,.06-.24,4.82,4.82,0,0,0,.11-.52c0-.08,0-.16,0-.24a.59.59,0,0,1,0-.14c0-.2,0-.39,0-.59l.13-5.05A6,6,0,0,1,148,102Z"/><path class="cls-2" d="M140.41,82.91c3.65,2.93,4.52,7.2,2.66,10.74a11.78,11.78,0,0,1,1.69,1.12c4.35,3.51,4.34,9.11,0,12.52a11.57,11.57,0,0,1-1.46.92c2.07,3.33,1.41,7.44-2.07,10.16a13.28,13.28,0,0,1-15.77-.18L99.81,97.53A16.15,16.15,0,0,0,106,95.86l.19-.12a.85.85,0,0,0,0-1.4l-1.77-1.43a1.46,1.46,0,0,0-1.47-.17,10.41,10.41,0,0,1-10.53-1.15l-8.1-6.53C80.49,82,80.5,77,84.37,73.94a11.86,11.86,0,0,1,12-1c.08-.06.14-.14.22-.2a11.81,11.81,0,0,1,14,.15A8.84,8.84,0,0,1,112,74.22a14.88,14.88,0,0,1,13.53,2.27,9.76,9.76,0,0,1,2.89,3.78A14.74,14.74,0,0,1,140.41,82.91Z"/><path class="cls-2" d="M66.82,87.65a11.81,11.81,0,0,1,14,.16l8.1,6.52c2.85,2.3,3.25,5.76,1.27,8.38a.83.83,0,0,0,.2,1.17l1.77,1.43a1.49,1.49,0,0,0,1.76,0,1.17,1.17,0,0,0,.16-.15,9.33,9.33,0,0,0,2.2-4.91l25.63,20.67c4.35,3.51,4.34,9.11,0,12.52a13.33,13.33,0,0,1-12.83,1.48,8.53,8.53,0,0,1-1.18,1.14,13.28,13.28,0,0,1-15.77-.18,8.9,8.9,0,0,1-1.38-1.36,14.87,14.87,0,0,1-13.5-2.28C74,129.65,73,126,74.11,122.72a13.31,13.31,0,0,1-4.73-2.36c-3.65-3-4.53-7.23-2.64-10.78a10,10,0,0,1-1.71-1.1c-3.86-3.11-3.85-8.09,0-11.11.09-.07.18-.11.27-.18C63.06,94.15,63.55,90.21,66.82,87.65Z"/><polygon class="cls-1" points="33.06 66.5 9.78 55.59 1 74.32 24.28 85.23 20 94.37 50.49 86.09 37.34 57.36 33.06 66.5"/><polygon class="cls-1" points="100.03 26.54 97.05 1 76.51 3.39 79.48 28.93 69.46 30.1 92.54 51.67 110.05 25.37 100.03 26.54"/><polygon class="cls-1" points="171.74 58.16 189.28 39.36 174.15 25.25 156.61 44.04 149.24 37.16 147.74 68.72 179.12 65.04 171.74 58.16"/></g></g></svg>