<?xml version="1.0" encoding="utf-8"?>
<!-- Generator: Adobe Illustrator 22.1.0, SVG Export Plug-In . SVG Version: 6.00 Build 0)  -->
<svg version="1.1" id="Layer_1" xmlns="http://www.w3.org/2000/svg" xmlns:xlink="http://www.w3.org/1999/xlink" x="0px" y="0px"
	 viewBox="0 0 770 770" style="enable-background:new 0 0 770 770;" xml:space="preserve">
<style type="text/css">
	.st0{fill:#FFFFFF;}
	.st1{fill:url(#SVGID_1_);}
	.st2{fill:url(#SVGID_2_);}
	.st3{fill:none;stroke:#153784;stroke-linecap:round;stroke-linejoin:round;stroke-miterlimit:10;stroke-dasharray:12,3;}
	.st4{fill:url(#SVGID_3_);}
	.st5{opacity:0.4;fill:#3D5EC4;}
	.st6{fill:url(#SVGID_4_);}
	.st7{fill:url(#SVGID_5_);}
	.st8{fill:#061936;}
	.st9{fill:#153784;}
	.st10{fill:#3D5EC4;}
	.st11{fill:url(#SVGID_6_);}
	.st12{fill:url(#SVGID_7_);}
	.st13{fill:url(#SVGID_8_);}
	.st14{fill:none;stroke:#E7871E;stroke-linecap:round;stroke-linejoin:round;stroke-miterlimit:10;stroke-dasharray:12,3;}
	.st15{fill:url(#SVGID_9_);}
	.st16{fill:url(#SVGID_10_);}
	.st17{fill:url(#SVGID_11_);}
	.st18{fill:url(#SVGID_12_);}
	.st19{enable-background:new    ;}
	.st20{clip-path:url(#SVGID_14_);enable-background:new    ;}
	.st21{fill:#E77F24;}
	.st22{clip-path:url(#SVGID_16_);enable-background:new    ;}
	.st23{fill:url(#SVGID_17_);}
	.st24{fill:url(#SVGID_18_);}
	.st25{fill:url(#SVGID_19_);}
	.st26{clip-path:url(#SVGID_21_);enable-background:new    ;}
	.st27{clip-path:url(#SVGID_23_);enable-background:new    ;}
	.st28{clip-path:url(#SVGID_25_);enable-background:new    ;}
	.st29{clip-path:url(#SVGID_27_);enable-background:new    ;}
	.st30{clip-path:url(#SVGID_29_);enable-background:new    ;}
	.st31{clip-path:url(#SVGID_31_);enable-background:new    ;}
	.st32{clip-path:url(#SVGID_33_);enable-background:new    ;}
	.st33{clip-path:url(#SVGID_35_);enable-background:new    ;}
	.st34{fill:url(#SVGID_36_);}
	.st35{fill:url(#SVGID_37_);}
	.st36{fill:url(#SVGID_38_);}
	.st37{fill:url(#SVGID_39_);}
	.st38{fill:url(#SVGID_40_);}
	.st39{fill:url(#SVGID_41_);}
	.st40{fill:url(#SVGID_42_);}
	.st41{fill:url(#SVGID_43_);}
	.st42{fill:url(#SVGID_44_);}
	.st43{fill:url(#SVGID_45_);}
	.st44{fill:url(#SVGID_46_);}
	.st45{fill:#999999;}
	.st46{fill:#E6E6E6;}
	.st47{clip-path:url(#SVGID_48_);enable-background:new    ;}
	.st48{fill:#CCCCCC;}
	.st49{clip-path:url(#SVGID_50_);enable-background:new    ;}
	.st50{clip-path:url(#SVGID_52_);enable-background:new    ;}
	.st51{fill:#EDDCC8;}
	.st52{fill:url(#SVGID_53_);}
	.st53{fill:url(#SVGID_54_);}
	.st54{fill:url(#SVGID_55_);}
	.st55{fill:url(#SVGID_56_);}
	.st56{fill:url(#SVGID_57_);}
	.st57{fill:#F39C12;}
	.st58{fill:#F1C40F;}
	.st59{fill:url(#SVGID_58_);}
	.st60{fill:url(#SVGID_59_);}
	.st61{fill:url(#SVGID_60_);}
	.st62{fill:url(#SVGID_61_);}
	.st63{fill:url(#SVGID_62_);}
	.st64{fill:#E7871E;}
	.st65{fill:url(#SVGID_63_);}
	.st66{fill:url(#SVGID_64_);}
	.st67{fill:url(#SVGID_65_);}
</style>
<rect x="-2" y="-2.1" class="st0" width="774.1" height="774.1"/>
<linearGradient id="SVGID_1_" gradientUnits="userSpaceOnUse" x1="235.3831" y1="511.6097" x2="728.9636" y2="511.6097">
	<stop  offset="0" style="stop-color:#153784"/>
	<stop  offset="1" style="stop-color:#3D5EC4"/>
</linearGradient>
<path class="st1" d="M594.5,490.4h-15.3l-128-73.9c-20.1-11.6-53-11.6-73,0l-127.7,73.7c-0.1,0-0.2,0.1-0.3,0.2h-14.8v21.2h0
	c0.1,7.6,5.1,15.1,15,20.9l127.8,74.2c20.1,11.6,52.9,11.7,73,0.1l128.2-74c10-5.8,15.1-13.5,15.1-21.1h0V490.4z"/>
<linearGradient id="SVGID_2_" gradientUnits="userSpaceOnUse" x1="92.562" y1="490.3779" x2="593.9122" y2="490.3779">
	<stop  offset="0" style="stop-color:#153784"/>
	<stop  offset="1" style="stop-color:#3D5EC4"/>
</linearGradient>
<path class="st2" d="M451.2,395.3c-20.1-11.6-53-11.6-73,0L250.5,469c-20.1,11.6-20.1,30.6,0,42.3l127.8,74.2
	c20.1,11.6,52.9,11.7,73,0.1l128.2-74c20.1-11.6,20.1-30.6,0-42.2L451.2,395.3z"/>
<g>
	<path class="st3" d="M273.5,569.3"/>
</g>
<path class="st3" d="M240.7,599l-85.5-49.4c-24.6-14.2-24.6-37.5,0-51.7l130.7-75.4l6.1-3.6c43.5-25.2,77.7-45,77.7-45
	c24.6-14.3,64.9-14.3,89.5-0.1l215,124.1c24.6,14.2,24.6,37.5,0,51.7L588.7,599"/>
<g>
	<polyline class="st3" points="223.4,595.4 209,603.6 240.3,621.7 271.6,603.6 240.3,585.6 223.4,595.4 	"/>
	<linearGradient id="SVGID_3_" gradientUnits="userSpaceOnUse" x1="225.5279" y1="586.8974" x2="254.6514" y2="586.8974">
		<stop  offset="0" style="stop-color:#153784"/>
		<stop  offset="1" style="stop-color:#3D5EC4"/>
	</linearGradient>
	<polygon class="st4" points="240.3,578.5 225.8,586.9 240.3,595.3 254.9,586.9 	"/>
	<polygon class="st5" points="240.3,573.2 228.2,580.2 240.3,587.2 252.5,580.2 	"/>
	<linearGradient id="SVGID_4_" gradientUnits="userSpaceOnUse" x1="232.9562" y1="610.2735" x2="233.1462" y2="583.2092">
		<stop  offset="0" style="stop-color:#153784"/>
		<stop  offset="1" style="stop-color:#3D5EC4"/>
	</linearGradient>
	<polygon class="st6" points="240.3,612.1 225.8,603.7 225.8,586.9 240.3,595.3 	"/>
	<linearGradient id="SVGID_5_" gradientUnits="userSpaceOnUse" x1="228.467" y1="611.1837" x2="251.7498" y2="596.9711">
		<stop  offset="0" style="stop-color:#153784"/>
		<stop  offset="1" style="stop-color:#3D5EC4"/>
	</linearGradient>
	<polygon class="st7" points="254.9,586.9 240.3,595.3 240.3,612.1 254.9,603.7 	"/>
	<polygon class="st3" points="240.3,562.1 221.1,573.2 240.3,584.3 259.5,573.2 	"/>
	<g>
		<polygon class="st8" points="245.3,550.8 234.6,556.9 234.6,576.4 245.3,570.3 		"/>
		<polygon class="st9" points="247.1,551.8 236.5,557.9 236.5,577.4 247.1,571.2 		"/>
		<polygon class="st10" points="249.2,553.1 238.6,559.3 238.6,578.7 249.2,572.6 		"/>
	</g>
</g>
<g>
	<polyline class="st3" points="570.3,594.7 555.9,602.9 587.2,621 618.5,602.9 587.2,584.9 570.3,594.7 	"/>
	<linearGradient id="SVGID_6_" gradientUnits="userSpaceOnUse" x1="572.4594" y1="586.2178" x2="601.5829" y2="586.2178">
		<stop  offset="0" style="stop-color:#153784"/>
		<stop  offset="1" style="stop-color:#3D5EC4"/>
	</linearGradient>
	<polygon class="st11" points="587.2,577.8 572.7,586.2 587.2,594.6 601.8,586.2 	"/>
	<polygon class="st5" points="587.2,572.5 575.1,579.5 587.2,586.6 599.4,579.5 	"/>
	<linearGradient id="SVGID_7_" gradientUnits="userSpaceOnUse" x1="579.8876" y1="609.5939" x2="580.0776" y2="582.5297">
		<stop  offset="0" style="stop-color:#153784"/>
		<stop  offset="1" style="stop-color:#3D5EC4"/>
	</linearGradient>
	<polygon class="st12" points="587.2,611.4 572.7,603 572.7,586.2 587.2,594.6 	"/>
	<linearGradient id="SVGID_8_" gradientUnits="userSpaceOnUse" x1="575.3985" y1="610.504" x2="598.6813" y2="596.2915">
		<stop  offset="0" style="stop-color:#153784"/>
		<stop  offset="1" style="stop-color:#3D5EC4"/>
	</linearGradient>
	<polygon class="st13" points="601.8,586.2 587.2,594.6 587.2,611.4 601.8,603 	"/>
	<polygon class="st3" points="587.2,561.5 568.1,572.5 587.2,583.6 606.4,572.5 	"/>
	<g>
		<polygon class="st8" points="592.2,550.1 581.6,556.2 581.6,575.7 592.2,569.6 		"/>
		<polygon class="st9" points="594,551.1 583.4,557.2 583.4,576.7 594,570.5 		"/>
		<polygon class="st10" points="596.1,552.5 585.5,558.6 585.5,578.1 596.1,571.9 		"/>
	</g>
</g>
<g>
	<line class="st3" x1="560" y1="308.8" x2="489.4" y2="268.1"/>
	<line class="st3" x1="604.6" y1="612.5" x2="669.2" y2="649.6"/>
	<line class="st3" x1="680.3" y1="381.2" x2="577.4" y2="440.9"/>
	<line class="st3" x1="183.5" y1="565.5" x2="67.8" y2="632.2"/>
	<line class="st3" x1="61" y1="301.7" x2="179.1" y2="370.4"/>
	<line class="st3" x1="153.3" y1="403.6" x2="82.9" y2="444.1"/>
	<polyline class="st3" points="350.8,384.7 271.2,338.9 308.1,316.9 	"/>
	<line class="st3" x1="631.8" y1="246.4" x2="561.1" y2="205.6"/>
	<polyline class="st3" points="574.4,300.6 605.7,282.5 631.6,267.6 	"/>
	<line class="st3" x1="488.9" y1="389.8" x2="621.6" y2="313.1"/>
	<line class="st3" x1="486.4" y1="248.8" x2="561.1" y2="205.6"/>
</g>
<ellipse class="st14" cx="411" cy="485.8" rx="70.6" ry="40.8"/>
<line class="st3" x1="271.9" y1="430.6" x2="227.4" y2="404.7"/>
<g>
	<linearGradient id="SVGID_9_" gradientUnits="userSpaceOnUse" x1="119.38" y1="382.8135" x2="263.9774" y2="382.8135">
		<stop  offset="0" style="stop-color:#E7871E"/>
		<stop  offset="1" style="stop-color:#F39C12"/>
	</linearGradient>
	<path class="st15" d="M256.6,364.3c-3.4-4-8-7.7-13.7-11.1c-28.2-16.3-74.2-16.3-102.4,0c-5.7,3.3-10.3,7.1-13.7,11.1h-7.4v18.5
		l0,0c0,10.7,7,21.4,21.1,29.6c28.2,16.3,74.2,16.3,102.4,0c14.1-8.1,21.1-18.8,21.1-29.6v-18.5H256.6z"/>
	<linearGradient id="SVGID_10_" gradientUnits="userSpaceOnUse" x1="119.38" y1="364.3265" x2="263.9774" y2="364.3265">
		<stop  offset="0" style="stop-color:#F39C12"/>
		<stop  offset="1" style="stop-color:#F1C40F"/>
	</linearGradient>
	<ellipse class="st16" cx="191.7" cy="364.3" rx="72.4" ry="41.8"/>
	<linearGradient id="SVGID_11_" gradientUnits="userSpaceOnUse" x1="132.7975" y1="361.6255" x2="290.6068" y2="361.6255">
		<stop  offset="0" style="stop-color:#E7871E"/>
		<stop  offset="1" style="stop-color:#F1C40F"/>
	</linearGradient>
	<ellipse class="st17" cx="191.7" cy="361.6" rx="59" ry="31.8"/>
	<linearGradient id="SVGID_12_" gradientUnits="userSpaceOnUse" x1="191.6787" y1="364.1464" x2="191.6787" y2="329.8602">
		<stop  offset="0" style="stop-color:#F39C12"/>
		<stop  offset="1" style="stop-color:#F1C40F"/>
	</linearGradient>
	<path class="st18" d="M150,344.2c22.9-12.4,60.4-12.4,83.4,0c10.3,5.5,15.9,12.7,17,20c1.3-9-4.4-18.2-17-25
		c-22.9-12.4-60.4-12.4-83.4,0c-12.6,6.8-18.3,16-17,25C134.1,356.9,139.7,349.7,150,344.2z"/>
	<g>
		<g class="st19">
			<defs>
				<path id="SVGID_13_" class="st19" d="M183.6,345.2l-0.1,3.6c0-0.6,0-1.2,0-1.8l0.1-3.6C183.6,344,183.6,344.6,183.6,345.2z"/>
			</defs>
			<use xlink:href="#SVGID_13_"  style="overflow:visible;fill:#E77F24;"/>
			<clipPath id="SVGID_14_">
				<use xlink:href="#SVGID_13_"  style="overflow:visible;"/>
			</clipPath>
			<g class="st20">
				<path class="st21" d="M183.6,345.2l-0.1,3.6c0-0.6,0-1.2,0-1.8l0.1-3.6C183.6,344,183.6,344.6,183.6,345.2"/>
			</g>
		</g>
		<g>
			<polygon class="st21" points="217.1,342.5 216.9,346.1 207.3,351.4 207.4,347.8 			"/>
		</g>
		<g>
			<defs>
				<path id="SVGID_15_" d="M226.2,344.2l-0.1,3.6c-0.1,0-0.2,0.1-0.2,0.1c-3.5,1.9-7.3,4-10.7,6l0.1-3.6c3.5-1.9,7.3-4,10.7-6
					C226.1,344.2,226.1,344.2,226.2,344.2z"/>
			</defs>
			<use xlink:href="#SVGID_15_"  style="overflow:visible;fill:#E77F24;"/>
			<clipPath id="SVGID_16_">
				<use xlink:href="#SVGID_15_"  style="overflow:visible;"/>
			</clipPath>
			<g class="st22">
				<path class="st21" d="M226.2,344.2l-0.1,3.6c-0.1,0-0.2,0.1-0.2,0.1c-3.5,1.9-7.3,4-10.7,6l0.1-3.6c3.5-1.9,7.3-4,10.7-6
					C226.1,344.2,226.1,344.2,226.2,344.2"/>
			</g>
		</g>
		<path class="st21" d="M228.3,349.8c-3.5,1.9-7.2,4-10.7,5.9l-0.1,3.6c3.5-1.9,7.2-4,10.7-5.9l0.2-0.1l0.1-3.6L228.3,349.8z"/>
		<path class="st21" d="M222.1,367.6c-1.1,0-2.2-0.1-3.3-0.1c-0.1,0-0.1,0-0.1,0c0,0,0,0,0,0c0,0-0.1,0-0.1,0c0,0,0,0-0.1,0
			c0,0,0,0,0,0c0,0,0-0.1-0.1-0.1c-1.9-4.6-3.9-9.2-5.8-13.7c-0.4-0.9-0.7-1.8-1.1-2.6c0,0,0-0.1-0.1-0.1c0,0,0,0,0,0c0,0,0,0-0.1,0
			c0,0,0,0,0,0c0,0,0,0,0,0c0,0,0,0,0,0c0,0,0,0,0,0c0,0,0,0,0,0c0,0,0,0,0,0c0,0,0,0,0,0c-9.1-1.7-18.1-3.4-27.2-5c0,0-0.1,0-0.1,0
			c0,0,0,0,0,0c0,0,0,0,0,0c0,0,0,0,0,0c0,0,0,0,0,0c0,0,0,0-0.1,0c0,0,0,0,0,0c0,0,0,0,0,0c0,0,0,0,0,0c0,0,0,0,0,0c0,0,0,0,0,0
			c0,0,0,0,0-0.1l-0.1,3.6c0,0,0,0,0,0.1c0,0,0,0,0,0c0,0,0,0,0,0c0,0,0,0,0,0c0,0,0,0,0,0c0,0,0,0,0,0c0,0,0,0,0.1,0c0,0,0,0,0,0
			c0,0,0,0,0,0c0,0,0,0,0,0c0,0,0,0,0,0c0,0,0,0,0,0c0,0,0,0,0,0c0,0,0,0,0,0c0,0,0,0,0.1,0c9.1,1.7,18.1,3.4,27.2,5
			c0,0,0.1,0,0.1,0c0,0,0,0,0,0c0,0,0,0,0.1,0c0,0,0.1,0,0.1,0c0,0,0,0,0,0c0,0,0,0.1,0.1,0.1c0.4,0.9,0.7,1.8,1.1,2.6
			c1.9,4.6,3.9,9.2,5.8,13.7c0,0,0,0.1,0.1,0.1c0,0,0,0,0,0c0,0,0,0,0.1,0c0,0,0,0,0,0c0,0,0,0,0,0c0,0,0,0,0,0c0,0,0,0,0,0
			c0,0,0,0,0,0c0,0,0,0,0,0c0,0,0,0,0,0c0,0,0.1,0,0.1,0c0,0,0,0,0,0c1.1,0,2.2,0.1,3.3,0.1c0.1,0,0.2,0,0.3,0l0.1-3.6
			C222.2,367.6,222.1,367.6,222.1,367.6z"/>
		<g>
			<linearGradient id="SVGID_17_" gradientUnits="userSpaceOnUse" x1="119.6669" y1="400.4646" x2="225.0972" y2="343.5629">
				<stop  offset="0" style="stop-color:#F39C12"/>
				<stop  offset="1" style="stop-color:#F1C40F"/>
			</linearGradient>
			<path class="st23" d="M212.2,348.7c3.9-2,7.7-4.1,11.3-6.1c0.1,0,0.1-0.1,0.1-0.1l2.6,1.6c-0.1,0-0.2,0.1-0.2,0.1
				c-3.5,1.9-7.3,4-10.7,6c0.2,1.2,0.6,2,1,2.9c0,0,0,0.1,0.1,0.2l9.6-5.3l2.6,1.6l-0.2,0.1c-3.5,1.9-7.2,4-10.7,5.9
				c1.5,4.1,3.1,7.9,4.7,11.7c0,0.1,0.1,0.2,0.1,0.3c-0.1,0-0.2,0-0.3,0c-1.1,0-2.2-0.1-3.3-0.1c-0.2,0-0.3,0-0.4-0.2
				c-1.9-4.6-3.9-9.2-5.8-13.7c-0.4-0.9-0.7-1.8-1.1-2.6c0-0.1-0.2-0.2-0.3-0.2c-9.1-1.7-18.1-3.4-27.2-5c-0.3-0.1-0.4-0.1-0.3-0.3
				c0-0.7,0-1.4,0-2.1c0.1,0,0.2,0,0.3,0c6.4,1.2,12.7,2.4,19.1,3.5c1-0.3,1.4-0.6,1.9-0.8c1.3-0.7,2.7-1.5,4-2.2c1.8-1,3.6-2,5.3-3
				c1.2,0.5,1.9,0.9,2.6,1.3l0.2,0.1l-9.6,5.3c0.1,0,0.2,0,0.2,0.1C209.2,348.1,210.7,348.4,212.2,348.7z"/>
		</g>
		<g>
			<linearGradient id="SVGID_18_" gradientUnits="userSpaceOnUse" x1="119.7906" y1="400.6938" x2="225.2209" y2="343.7921">
				<stop  offset="0" style="stop-color:#F39C12"/>
				<stop  offset="1" style="stop-color:#F1C40F"/>
			</linearGradient>
			<polygon class="st24" points="174.7,359 178.1,357.1 195.5,368 204.6,363 207.9,365 195.4,372 			"/>
			<linearGradient id="SVGID_19_" gradientUnits="userSpaceOnUse" x1="119.7906" y1="400.6938" x2="225.2209" y2="343.7921">
				<stop  offset="0" style="stop-color:#F39C12"/>
				<stop  offset="1" style="stop-color:#F1C40F"/>
			</linearGradient>
			<polygon class="st25" points="204.6,363 195.5,368 178.1,357.1 174.7,359 195.4,372 207.9,365 			"/>
		</g>
		<g>
			<polygon class="st21" points="207.9,365 207.8,368.7 195.3,375.6 195.4,372 			"/>
		</g>
		<g>
			<polygon class="st21" points="195.4,372 195.3,375.6 174.6,362.7 174.7,359 			"/>
		</g>
		<g>
			<defs>
				<path id="SVGID_20_" d="M164.1,368.8l-0.1,3.6c-1.4-4.2-3-8-4.6-11.8c0-0.1,0-0.1-0.1-0.2l0.1-3.6c0,0.1,0,0.1,0.1,0.2
					C161.1,360.8,162.7,364.6,164.1,368.8z"/>
			</defs>
			<use xlink:href="#SVGID_20_"  style="overflow:visible;fill:#E77F24;"/>
			<clipPath id="SVGID_21_">
				<use xlink:href="#SVGID_20_"  style="overflow:visible;"/>
			</clipPath>
			<g class="st26">
				<path class="st21" d="M164.1,368.8l-0.1,3.6c-1.4-4.2-3-8-4.6-11.8c0-0.1,0-0.1-0.1-0.2l0.1-3.6c0,0.1,0,0.1,0.1,0.2
					C161.1,360.8,162.7,364.6,164.1,368.8"/>
			</g>
		</g>
		<g>
			<defs>
				<path id="SVGID_22_" d="M166.5,374.3l-0.1,3.6c-0.2-1.2-0.6-2.1-0.9-2.9c0,0,0-0.1-0.1-0.2l0.1-3.6c0,0.1,0.1,0.1,0.1,0.2
					C165.9,372.2,166.2,373.1,166.5,374.3z"/>
			</defs>
			<use xlink:href="#SVGID_22_"  style="overflow:visible;fill:#E77F24;"/>
			<clipPath id="SVGID_23_">
				<use xlink:href="#SVGID_22_"  style="overflow:visible;"/>
			</clipPath>
			<g class="st27">
				<path class="st21" d="M166.5,374.3l-0.1,3.6c-0.2-1.2-0.6-2.1-0.9-2.9c0,0,0-0.1-0.1-0.2l0.1-3.6c0,0.1,0.1,0.1,0.1,0.2
					C165.9,372.2,166.2,373.1,166.5,374.3"/>
			</g>
		</g>
		<g>
			<defs>
				<path id="SVGID_24_" d="M174.1,376.6l-0.1,3.6c-1.5-0.3-3-0.6-4.6-0.8l0.1-3.6C171,376.1,172.5,376.3,174.1,376.6z"/>
			</defs>
			<use xlink:href="#SVGID_24_"  style="overflow:visible;fill:#E77F24;"/>
			<clipPath id="SVGID_25_">
				<use xlink:href="#SVGID_24_"  style="overflow:visible;"/>
			</clipPath>
			<g class="st28">
				<path class="st21" d="M174.1,376.6l-0.1,3.6c-1.5-0.3-3-0.6-4.6-0.8l0.1-3.6C171,376.1,172.5,376.3,174.1,376.6"/>
			</g>
		</g>
		<g class="st19">
			<defs>
				<path id="SVGID_26_" class="st19" d="M174.3,376.7l-0.1,3.6c-0.1,0-0.1,0-0.2-0.1l0.1-3.6C174.1,376.6,174.2,376.7,174.3,376.7z
					"/>
			</defs>
			<use xlink:href="#SVGID_26_"  style="overflow:visible;fill:#E77F24;"/>
			<clipPath id="SVGID_27_">
				<use xlink:href="#SVGID_26_"  style="overflow:visible;"/>
			</clipPath>
			<g class="st29">
				<path class="st21" d="M174.3,376.7l-0.1,3.6c-0.1,0-0.1,0-0.2-0.1l0.1-3.6C174.1,376.6,174.2,376.7,174.3,376.7"/>
			</g>
		</g>
		<g>
			<defs>
				<path id="SVGID_28_" d="M153.3,378.4l0.1-3.6c0,0,0,0.1,0.1,0.1c0.7,0.5,1.5,0.9,2.2,1.4c0.1,0,0.1,0.1,0.2,0.1l-0.1,3.6
					c-0.1-0.1-0.2-0.1-0.2-0.1c-0.7-0.5-1.5-0.9-2.2-1.4C153.3,378.5,153.3,378.5,153.3,378.4z"/>
			</defs>
			<use xlink:href="#SVGID_28_"  style="overflow:visible;fill:#E77F24;"/>
			<clipPath id="SVGID_29_">
				<use xlink:href="#SVGID_28_"  style="overflow:visible;"/>
			</clipPath>
			<g class="st30">
				<path class="st21" d="M155.9,376.4l-0.1,3.6c-0.1-0.1-0.2-0.1-0.2-0.1c-0.7-0.5-1.5-0.9-2.2-1.4c-0.1-0.1-0.1-0.1-0.1-0.1
					l0.1-3.6c0,0,0,0.1,0.1,0.1c0.7,0.5,1.5,0.9,2.2,1.4C155.8,376.3,155.8,376.4,155.9,376.4"/>
			</g>
		</g>
		<g>
			<polygon class="st21" points="165.4,371.2 165.3,374.8 155.8,380.1 155.9,376.4 			"/>
		</g>
		<g class="st19">
			<defs>
				<path id="SVGID_30_" class="st19" d="M198.3,379.4l-0.1,3.6c0,0.5,0,1.1-0.1,1.6l0.1-3.6C198.3,380.5,198.3,379.9,198.3,379.4z"
					/>
			</defs>
			<use xlink:href="#SVGID_30_"  style="overflow:visible;fill:#E77F24;"/>
			<clipPath id="SVGID_31_">
				<use xlink:href="#SVGID_30_"  style="overflow:visible;"/>
			</clipPath>
			<g class="st31">
				<path class="st21" d="M198.3,379.4l-0.1,3.6c0,0.5,0,1.1-0.1,1.6l0.1-3.6C198.3,380.5,198.3,379.9,198.3,379.4"/>
			</g>
		</g>
		<g>
			<defs>
				<path id="SVGID_32_" d="M198.3,381l-0.1,3.6c-0.1,0-0.3,0-0.4-0.1c-6.4-1.2-12.7-2.3-19.1-3.5l0.1-3.6
					c6.4,1.2,12.7,2.3,19.1,3.5C198,381,198.1,381,198.3,381z"/>
			</defs>
			<use xlink:href="#SVGID_32_"  style="overflow:visible;fill:#E77F24;"/>
			<clipPath id="SVGID_33_">
				<use xlink:href="#SVGID_32_"  style="overflow:visible;"/>
			</clipPath>
			<g class="st32">
				<path class="st21" d="M198.3,381l-0.1,3.6c-0.1,0-0.3,0-0.4-0.1c-6.4-1.2-12.7-2.3-19.1-3.5l0.1-3.6c6.4,1.2,12.7,2.3,19.1,3.5
					C198,381,198.1,381,198.3,381"/>
			</g>
		</g>
		<g>
			<polygon class="st21" points="158.1,381.9 158,385.6 155.5,383.9 155.6,380.3 			"/>
		</g>
		<g>
			<defs>
				<path id="SVGID_34_" d="M169.5,375.8l-0.1,3.6c-3.9,2-7.6,4.1-11.2,6.1c0,0-0.1,0.1-0.2,0.1l0.1-3.6c0,0,0.1-0.1,0.2-0.1
					C161.9,379.9,165.6,377.8,169.5,375.8z"/>
			</defs>
			<use xlink:href="#SVGID_34_"  style="overflow:visible;fill:#E77F24;"/>
			<clipPath id="SVGID_35_">
				<use xlink:href="#SVGID_34_"  style="overflow:visible;"/>
			</clipPath>
			<g class="st33">
				<path class="st21" d="M169.5,375.8l-0.1,3.6c-3.9,2-7.6,4.1-11.2,6.1c0,0-0.1,0.1-0.2,0.1l0.1-3.6c0,0,0.1-0.1,0.2-0.1
					C161.9,379.9,165.6,377.8,169.5,375.8"/>
			</g>
		</g>
		<g>
			<polygon class="st21" points="167.4,383.6 167.3,387.2 164.7,385.6 164.8,381.9 			"/>
		</g>
		<path class="st21" d="M167.6,383.4l-0.2,0.1l-0.1,3.6l0.2-0.1c3.5-1.9,7.1-4,11.2-6l0.1-3.6C174.7,379.5,171.1,381.5,167.6,383.4z
			"/>
		<g>
			<linearGradient id="SVGID_36_" gradientUnits="userSpaceOnUse" x1="119.8335" y1="400.7734" x2="225.2639" y2="343.8716">
				<stop  offset="0" style="stop-color:#F39C12"/>
				<stop  offset="1" style="stop-color:#F1C40F"/>
			</linearGradient>
			<path class="st34" d="M166.5,374.3c-0.2-1.2-0.6-2.1-0.9-2.9c0,0,0-0.1-0.1-0.2l-9.5,5.3c-0.1-0.1-0.2-0.1-0.2-0.1
				c-0.7-0.5-1.5-0.9-2.2-1.4c-0.2-0.1-0.2-0.2,0-0.3c3.5-1.9,7.1-4,10.6-5.9c-1.4-4.2-3-8-4.6-11.8c0-0.1,0-0.1-0.1-0.2
				c0.1,0,0.1,0,0.2,0c1.2,0,2.3,0.1,3.4,0.1c0.1,0,0.2,0,0.2,0c0.1,0,0.1,0.1,0.1,0.1c1.4,3.3,2.8,6.6,4.1,9.9
				c0.9,2.2,1.8,4.4,2.7,6.6c0,0.1,0.2,0.2,0.4,0.2c9.1,1.7,18.2,3.3,27.4,5c0.1,0,0.2,0,0.2,0c0.1,0,0.1,0.1,0.1,0.1
				c0,0.7,0,1.5-0.1,2.2c-0.1,0-0.3,0-0.4-0.1c-6.4-1.2-12.7-2.3-19.1-3.5c-4,2-7.7,4-11.2,6l-0.2,0.1l-2.6-1.6l9.5-5.3
				c-0.1,0-0.1,0-0.2-0.1c-1.5-0.3-3-0.6-4.6-0.8c-3.9,2-7.6,4.1-11.2,6.1c0,0-0.1,0.1-0.2,0.1l-2.6-1.7c0.1,0,0.2-0.1,0.2-0.1
				c0.9-0.5,1.8-1,2.7-1.5c1.8-1,3.6-2,5.4-3C164.7,375.2,165.6,374.7,166.5,374.3z"/>
			<linearGradient id="SVGID_37_" gradientUnits="userSpaceOnUse" x1="119.8335" y1="400.7734" x2="225.2639" y2="343.8716">
				<stop  offset="0" style="stop-color:#F39C12"/>
				<stop  offset="1" style="stop-color:#F1C40F"/>
			</linearGradient>
			<path class="st35" d="M198.3,378.8L198.3,378.8L198.3,378.8L198.3,378.8L198.3,378.8C198.3,378.8,198.3,378.8,198.3,378.8
				L198.3,378.8L198.3,378.8L198.3,378.8l-0.1-0.1l0,0l0,0l0,0l0,0l0,0l0,0l0,0l0,0l-1.7-0.3l-1.7-0.3l-1.7-0.3l-1.7-0.3l-1.7-0.3
				l-1.7-0.3l-1.7-0.3l-1.7-0.3l-1.7-0.3l-1.7-0.3l-1.7-0.3l-1.7-0.3l-1.7-0.3l-1.7-0.3l-1.7-0.3l-1.7-0.3c0,0-0.1,0-0.1,0l0,0l0,0
				c-0.1,0-0.2-0.1-0.2-0.2l-0.3-0.8l-0.3-0.8l-0.3-0.8l-0.3-0.8l-0.3-0.8l-0.3-0.8l-0.3-0.8l-0.3-0.8c-1.4-3.3-2.8-6.6-4.1-9.9l0,0
				l0,0l0,0l0,0l0,0l0,0l0,0l0,0l0,0l0,0l0,0l0,0l0,0l0,0l0,0l0,0c-0.8,0-1.6,0-2.3-0.1l-0.2,0l-0.4,0l-0.4,0l0,0l0,0l0,0l0,0
				c0,0-0.1,0-0.1,0c0,0,0,0.1,0,0.1l0,0l0,0l0,0c0.2,0.5,0.4,1,0.6,1.4c0.2,0.5,0.4,1,0.6,1.4c0.2,0.5,0.4,1,0.6,1.4l0.6,1.5
				l0.6,1.5c0.2,0.5,0.4,1,0.6,1.5l0.6,1.5l0.5,1.5c-3.5,1.9-7.1,4-10.6,5.9c0,0,0,0-0.1,0s0,0,0,0c0,0,0,0,0,0c0,0,0,0,0,0l0,0l0,0
				l0,0l0.1,0c0.4,0.2,0.7,0.5,1.1,0.7l0.3,0.2l0.3,0.2l0.3,0.2l0.3,0.2l0,0l0,0l0,0l0,0c0,0,0,0,0,0l0,0l0,0l0,0c0,0,0,0,0,0
				l9.5-5.3l0,0l0,0l0,0l0,0c0,0,0,0,0,0.1c0.1,0.3,0.3,0.7,0.4,1c0,0.1,0.1,0.2,0.1,0.4c0,0.1,0.1,0.2,0.1,0.4
				c0,0.1,0.1,0.3,0.1,0.4c0,0.1,0.1,0.3,0.1,0.4c0,0.1,0.1,0.3,0.1,0.4l-0.3,0.2l-0.3,0.2l-0.3,0.2l-0.3,0.2l-0.3,0.2l-0.3,0.2
				l-0.3,0.2l-0.3,0.2l-0.7,0.4l-0.7,0.4l-0.7,0.4l-0.7,0.4l-0.7,0.4l-0.7,0.4l-0.7,0.4l-0.7,0.4l-0.3,0.2l-0.3,0.2l-0.3,0.2
				l-0.3,0.2l-0.3,0.2l-0.3,0.2l-0.3,0.2l-0.3,0.2c-0.1,0-0.2,0.1-0.2,0.1l2.6,1.7l0,0l0,0l0,0l0,0c0,0,0.1,0,0.1-0.1
				c0.4-0.2,0.9-0.5,1.3-0.7c0.9-0.5,1.8-1,2.7-1.5c0.5-0.3,0.9-0.5,1.4-0.8s0.9-0.5,1.4-0.8c0.5-0.3,0.9-0.5,1.4-0.8
				c0.5-0.3,1-0.5,1.4-0.8s1-0.5,1.5-0.8l0.6,0.1l0.6,0.1l0.6,0.1l0.6,0.1l0.6,0.1l0.6,0.1l0.6,0.1l0.6,0.1c0.1,0,0.1,0,0.2,0.1
				l-9.5,5.3l2.6,1.6l0.2-0.1c0.4-0.2,0.9-0.5,1.3-0.7c0.4-0.2,0.9-0.5,1.3-0.7c0.4-0.2,0.9-0.5,1.4-0.7c0.9-0.5,1.8-1,2.8-1.5
				c0.5-0.3,0.9-0.5,1.4-0.8c0.5-0.3,1-0.5,1.5-0.8c0.5-0.3,1-0.5,1.5-0.8l2.4,0.4l2.4,0.4l2.4,0.4l2.4,0.4l2.4,0.4l2.4,0.4l2.4,0.4
				l2.4,0.4l0,0l0,0l0,0l0,0c0.1,0,0.1,0,0.2,0c0-0.2,0-0.4,0-0.7l0-0.2l0-0.3l0-0.3l0-0.3l0-0.3L198.3,378.8L198.3,378.8z"/>
		</g>
	</g>
</g>
<ellipse class="st14" cx="191.7" cy="291" rx="44.9" ry="25.9"/>
<ellipse class="st14" cx="191.7" cy="251.9" rx="44.9" ry="25.9"/>
<line class="st14" x1="191.7" y1="364.1" x2="191.7" y2="205.9"/>
<linearGradient id="SVGID_38_" gradientUnits="userSpaceOnUse" x1="184.2356" y1="196.6304" x2="199.1219" y2="196.6304">
	<stop  offset="0" style="stop-color:#F39C12"/>
	<stop  offset="1" style="stop-color:#F1C40F"/>
</linearGradient>
<circle class="st36" cx="191.7" cy="196.6" r="7.4"/>
<g>
	<ellipse class="st14" cx="241.8" cy="519.2" rx="20.3" ry="11.7"/>
	<ellipse class="st14" cx="241.8" cy="501.6" rx="20.3" ry="11.7"/>
	<line class="st14" x1="241.8" y1="552.3" x2="241.8" y2="480.8"/>
	<linearGradient id="SVGID_39_" gradientUnits="userSpaceOnUse" x1="238.4044" y1="476.6133" x2="245.1263" y2="476.6133">
		<stop  offset="0" style="stop-color:#F39C12"/>
		<stop  offset="1" style="stop-color:#F1C40F"/>
	</linearGradient>
	<circle class="st37" cx="241.8" cy="476.6" r="3.4"/>
</g>
<g>
	<ellipse class="st14" cx="588.7" cy="503.5" rx="29.2" ry="16.9"/>
	<ellipse class="st14" cx="588.7" cy="478" rx="29.2" ry="16.9"/>
	<line class="st14" x1="588.7" y1="551.1" x2="588.7" y2="448.1"/>
	<linearGradient id="SVGID_40_" gradientUnits="userSpaceOnUse" x1="583.8521" y1="442.0759" x2="593.5414" y2="442.0759">
		<stop  offset="0" style="stop-color:#F39C12"/>
		<stop  offset="1" style="stop-color:#F1C40F"/>
	</linearGradient>
	<circle class="st38" cx="588.7" cy="442.1" r="4.8"/>
</g>
<g>
	<polyline class="st3" points="49.1,445.8 33.3,454.9 67.8,474.9 102.3,454.9 67.8,435 49.1,445.8 	"/>
	<linearGradient id="SVGID_41_" gradientUnits="userSpaceOnUse" x1="51.5133" y1="436.4782" x2="83.6341" y2="436.4782">
		<stop  offset="0" style="stop-color:#153784"/>
		<stop  offset="1" style="stop-color:#3D5EC4"/>
	</linearGradient>
	<polygon class="st39" points="67.8,427.2 51.8,436.5 67.8,445.8 83.9,436.5 	"/>
	<polygon class="st5" points="67.8,421.4 54.4,429.1 67.8,436.9 81.2,429.1 	"/>
	<linearGradient id="SVGID_42_" gradientUnits="userSpaceOnUse" x1="59.7061" y1="462.26" x2="59.9157" y2="432.4105">
		<stop  offset="0" style="stop-color:#153784"/>
		<stop  offset="1" style="stop-color:#3D5EC4"/>
	</linearGradient>
	<polygon class="st40" points="67.8,464.3 51.8,455 51.8,436.5 67.8,445.8 	"/>
	<linearGradient id="SVGID_43_" gradientUnits="userSpaceOnUse" x1="54.755" y1="463.2639" x2="80.4339" y2="447.5887">
		<stop  offset="0" style="stop-color:#153784"/>
		<stop  offset="1" style="stop-color:#3D5EC4"/>
	</linearGradient>
	<polygon class="st41" points="83.9,436.5 67.8,445.8 67.8,464.3 83.9,455 	"/>
	<polygon class="st3" points="67.8,409.2 46.7,421.4 67.8,433.6 89,421.4 	"/>
	<g>
		<polygon class="st8" points="73.3,396.6 61.6,403.4 61.6,424.9 73.3,418.1 		"/>
		<polygon class="st9" points="75.3,397.7 63.6,404.5 63.6,426 75.3,419.2 		"/>
		<polygon class="st10" points="77.6,399.2 65.9,406 65.9,427.5 77.6,420.7 		"/>
	</g>
</g>
<g>
	<polyline class="st3" points="682,363.9 666.2,373.1 700.7,393 735.2,373.1 700.7,353.1 682,363.9 	"/>
	<linearGradient id="SVGID_44_" gradientUnits="userSpaceOnUse" x1="684.3638" y1="354.6026" x2="716.4846" y2="354.6026">
		<stop  offset="0" style="stop-color:#153784"/>
		<stop  offset="1" style="stop-color:#3D5EC4"/>
	</linearGradient>
	<polygon class="st42" points="700.7,345.3 684.6,354.6 700.7,363.9 716.7,354.6 	"/>
	<polygon class="st5" points="700.7,339.5 687.3,347.2 700.7,355 714.1,347.2 	"/>
	<linearGradient id="SVGID_45_" gradientUnits="userSpaceOnUse" x1="692.5566" y1="380.3844" x2="692.7662" y2="350.5349">
		<stop  offset="0" style="stop-color:#153784"/>
		<stop  offset="1" style="stop-color:#3D5EC4"/>
	</linearGradient>
	<polygon class="st43" points="700.7,382.4 684.6,373.1 684.6,354.6 700.7,363.9 	"/>
	<linearGradient id="SVGID_46_" gradientUnits="userSpaceOnUse" x1="687.6054" y1="381.3882" x2="713.2844" y2="365.7131">
		<stop  offset="0" style="stop-color:#153784"/>
		<stop  offset="1" style="stop-color:#3D5EC4"/>
	</linearGradient>
	<polygon class="st44" points="716.7,354.6 700.7,363.9 700.7,382.4 716.7,373.1 	"/>
	<polygon class="st3" points="700.7,327.3 679.5,339.5 700.7,351.7 721.8,339.5 	"/>
	<g>
		<polygon class="st8" points="706.1,314.8 694.4,321.5 694.4,343 706.1,336.2 		"/>
		<polygon class="st9" points="708.1,315.8 696.4,322.6 696.4,344.1 708.1,337.3 		"/>
		<polygon class="st10" points="710.5,317.4 698.7,324.1 698.7,345.6 710.5,338.8 		"/>
	</g>
</g>
<ellipse class="st3" cx="330.2" cy="303.8" rx="33.9" ry="19.6"/>
<line class="st14" x1="542.6" y1="338.9" x2="542.6" y2="422"/>
<g>
	<path class="st45" d="M617.7,203.8l-131.8-76.1c-3.9-2.2-7.4-2.5-10-1.2l0,0l-5.3,2.8l1.3,2.3c-0.4,1.3-0.6,2.9-0.6,4.6v152.4
		c0,9.3,6.6,20.7,14.6,25.3l131.8,75.9c1,0.6,2,1,3,1.4l1.5,2.7l5.6-2.9l0,0c2.8-1.5,4.5-4.8,4.5-9.6V229.1
		C632.4,219.8,625.8,208.5,617.7,203.8z"/>
	<path class="st46" d="M480.7,130.5c-8-4.6-14.6-0.8-14.6,8.4v152.4c0,9.3,6.6,20.7,14.6,25.3l131.8,75.9c8,4.6,14.6,0.8,14.6-8.5
		V231.9c0-9.3-6.6-20.7-14.6-25.3L480.7,130.5z"/>
</g>
<g>
	<path class="st9" d="M524.2,181.3l-37.5-21.6c-1.1-0.6-3-0.3-3.8,0.1l-1.5,0.8l0.4,0.6c-0.1,0.4-0.2,0.8-0.2,1.3v43.3
		c0,2.6,1.9,5.9,4.2,7.2l37.5,21.6c0.3,0.2,0.6,0.3,0.9,0.4l0.4,0.8l1.6-0.8c0.8-0.4,2.2-1.8,2.2-3.2v-43.3
		C528.3,185.9,526.5,182.6,524.2,181.3z"/>
	<path class="st10" d="M484.3,160.9c-2.3-1.3-4.2-0.2-4.2,2.4v43.3c0,2.6,1.9,5.9,4.2,7.2l37.5,21.6c2.3,1.3,4.2,0.2,4.2-2.4v-43.3
		c0-2.6-1.9-5.9-4.2-7.2L484.3,160.9z"/>
</g>
<path class="st10" d="M566.9,281.4c0,4.2-3,5.9-6.6,3.8L486.7,243c-3.6-2.1-6.6-7.2-6.6-11.4V230c0-4.2,3-5.9,6.6-3.8l73.6,42.2
	c3.6,2.1,6.6,7.2,6.6,11.4V281.4z"/>
<g>
	<path class="st9" d="M568.2,280.2c0,4.2-3,5.9-6.6,3.8L488,241.8c-3.6-2.1-6.6-7.2-6.6-11.4v-1.6c0-4.2,3-5.9,6.6-3.8l73.6,42.2
		c3.6,2.1,6.6,7.2,6.6,11.4V280.2z"/>
	<path class="st10" d="M566.9,281.4c0,4.2-3,5.9-6.6,3.8L486.7,243c-3.6-2.1-6.6-7.2-6.6-11.4V230c0-4.2,3-5.9,6.6-3.8l73.6,42.2
		c3.6,2.1,6.6,7.2,6.6,11.4V281.4z"/>
</g>
<g>
	<path class="st9" d="M603.8,329.9c0,4.2-3,5.9-6.6,3.8L488,271.6c-3.6-2.1-6.6-7.2-6.6-11.4v-1.6c0-4.2,3-5.9,6.6-3.8l109.2,62.1
		c3.6,2.1,6.6,7.2,6.6,11.4V329.9z"/>
	<path class="st10" d="M602.5,331.1c0,4.2-3,5.9-6.6,3.8l-109.2-62.1c-3.6-2.1-6.6-7.2-6.6-11.4v-1.6c0-4.2,3-5.9,6.6-3.8
		l109.2,62.1c3.6,2.1,6.6,7.2,6.6,11.4V331.1z"/>
</g>
<g>
	<g class="st19">
		<g class="st19">
			<defs>
				<path id="SVGID_47_" class="st19" d="M484.1,190.1l2.9-1.7c0.3-0.2,0.8-0.2,1.3,0.1c0.4,0.2,0.8,0.6,1.1,1.1l-2.9,1.7
					c-0.3-0.5-0.7-0.9-1.1-1.1C484.9,189.9,484.4,189.9,484.1,190.1z"/>
			</defs>
			<use xlink:href="#SVGID_47_"  style="overflow:visible;fill:#CCCCCC;"/>
			<clipPath id="SVGID_48_">
				<use xlink:href="#SVGID_47_"  style="overflow:visible;"/>
			</clipPath>
			<g class="st47">
				<path class="st48" d="M484.1,190.1l2.9-1.7c0,0,0.1-0.1,0.2-0.1l-2.9,1.7C484.2,190,484.1,190.1,484.1,190.1"/>
				<path class="st48" d="M484.2,190l2.9-1.7c0,0,0.1,0,0.1,0l-2.9,1.7C484.3,190,484.3,190,484.2,190"/>
				<path class="st48" d="M484.4,190l2.9-1.7c0,0,0.1,0,0.1,0l-2.9,1.7C484.4,190,484.4,190,484.4,190"/>
				<path class="st48" d="M484.5,190l2.9-1.7c0,0,0.1,0,0.1,0L484.5,190C484.5,190,484.5,190,484.5,190"/>
				<path class="st48" d="M484.6,190l2.9-1.7c0,0,0.1,0,0.1,0L484.6,190C484.6,190,484.6,190,484.6,190"/>
				<path class="st48" d="M484.6,190l2.9-1.7c0,0,0.1,0,0.1,0L484.6,190C484.7,190,484.7,190,484.6,190"/>
				<path class="st48" d="M484.7,190l2.9-1.7c0,0,0.1,0,0.1,0L484.7,190C484.8,190,484.8,190,484.7,190"/>
				<path class="st48" d="M484.8,190l2.9-1.7c0,0,0.1,0,0.1,0L484.8,190C484.9,190,484.8,190,484.8,190"/>
				<path class="st48" d="M484.9,190l2.9-1.7c0,0,0,0,0.1,0L484.9,190C484.9,190,484.9,190,484.9,190"/>
				<path class="st48" d="M485,190l2.9-1.7c0,0,0,0,0.1,0L485,190C485,190,485,190,485,190"/>
				<path class="st48" d="M485,190l2.9-1.7c0,0,0,0,0.1,0L485,190C485.1,190.1,485.1,190,485,190"/>
				<path class="st48" d="M485.1,190.1l2.9-1.7c0,0,0,0,0.1,0L485.1,190.1C485.1,190.1,485.1,190.1,485.1,190.1"/>
				<path class="st48" d="M485.2,190.1l2.9-1.7c0,0,0,0,0.1,0L485.2,190.1C485.2,190.1,485.2,190.1,485.2,190.1"/>
				<path class="st48" d="M485.2,190.1l2.9-1.7c0,0,0,0,0.1,0L485.2,190.1C485.3,190.2,485.3,190.1,485.2,190.1"/>
				<path class="st48" d="M485.3,190.2l2.9-1.7c0,0,0,0,0,0c0,0,0,0,0,0L485.3,190.2C485.4,190.2,485.4,190.2,485.3,190.2
					C485.3,190.2,485.3,190.2,485.3,190.2"/>
				<path class="st48" d="M485.4,190.2l2.9-1.7c0,0,0.1,0,0.1,0L485.4,190.2C485.4,190.2,485.4,190.2,485.4,190.2"/>
				<path class="st48" d="M485.5,190.3l2.9-1.7c0,0,0.1,0,0.1,0L485.5,190.3C485.5,190.3,485.5,190.3,485.5,190.3"/>
				<path class="st48" d="M485.5,190.3l2.9-1.7c0,0,0.1,0,0.1,0.1L485.5,190.3C485.6,190.3,485.6,190.3,485.5,190.3"/>
				<path class="st48" d="M485.6,190.4l2.9-1.7c0,0,0.1,0,0.1,0.1L485.6,190.4C485.7,190.4,485.7,190.4,485.6,190.4"/>
				<path class="st48" d="M485.7,190.4l2.9-1.7c0,0,0.1,0,0.1,0.1L485.7,190.4C485.8,190.5,485.7,190.4,485.7,190.4"/>
				<path class="st48" d="M485.8,190.5l2.9-1.7c0,0,0.1,0,0.1,0.1L485.8,190.5C485.8,190.5,485.8,190.5,485.8,190.5"/>
				<path class="st48" d="M485.9,190.6l2.9-1.7c0,0,0.1,0,0.1,0.1L485.9,190.6C485.9,190.6,485.9,190.6,485.9,190.6"/>
				<path class="st48" d="M486,190.6l2.9-1.7c0,0,0.1,0.1,0.1,0.1L486,190.6C486,190.7,486,190.7,486,190.6"/>
				<path class="st48" d="M486,190.7l2.9-1.7c0,0,0.1,0.1,0.1,0.1L486,190.7C486.1,190.8,486.1,190.7,486,190.7"/>
				<path class="st48" d="M486.1,190.8l2.9-1.7c0,0,0,0.1,0.1,0.1L486.1,190.8C486.2,190.8,486.1,190.8,486.1,190.8"/>
				<path class="st48" d="M486.2,190.9l2.9-1.7c0,0,0,0.1,0.1,0.1L486.2,190.9C486.2,190.9,486.2,190.9,486.2,190.9"/>
				<path class="st48" d="M486.3,191l2.9-1.7c0,0,0.1,0.1,0.1,0.1L486.3,191C486.3,191,486.3,191,486.3,191"/>
				<path class="st48" d="M486.3,191.1l2.9-1.7c0,0,0.1,0.1,0.1,0.1l-2.9,1.7C486.4,191.1,486.4,191.1,486.3,191.1"/>
				<path class="st48" d="M486.4,191.2l2.9-1.7c0,0,0,0.1,0.1,0.1L486.4,191.2C486.5,191.2,486.4,191.2,486.4,191.2"/>
			</g>
		</g>
		<g>
			<polygon class="st48" points="486.5,191.3 489.4,189.5 499.4,204.2 496.5,205.9 			"/>
		</g>
		<g>
			<polygon class="st48" points="496.5,205.9 499.4,204.2 519.4,194.8 516.5,196.5 			"/>
		</g>
		<g class="st19">
			<defs>
				<path id="SVGID_49_" class="st19" d="M516.5,196.5l2.9-1.7c0.3-0.2,0.8-0.1,1.2,0.1l-2.9,1.7
					C517.3,196.4,516.9,196.3,516.5,196.5z"/>
			</defs>
			<use xlink:href="#SVGID_49_"  style="overflow:visible;fill:#CCCCCC;"/>
			<clipPath id="SVGID_50_">
				<use xlink:href="#SVGID_49_"  style="overflow:visible;"/>
			</clipPath>
			<g class="st49">
				<path class="st48" d="M516.5,196.5l2.9-1.7c0,0,0.1,0,0.1,0L516.5,196.5C516.6,196.5,516.5,196.5,516.5,196.5"/>
				<path class="st48" d="M516.6,196.5l2.9-1.7c0,0,0.1,0,0.1,0l-2.9,1.7C516.7,196.4,516.6,196.4,516.6,196.5"/>
				<path class="st48" d="M516.7,196.4l2.9-1.7c0,0,0.1,0,0.1,0l-2.9,1.7C516.8,196.4,516.7,196.4,516.7,196.4"/>
				<path class="st48" d="M516.8,196.4l2.9-1.7c0,0,0.1,0,0.1,0L516.8,196.4C516.9,196.4,516.8,196.4,516.8,196.4"/>
				<path class="st48" d="M516.9,196.4l2.9-1.7c0,0,0.1,0,0.1,0L516.9,196.4C517,196.4,516.9,196.4,516.9,196.4"/>
				<path class="st48" d="M517,196.4l2.9-1.7c0,0,0.1,0,0.1,0L517,196.4C517,196.4,517,196.4,517,196.4"/>
				<path class="st48" d="M517.1,196.4l2.9-1.7c0,0,0.1,0,0.1,0L517.1,196.4C517.1,196.4,517.1,196.4,517.1,196.4"/>
				<path class="st48" d="M517.2,196.4l2.9-1.7c0,0,0.1,0,0.1,0L517.2,196.4C517.2,196.4,517.2,196.4,517.2,196.4"/>
				<path class="st48" d="M517.2,196.4l2.9-1.7c0,0,0,0,0.1,0L517.2,196.4C517.3,196.5,517.3,196.4,517.2,196.4"/>
				<path class="st48" d="M517.3,196.5l2.9-1.7c0,0,0,0,0.1,0L517.3,196.5C517.4,196.5,517.3,196.5,517.3,196.5"/>
				<path class="st48" d="M517.4,196.5l2.9-1.7c0,0,0,0,0.1,0L517.4,196.5C517.4,196.5,517.4,196.5,517.4,196.5"/>
				<path class="st48" d="M517.5,196.5l2.9-1.7c0,0,0,0,0.1,0L517.5,196.5C517.5,196.5,517.5,196.5,517.5,196.5"/>
				<path class="st48" d="M517.5,196.5l2.9-1.7c0,0,0,0,0.1,0L517.5,196.5C517.6,196.6,517.5,196.5,517.5,196.5"/>
				<path class="st48" d="M517.6,196.6l2.9-1.7c0,0,0,0,0.1,0L517.6,196.6C517.6,196.6,517.6,196.6,517.6,196.6"/>
				<path class="st48" d="M517.7,196.6l2.9-1.7c0,0,0,0,0,0L517.7,196.6C517.7,196.6,517.7,196.6,517.7,196.6"/>
			</g>
		</g>
		<g class="st19">
			<defs>
				<path id="SVGID_51_" class="st19" d="M521.9,199.2l-2.9,1.7c0.7-0.4,0.7-1.6,0.1-2.8c-0.4-0.7-0.9-1.2-1.4-1.4l2.9-1.7
					c0.5,0.3,1,0.8,1.4,1.4C522.6,197.5,522.6,198.8,521.9,199.2z"/>
			</defs>
			<use xlink:href="#SVGID_51_"  style="overflow:visible;fill:#CCCCCC;"/>
			<clipPath id="SVGID_52_">
				<use xlink:href="#SVGID_51_"  style="overflow:visible;"/>
			</clipPath>
			<g class="st50">
				<path class="st48" d="M517.7,196.6l2.9-1.7c0,0,0,0,0,0L517.7,196.6C517.7,196.6,517.7,196.6,517.7,196.6"/>
				<path class="st48" d="M517.7,196.7l2.9-1.7c0,0,0.1,0,0.1,0L517.7,196.7C517.8,196.7,517.8,196.7,517.7,196.7"/>
				<path class="st48" d="M517.8,196.7l2.9-1.7c0,0,0.1,0,0.1,0.1L517.8,196.7C517.9,196.7,517.8,196.7,517.8,196.7"/>
				<path class="st48" d="M517.9,196.7l2.9-1.7c0,0,0.1,0,0.1,0.1L517.9,196.7C518,196.8,517.9,196.8,517.9,196.7"/>
				<path class="st48" d="M518,196.8l2.9-1.7c0,0,0.1,0,0.1,0.1L518,196.8C518,196.8,518,196.8,518,196.8"/>
				<path class="st48" d="M518.1,196.9l2.9-1.7c0,0,0.1,0,0.1,0.1L518.1,196.9C518.1,196.9,518.1,196.9,518.1,196.9"/>
				<path class="st48" d="M518.1,196.9l2.9-1.7c0,0,0.1,0,0.1,0.1L518.1,196.9C518.2,197,518.2,197,518.1,196.9"/>
				<path class="st48" d="M518.2,197l2.9-1.7c0,0,0.1,0,0.1,0.1L518.2,197C518.3,197.1,518.3,197,518.2,197"/>
				<path class="st48" d="M518.3,197.1l2.9-1.7c0,0,0.1,0.1,0.1,0.1L518.3,197.1C518.4,197.1,518.3,197.1,518.3,197.1"/>
				<path class="st48" d="M518.4,197.2l2.9-1.7c0,0,0.1,0.1,0.1,0.1L518.4,197.2C518.4,197.2,518.4,197.2,518.4,197.2"/>
				<path class="st48" d="M518.5,197.2l2.9-1.7c0,0,0,0.1,0.1,0.1L518.5,197.2C518.5,197.3,518.5,197.3,518.5,197.2"/>
				<path class="st48" d="M518.5,197.3l2.9-1.7c0,0,0,0.1,0.1,0.1L518.5,197.3C518.6,197.4,518.6,197.3,518.5,197.3"/>
				<path class="st48" d="M518.6,197.4l2.9-1.7c0,0,0.1,0.1,0.1,0.1L518.6,197.4C518.7,197.5,518.6,197.4,518.6,197.4"/>
				<path class="st48" d="M518.7,197.5l2.9-1.7c0,0,0.1,0.1,0.1,0.1l-2.9,1.7C518.8,197.6,518.7,197.5,518.7,197.5"/>
				<path class="st48" d="M518.8,197.6l2.9-1.7c0.1,0.1,0.2,0.3,0.3,0.4L519,198C519,197.9,518.9,197.8,518.8,197.6"/>
				<path class="st48" d="M519,198l2.9-1.7c0,0,0,0,0,0c0,0,0,0,0,0.1l-2.9,1.7C519.1,198.1,519.1,198.1,519,198
					C519.1,198.1,519,198,519,198"/>
				<path class="st48" d="M519.1,198.1l2.9-1.7c0,0,0,0.1,0.1,0.1l-2.9,1.7C519.1,198.2,519.1,198.2,519.1,198.1"/>
				<path class="st48" d="M519.2,198.3l2.9-1.7c0,0,0,0.1,0,0.1L519.2,198.3C519.2,198.3,519.2,198.3,519.2,198.3"/>
				<path class="st48" d="M519.2,198.4l2.9-1.7c0,0,0,0.1,0,0.1L519.2,198.4C519.2,198.4,519.2,198.4,519.2,198.4"/>
				<path class="st48" d="M519.2,198.4l2.9-1.7c0,0,0,0.1,0,0.1L519.2,198.4C519.3,198.5,519.3,198.5,519.2,198.4"/>
				<path class="st48" d="M519.3,198.5l2.9-1.7c0,0,0,0.1,0,0.1L519.3,198.5C519.3,198.6,519.3,198.6,519.3,198.5"/>
				<path class="st48" d="M519.3,198.6l2.9-1.7c0,0,0,0.1,0,0.1L519.3,198.6C519.3,198.7,519.3,198.7,519.3,198.6"/>
				<path class="st48" d="M519.3,198.7l2.9-1.7c0,0,0,0.1,0,0.1L519.3,198.7C519.4,198.8,519.4,198.8,519.3,198.7"/>
				<path class="st48" d="M519.4,198.8l2.9-1.7c0,0,0,0.1,0,0.1L519.4,198.8C519.4,198.9,519.4,198.9,519.4,198.8"/>
				<path class="st48" d="M519.4,198.9l2.9-1.7c0,0,0,0.1,0,0.1L519.4,198.9C519.4,199,519.4,198.9,519.4,198.9"/>
				<path class="st48" d="M519.4,199l2.9-1.7c0,0,0,0.1,0,0.1L519.4,199C519.4,199.1,519.4,199,519.4,199"/>
				<path class="st48" d="M519.5,199.1l2.9-1.7c0,0,0,0.1,0,0.1L519.5,199.1C519.5,199.2,519.5,199.1,519.5,199.1"/>
				<path class="st48" d="M519.5,199.2l2.9-1.7c0,0,0,0.1,0,0.1L519.5,199.2C519.5,199.3,519.5,199.2,519.5,199.2"/>
				<path class="st48" d="M519.5,199.3l2.9-1.7c0,0,0,0.1,0,0.1L519.5,199.3C519.5,199.4,519.5,199.3,519.5,199.3"/>
				<path class="st48" d="M519.5,199.4l2.9-1.7c0,0,0,0.1,0,0.1L519.5,199.4C519.5,199.4,519.5,199.4,519.5,199.4"/>
				<path class="st48" d="M519.5,199.5l2.9-1.7c0,0,0,0.1,0,0.1L519.5,199.5C519.5,199.5,519.5,199.5,519.5,199.5"/>
				<path class="st48" d="M519.5,199.6l2.9-1.7c0,0,0,0.1,0,0.1L519.5,199.6C519.5,199.6,519.5,199.6,519.5,199.6"/>
				<path class="st48" d="M519.5,199.7l2.9-1.7c0,0,0,0.1,0,0.1L519.5,199.7C519.5,199.7,519.5,199.7,519.5,199.7"/>
				<path class="st48" d="M519.5,199.7l2.9-1.7c0,0,0,0.1,0,0.1L519.5,199.7C519.5,199.8,519.5,199.8,519.5,199.7"/>
				<path class="st48" d="M519.5,199.8l2.9-1.7c0,0,0,0.1,0,0.1L519.5,199.8C519.5,199.9,519.5,199.9,519.5,199.8"/>
				<path class="st48" d="M519.5,199.9l2.9-1.7c0,0,0,0.1,0,0.1L519.5,199.9C519.5,200,519.5,199.9,519.5,199.9"/>
				<path class="st48" d="M519.5,200l2.9-1.7c0,0,0,0.1,0,0.1L519.5,200C519.5,200.1,519.5,200,519.5,200"/>
				<path class="st48" d="M519.5,200.1l2.9-1.7c0,0,0,0.1,0,0.1L519.5,200.1C519.5,200.1,519.5,200.1,519.5,200.1"/>
				<path class="st48" d="M519.5,200.2l2.9-1.7c0,0,0,0.1,0,0.1L519.5,200.2C519.5,200.2,519.5,200.2,519.5,200.2"/>
				<path class="st48" d="M519.4,200.3l2.9-1.7c0,0,0,0.1,0,0.1L519.4,200.3C519.4,200.3,519.4,200.3,519.4,200.3"/>
				<path class="st48" d="M519.4,200.4l2.9-1.7c0,0,0,0.1,0,0.1l-2.9,1.7C519.4,200.4,519.4,200.4,519.4,200.4"/>
				<path class="st48" d="M519.4,200.5l2.9-1.7c0,0,0,0.1-0.1,0.1l-2.9,1.7C519.3,200.6,519.3,200.5,519.4,200.5"/>
				<path class="st48" d="M519.3,200.6l2.9-1.7c-0.1,0.1-0.2,0.2-0.3,0.3l-2.9,1.7C519.1,200.8,519.2,200.7,519.3,200.6"/>
			</g>
		</g>
		<g>
			<path class="st0" d="M517.7,196.6c0.5,0.3,1,0.8,1.4,1.4c0.7,1.2,0.6,2.5-0.1,2.9l-21.2,9.9c-0.3,0.2-0.8,0.1-1.2-0.1
				c-0.4-0.2-0.8-0.6-1.1-1.1l-11.2-16.4c-0.8-1.2-0.9-2.5-0.3-3.1c0.4-0.3,0.9-0.3,1.4,0c0.4,0.2,0.8,0.6,1.1,1.1l10,14.6l20-9.4
				C516.9,196.3,517.3,196.4,517.7,196.6z"/>
		</g>
	</g>
</g>
<path class="st51" d="M491.5,267.8c0,0,1.3-7.5,8-8l7.9-6.9c0,0,1.7-1.7,2.7-0.6c0.9,1.1,0.5,1.7-0.4,2.8c-0.8,1.2-5.4,5.4-5.4,5.4
	s3.1,1,3.1,4.8c0,3.8-6.1,8-9.2,9L491.5,267.8z"/>
<path class="st8" d="M380.9,461.9c0,0-3.2,30.6-3.5,34.9c0,0-0.6,3.8,5.8,4.2s21.2-13.1,22.5-15.5c1.3-2.4,0.7-5.9-1.7-7.6
	c-2.4-1.7-8-0.8-13.6,3.8l1.4-22.2L380.9,461.9z"/>
<path class="st51" d="M380.9,461.9l-2.6,25.5c0,0,0.9-1.8,3.7-1.6c2.2,0.2,2.8,2.7,5.7,1.9c2.8-0.8,2.6-4.7,2.6-4.7l1.5-23.4
	L380.9,461.9z"/>
<path class="st8" d="M419.5,455.8c0,0.4-4.5,31.6-4.5,31.6s-1,5.1,3.4,5.8c4.4,0.7,28.6,0,29.9-7.3c1.3-7.3-2.5-9.2-9.1-9.1
	c-6.6,0-10.4,0.1-10.4,0.1l3.5-19.9L419.5,455.8z"/>
<path class="st51" d="M416.1,479.6c0,0,0.4-1,2.5-0.9c3.1,0.1,2.6,3.3,6.7,3.4c3.4,0.1,3.4-4.8,3.4-4.8l2.7-14.7l-12.7-1.3
	L416.1,479.6z"/>
<linearGradient id="SVGID_53_" gradientUnits="userSpaceOnUse" x1="376.3059" y1="418.3729" x2="442.2341" y2="418.3729">
	<stop  offset="0" style="stop-color:#E77F24"/>
	<stop  offset="1" style="stop-color:#F1C40F"/>
</linearGradient>
<path class="st52" d="M379.5,357.8c0,0,3.7,42.5,3.4,51.6c-0.3,9.1-6.6,66.3-6.6,66.3s1,2.8,9.1,3.1c8.2,0.3,9.8-3,9.8-3l4.8-64.3
	l1.1-40.8c0,0,12.8,0.3,22.2,32.8l-9.1,67.5c0,0,2.8,2.7,9.2,3.4c6.4,0.7,9.5-0.6,9.5-0.6s9.2-65.8,9.2-70.6s-12.4-37.8-16.8-44.6
	L379.5,357.8z"/>
<linearGradient id="SVGID_54_" gradientUnits="userSpaceOnUse" x1="398.3187" y1="416.66" x2="451.7948" y2="416.66">
	<stop  offset="0" style="stop-color:#E77F24"/>
	<stop  offset="1" style="stop-color:#F1C40F"/>
</linearGradient>
<path class="st53" d="M390.6,360.2c0,0,2.4,8.6,10.5,10.6c0,0,12.8,0.3,22.2,32.8l-9.1,67.5c0,0,2.8,2.7,9.2,3.4
	c6.4,0.7,9.5-0.6,9.5-0.6s9.2-65.8,9.2-70.6s-12.4-37.8-16.8-44.6L390.6,360.2z"/>
<linearGradient id="SVGID_55_" gradientUnits="userSpaceOnUse" x1="362.1577" y1="316.9337" x2="499.7111" y2="316.9337">
	<stop  offset="0" style="stop-color:#E77F24"/>
	<stop  offset="1" style="stop-color:#F1C40F"/>
</linearGradient>
<path class="st54" d="M405.7,282.5c0,0-9.2,0.6-14.3,0.8c-5.2,0.3-7.9-0.6-14,6.3s-15.6,29.8-15.1,38c0.4,6.6,17.2,20.8,21,24
	c0,0,1.5-5.2,1.9-7.7c0,0-5-11.7-11.2-18.2c0,0,6.4-15.9,8.6-18.9c0,0,2.7,26.6-7.3,48.8c0,0,9,23.3,53.8,4.8c0,0,1.6-44-1.7-54.3
	c0,0,28.5,2.5,35.6-0.1c7.2-2.7,36.4-30.9,36.4-30.9s1.5-4.3-1.4-7.1c-3-2.9-7.7-1-7.7-1s-27.8,20.7-30.9,22.4c0,0-36-2.8-43.9-5.5
	C407.5,281.1,405.7,282.5,405.7,282.5z"/>
<path class="st51" d="M415.4,283.8l-2.4-0.8c0,0,1.1-4.1,3.8-5.8c0,0,6.6,1.1,8.5,0s4.7-18.1-4.1-28.8l-12.9,0.8l-4.5,8
	c0,0,0.1,22.3-6.6,25.8c0,0,2.2,4.8,9.8,4.4S415.4,283.8,415.4,283.8z"/>
<linearGradient id="SVGID_56_" gradientUnits="userSpaceOnUse" x1="391.339" y1="256.0546" x2="425.2906" y2="256.0546">
	<stop  offset="0" style="stop-color:#153784"/>
	<stop  offset="1" style="stop-color:#3D5EC4"/>
</linearGradient>
<path class="st55" d="M424.1,237.4c2.8,2.4,0.6,9-6.2,13.9c-6.7,4.9-5.6,5.3-4.6,7.7c1,2.4,1.3,8,0,9.7c0,0-4.2,1.5-6.3,7.4
	c0,0-6.5-6-10.3-8.3c-3.8-2.2-5.5-8.6-5.3-12.8s2.8-12.7,15.2-14.1c0,0,0.8-4.9,6-5.1c5.2-0.1,5,2.8,5,2.8S419.9,233.9,424.1,237.4z
	"/>
<path class="st51" d="M413.7,260.3c0,0-1.6-1.1-2.5,1.3c-0.9,2.4,3.3,4,3.3,4l0.5-3.4L413.7,260.3z"/>
<linearGradient id="SVGID_57_" gradientUnits="userSpaceOnUse" x1="386.3217" y1="285.1439" x2="419.7449" y2="285.1439">
	<stop  offset="0" style="stop-color:#E77F24"/>
	<stop  offset="1" style="stop-color:#F1C40F"/>
</linearGradient>
<path class="st56" d="M397.7,281.1l-3,2c0,0,2.5,5.8,10.7,6c8.2,0.2,10.5-3.2,11.5-5l-2.4-1.9c0,0-3.3,3.1-8.7,2.5
	C400.4,284.3,397.7,281.1,397.7,281.1z"/>
<g>
	<g>
		<path class="st57" d="M576.6,226.3c0,4.6-3.5,6.4-7.8,3.9l-25-14.3c-4.3-2.5-7.8-8.3-7.8-12.9c0-4.6,3.5-6.4,7.8-3.9l25,14.3
			C573.1,215.9,576.6,221.7,576.6,226.3z"/>
	</g>
	<g>
		<path class="st58" d="M575.6,227c0,4.6-3.5,6.4-7.8,3.9l-25-14.3c-4.3-2.5-7.8-8.3-7.8-12.9c0-4.6,3.5-6.4,7.8-3.9l25,14.3
			C572.1,216.5,575.6,222.3,575.6,227z"/>
	</g>
</g>
<g>
	<g>
		<path class="st57" d="M576.6,252.4c0,4.6-3.5,6.4-7.8,3.9l-25-14.3c-4.3-2.5-7.8-8.3-7.8-12.9s3.5-6.4,7.8-3.9l25,14.3
			C573.1,242,576.6,247.8,576.6,252.4z"/>
	</g>
	<g>
		<path class="st58" d="M575.6,253.1c0,4.6-3.5,6.4-7.8,3.9l-25-14.3c-4.3-2.5-7.8-8.3-7.8-12.9s3.5-6.4,7.8-3.9l25,14.3
			C572.1,242.7,575.6,248.4,575.6,253.1z"/>
	</g>
</g>
<g>
	<g>
		<ellipse transform="matrix(0.866 -0.5 0.5 0.866 -83.8008 285.271)" class="st9" cx="490.4" cy="299" rx="5.9" ry="10.3"/>
	</g>
	<g>
		<ellipse transform="matrix(0.866 -0.5 0.5 0.866 -84.1737 284.8059)" class="st10" cx="489.4" cy="299.5" rx="5.9" ry="10.3"/>
	</g>
</g>
<g>
	<g>
		<ellipse transform="matrix(0.866 -0.5 0.5 0.866 -86.7879 297.1769)" class="st9" cx="511.1" cy="310.5" rx="5.9" ry="10.3"/>
	</g>
	<g>
		<ellipse transform="matrix(0.866 -0.5 0.5 0.866 -87.1607 296.7118)" class="st10" cx="510.1" cy="311" rx="5.9" ry="10.3"/>
	</g>
</g>
<g>
	<g>
		<ellipse transform="matrix(0.866 -0.5 0.5 0.866 -94.9981 331.8887)" class="st57" cx="571.8" cy="343.2" rx="5.9" ry="10.3"/>
	</g>
	<g>
		<ellipse transform="matrix(0.866 -0.5 0.5 0.866 -95.3709 331.4236)" class="st58" cx="570.8" cy="343.7" rx="5.9" ry="10.3"/>
	</g>
</g>
<g>
	<g>
		<ellipse transform="matrix(0.866 -0.5 0.5 0.866 -97.9852 343.7946)" class="st57" cx="592.5" cy="354.7" rx="5.9" ry="10.3"/>
	</g>
	<g>
		<ellipse transform="matrix(0.866 -0.5 0.5 0.866 -98.358 343.3294)" class="st58" cx="591.5" cy="355.2" rx="5.9" ry="10.3"/>
	</g>
</g>
<g>
	<g class="st19">
		<g>
			<linearGradient id="SVGID_58_" gradientUnits="userSpaceOnUse" x1="332.2675" y1="300.259" x2="339.3483" y2="300.259">
				<stop  offset="0" style="stop-color:#F39C12"/>
				<stop  offset="1" style="stop-color:#E77F24"/>
			</linearGradient>
			<polygon class="st59" points="332.3,297.1 339.2,293.2 339.3,303.4 332.4,307.3 			"/>
		</g>
		<g>
			<polygon class="st58" points="305.7,259.2 312.7,255.3 327.2,262.7 320.2,266.6 			"/>
		</g>
		<linearGradient id="SVGID_59_" gradientUnits="userSpaceOnUse" x1="320.249" y1="273.0628" x2="339.998" y2="273.0628">
			<stop  offset="0" style="stop-color:#F39C12"/>
			<stop  offset="1" style="stop-color:#E77F24"/>
		</linearGradient>
		<path class="st60" d="M339.6,279.4C339.6,279.4,339.6,279.4,339.6,279.4c-0.1,0-0.3,0.1-0.4,0.1c0,0-0.1,0-0.1,0
			c-0.1,0-0.3,0-0.4,0c0,0,0,0,0,0c-0.2,0-0.3,0-0.5,0c0,0,0,0-0.1,0c-0.2,0-0.3,0-0.5-0.1c0,0,0,0-0.1,0c-0.2,0-0.4-0.1-0.5-0.1
			c0,0,0,0-0.1,0c-0.2-0.1-0.4-0.1-0.6-0.2c0,0-0.1,0-0.1,0c-0.2-0.1-0.4-0.2-0.6-0.3c-0.3-0.2-0.6-0.3-0.9-0.5c0,0-0.1,0-0.1-0.1
			c-0.3-0.2-0.6-0.4-0.8-0.5c0,0-0.1,0-0.1-0.1c-0.3-0.2-0.6-0.4-0.8-0.6c0,0,0,0,0,0c-0.3-0.2-0.5-0.5-0.8-0.7c0,0,0,0,0-0.1
			c-0.2-0.2-0.5-0.5-0.7-0.7c0,0,0-0.1-0.1-0.1c-0.2-0.2-0.4-0.5-0.6-0.8c0,0-0.1-0.1-0.1-0.1c-0.1-0.1-0.1-0.2-0.2-0.2
			c-0.4-0.5-0.7-1.1-1-1.6c-0.2-0.3-0.3-0.7-0.5-1c0,0,0,0,0,0c-0.2-0.3-0.3-0.7-0.4-1.1c0,0,0-0.1,0-0.1c-0.1-0.3-0.2-0.7-0.4-1.1
			c0,0,0-0.1,0-0.1c-0.1-0.4-0.2-0.8-0.3-1.2c0,0,0,0,0,0c-0.1-0.4-0.2-0.8-0.2-1.2c0,0,0,0,0-0.1c-0.1-0.4-0.1-0.8-0.2-1.2
			c0-0.1,0-0.1,0-0.2c0-0.4-0.1-0.8-0.1-1.2c0-0.1,0-0.2,0-0.3c0-0.4,0-0.8,0-1.2l-7,3.9c0,0.3,0,0.5,0,0.8c0,0.1,0,0.3,0,0.4
			c0,0.1,0,0.2,0,0.3c0,0.1,0,0.1,0,0.2c0,0.3,0,0.6,0.1,0.8l0,0c0,0,0,0,0,0l0,0l0,0c0,0,0,0.1,0,0.1c0,0.1,0,0.1,0,0.2
			c0,0.1,0,0.3,0.1,0.4c0,0.2,0.1,0.5,0.1,0.7c0,0,0,0,0,0c0,0,0,0,0,0.1c0,0.2,0.1,0.4,0.1,0.6c0,0.2,0.1,0.4,0.1,0.6c0,0,0,0,0,0
			c0,0,0,0,0,0c0,0.2,0.1,0.4,0.1,0.5c0,0.2,0.1,0.4,0.2,0.6c0,0,0,0,0,0.1c0,0,0,0,0,0.1c0,0.1,0.1,0.2,0.1,0.4
			c0.1,0.2,0.1,0.3,0.2,0.5c0,0.1,0.1,0.1,0.1,0.2c0,0,0,0.1,0,0.1c0,0.1,0,0.1,0.1,0.2c0.1,0.1,0.1,0.3,0.2,0.4
			c0.1,0.1,0.1,0.3,0.2,0.4c0,0,0,0,0,0c0,0,0,0,0,0c0.1,0.1,0.1,0.3,0.2,0.4c0.1,0.2,0.2,0.3,0.3,0.5c0,0,0,0.1,0.1,0.1
			c0.3,0.6,0.7,1.1,1,1.6c0,0,0.1,0.1,0.1,0.1c0,0,0.1,0.1,0.1,0.1c0,0,0.1,0.1,0.1,0.1c0.1,0.1,0.1,0.2,0.2,0.2
			c0.1,0.1,0.2,0.3,0.3,0.4c0,0,0.1,0.1,0.1,0.1c0,0,0,0.1,0.1,0.1c0,0,0.1,0.1,0.1,0.1c0.1,0.1,0.2,0.2,0.3,0.3
			c0.1,0.1,0.2,0.2,0.2,0.2c0,0,0,0,0,0c0,0,0,0,0,0c0.1,0.1,0.2,0.2,0.4,0.3c0.1,0.1,0.2,0.2,0.4,0.3c0,0,0,0,0,0c0,0,0,0,0,0
			c0.1,0.1,0.2,0.2,0.3,0.3c0.1,0.1,0.3,0.2,0.4,0.3c0,0,0.1,0,0.1,0.1c0,0,0.1,0,0.1,0.1c0.1,0.1,0.2,0.1,0.2,0.2
			c0.1,0.1,0.3,0.2,0.4,0.3c0.1,0,0.1,0.1,0.2,0.1c0,0,0.1,0,0.1,0.1c0.1,0,0.1,0.1,0.2,0.1c0.2,0.1,0.3,0.2,0.5,0.3
			c0.1,0,0.2,0.1,0.3,0.1c0.1,0,0.1,0.1,0.2,0.1c0.1,0.1,0.2,0.1,0.4,0.2c0,0,0,0,0.1,0c0,0,0.1,0,0.1,0c0.1,0,0.1,0.1,0.2,0.1
			c0.1,0,0.2,0.1,0.3,0.1c0,0,0,0,0,0c0,0,0,0,0.1,0c0.1,0,0.1,0,0.2,0.1c0.1,0,0.2,0.1,0.3,0.1c0,0,0,0,0,0c0,0,0,0,0.1,0
			c0.1,0,0.1,0,0.2,0c0.1,0,0.2,0,0.3,0c0,0,0,0,0,0c0,0,0,0,0.1,0c0.1,0,0.1,0,0.2,0c0.1,0,0.2,0,0.3,0c0,0,0,0,0,0c0,0,0,0,0,0
			c0.1,0,0.1,0,0.2,0c0.1,0,0.1,0,0.2,0c0,0,0.1,0,0.1,0c0,0,0,0,0,0c0.1,0,0.2-0.1,0.4-0.1c0,0,0,0,0,0c0,0,0,0,0,0
			c0.1-0.1,0.3-0.1,0.4-0.2l7-3.9C339.9,279.3,339.7,279.4,339.6,279.4z"/>
		<linearGradient id="SVGID_60_" gradientUnits="userSpaceOnUse" x1="322.2317" y1="262.8564" x2="356.3856" y2="262.8564">
			<stop  offset="0" style="stop-color:#F39C12"/>
			<stop  offset="1" style="stop-color:#E77F24"/>
		</linearGradient>
		<path class="st61" d="M356.4,282.8c0-0.3,0-0.7,0-1.1c0-0.1,0-0.1,0-0.2c0-0.3,0-0.7,0-1c0-0.4,0-0.7-0.1-1.1c0-0.1,0-0.2,0-0.3
			c0-0.1,0-0.1,0-0.2c0-0.2,0-0.3,0-0.5c0-0.3-0.1-0.6-0.1-1c0-0.3-0.1-0.6-0.1-0.8c0,0,0,0,0,0c0,0,0,0,0,0c0-0.3-0.1-0.6-0.2-0.9
			c-0.1-0.3-0.1-0.6-0.2-0.8c0-0.2-0.1-0.3-0.1-0.5c0,0,0-0.1,0-0.1c0-0.1,0-0.1,0-0.2c-0.1-0.3-0.1-0.5-0.2-0.8
			c-0.1-0.2-0.1-0.5-0.2-0.7c-0.1-0.2-0.1-0.4-0.2-0.5c0-0.1-0.1-0.2-0.1-0.3c-0.1-0.3-0.2-0.6-0.3-0.9c-0.1-0.3-0.2-0.6-0.4-0.9
			c0,0,0,0,0,0c0,0,0,0,0,0c-0.1-0.3-0.2-0.6-0.4-0.9c-0.1-0.3-0.3-0.7-0.5-1c0,0-0.1-0.1-0.1-0.1c0-0.1-0.1-0.2-0.1-0.2
			c-0.1-0.3-0.3-0.5-0.4-0.8c-0.1-0.2-0.3-0.5-0.4-0.7c-0.1-0.2-0.2-0.4-0.3-0.6c-0.4-0.6-0.7-1.2-1.1-1.9c-0.5-0.7-1-1.5-1.5-2.2
			c0-0.1-0.1-0.1-0.1-0.2c-0.2-0.3-0.5-0.7-0.7-1c-0.2-0.3-0.4-0.5-0.6-0.8c0,0-0.1-0.1-0.1-0.1c-0.5-0.6-0.9-1.2-1.4-1.7
			c0,0,0,0,0,0c0,0-0.1-0.1-0.1-0.1c-0.5-0.5-0.9-1.1-1.4-1.6c-0.1-0.1-0.1-0.2-0.2-0.2c-1.1-1.2-2.2-2.4-3.4-3.7
			c-0.1-0.2-0.3-0.3-0.4-0.5c-0.1-0.1-0.2-0.2-0.3-0.3c-1.1-1.2-2.3-2.4-3.4-3.5c-0.3-0.3-0.7-0.7-1-1c0,0,0,0,0,0
			c-0.4-0.4-0.7-0.8-1.1-1.2c-0.1-0.1-0.2-0.2-0.3-0.4c-0.2-0.2-0.4-0.5-0.6-0.7c-0.1-0.1-0.2-0.3-0.3-0.4c-0.2-0.2-0.3-0.4-0.4-0.6
			c-0.1-0.1-0.2-0.3-0.3-0.4c-0.2-0.2-0.3-0.4-0.4-0.6c-0.1-0.1-0.2-0.2-0.2-0.3c-0.1-0.2-0.3-0.4-0.4-0.6c-0.1-0.1-0.1-0.2-0.2-0.3
			c-0.2-0.3-0.4-0.6-0.5-0.8c-0.3-0.5-0.6-1-0.8-1.6c0,0,0,0,0,0c-0.2-0.5-0.4-1.1-0.6-1.6c0,0,0,0,0,0c-0.2-0.6-0.3-1.1-0.4-1.7
			c0,0,0,0,0,0c-0.1-0.6-0.1-1.2-0.1-1.8c0-0.3,0-0.6,0-0.8c0-0.1,0-0.1,0-0.1c0-0.2,0-0.5,0.1-0.7c0,0,0,0,0-0.1
			c0-0.2,0.1-0.5,0.1-0.7c0,0,0,0,0,0c0-0.2,0.1-0.4,0.1-0.6c0,0,0-0.1,0-0.1c0.1-0.2,0.1-0.3,0.2-0.5c0,0,0-0.1,0.1-0.1
			c0.1-0.1,0.1-0.2,0.2-0.3c0-0.1,0.1-0.1,0.1-0.2c0-0.1,0.1-0.1,0.1-0.1c0.2-0.2,0.3-0.4,0.5-0.6c0.1-0.1,0.3-0.2,0.4-0.3l0,0
			c0,0,0,0,0,0l-7,3.9c-0.1,0.1-0.3,0.2-0.4,0.3c-0.2,0.2-0.4,0.4-0.5,0.6c0,0,0,0-0.1,0.1c0,0,0,0.1,0,0.1c0,0.1-0.1,0.1-0.1,0.2
			c0,0.1-0.1,0.1-0.1,0.2c0,0.1-0.1,0.1-0.1,0.2c0,0,0,0.1-0.1,0.1c0,0,0,0,0,0.1c0,0.1-0.1,0.2-0.1,0.4c0,0,0,0.1,0,0.1
			c0,0,0,0.1,0,0.1c0,0.1,0,0.1-0.1,0.2c0,0.1-0.1,0.2-0.1,0.4c0,0,0,0,0,0c0,0,0,0,0,0c0,0.1,0,0.2-0.1,0.3c0,0.1,0,0.2,0,0.3
			c0,0,0,0,0,0.1c0,0,0,0,0,0c0,0.1,0,0.3,0,0.5c0,0.1,0,0.1,0,0.2c0,0,0,0.1,0,0.1c0,0,0,0.1,0,0.1c0,0.2,0,0.4,0,0.6
			c0,0,0,0.1,0,0.1c0,0.1,0,0.3,0,0.4c0,0.2,0,0.3,0,0.5c0,0.2,0,0.3,0,0.5c0,0.1,0,0.3,0.1,0.4c0,0,0,0,0,0c0,0,0,0,0,0
			c0,0.1,0,0.3,0.1,0.4c0,0.1,0,0.3,0.1,0.4c0,0.1,0.1,0.3,0.1,0.4c0,0.1,0.1,0.3,0.1,0.4c0,0,0,0.1,0,0.1c0,0,0,0,0,0
			c0,0.1,0,0.1,0.1,0.2c0,0.1,0.1,0.2,0.1,0.4c0,0.1,0.1,0.2,0.1,0.3c0,0.1,0.1,0.2,0.1,0.3c0,0.1,0.1,0.2,0.1,0.3c0,0,0,0.1,0,0.1
			c0,0,0,0,0,0c0,0.1,0.1,0.1,0.1,0.2c0.1,0.1,0.1,0.2,0.2,0.4c0.1,0.1,0.1,0.3,0.2,0.4c0.1,0.2,0.2,0.4,0.3,0.6
			c0.2,0.3,0.3,0.5,0.5,0.8c0.1,0.1,0.1,0.2,0.2,0.3c0.1,0.2,0.3,0.4,0.4,0.6c0,0,0,0,0,0.1c0.1,0.1,0.1,0.2,0.2,0.3
			c0.1,0.2,0.3,0.4,0.4,0.6c0,0,0.1,0.1,0.1,0.1c0.1,0.1,0.1,0.2,0.2,0.3c0.1,0.2,0.3,0.4,0.4,0.6c0,0.1,0.1,0.1,0.1,0.2
			c0.1,0.1,0.1,0.2,0.2,0.2c0.2,0.2,0.4,0.4,0.6,0.7c0.1,0.1,0.1,0.1,0.2,0.2c0,0,0.1,0.1,0.1,0.1c0.3,0.4,0.7,0.8,1.1,1.2
			c0,0,0,0,0,0c0,0,0,0,0,0c0.3,0.3,0.6,0.7,1,1c1.3,1.3,2.5,2.6,3.7,3.9c0.2,0.2,0.3,0.3,0.5,0.5c1.2,1.2,2.3,2.5,3.4,3.7
			c0.6,0.6,1.1,1.2,1.6,1.9c0,0,0.1,0.1,0.1,0.1c0.5,0.6,1,1.2,1.5,1.9c0.2,0.3,0.4,0.5,0.6,0.8c0.3,0.4,0.6,0.8,0.8,1.1
			c0.5,0.7,1,1.5,1.5,2.2c0.4,0.6,0.8,1.2,1.1,1.9c0.1,0.2,0.2,0.4,0.3,0.6c0.3,0.5,0.6,1,0.8,1.6c0,0.1,0.1,0.2,0.1,0.2
			c0.3,0.7,0.6,1.3,0.9,2c0,0,0,0,0,0c0.3,0.7,0.6,1.4,0.8,2.2c0.2,0.7,0.5,1.5,0.7,2.2c0,0,0,0.1,0,0.1c0.2,0.7,0.3,1.5,0.5,2.3
			c0,0,0,0,0,0c0.1,0.7,0.2,1.5,0.3,2.3c0,0.1,0,0.1,0,0.2c0.1,0.8,0.1,1.6,0.1,2.4c0,0.7,0,1.3,0,2c0,0.1,0,0.1,0,0.2
			c0,0.6-0.1,1.2-0.2,1.8c0,0,0,0.1,0,0.1c-0.1,0.6-0.2,1.1-0.3,1.7c0,0,0,0,0,0.1c-0.1,0.5-0.3,1-0.4,1.4c0,0.1,0,0.1-0.1,0.2
			c-0.2,0.4-0.3,0.8-0.5,1.2c-0.1,0.1-0.2,0.3-0.2,0.4c-0.2,0.3-0.3,0.6-0.5,0.8c0,0.1-0.1,0.1-0.1,0.2c-0.3,0.3-0.5,0.6-0.8,0.9
			c-0.1,0.1-0.1,0.1-0.2,0.2c-0.3,0.3-0.6,0.5-1,0.8c-0.2,0.1-0.4,0.3-0.6,0.4l0,0c0,0,0,0,0,0l7-3.9c0.2-0.1,0.4-0.2,0.6-0.4
			c0.3-0.2,0.7-0.5,1-0.8c0.1-0.1,0.1-0.1,0.2-0.2c0.3-0.3,0.6-0.6,0.8-0.9c0-0.1,0.1-0.1,0.1-0.2c0.1-0.1,0.2-0.2,0.3-0.4
			c0.1-0.1,0.2-0.3,0.3-0.5c0.1-0.1,0.2-0.3,0.2-0.4c0-0.1,0.1-0.1,0.1-0.2c0.1-0.3,0.3-0.6,0.4-0.9c0,0,0-0.1,0-0.1
			c0-0.1,0-0.1,0.1-0.2c0.1-0.2,0.1-0.4,0.2-0.6c0.1-0.3,0.2-0.5,0.2-0.8c0,0,0,0,0,0c0,0,0,0,0-0.1c0.1-0.2,0.1-0.5,0.2-0.8
			c0.1-0.3,0.1-0.6,0.2-0.9c0,0,0,0,0-0.1c0,0,0-0.1,0-0.1c0-0.2,0.1-0.5,0.1-0.7c0-0.3,0.1-0.6,0.1-0.9c0,0,0-0.1,0-0.1
			c0-0.1,0-0.1,0-0.2C356.4,283.3,356.4,283,356.4,282.8z"/>
		<linearGradient id="SVGID_61_" gradientUnits="userSpaceOnUse" x1="312.8633" y1="215.6063" x2="332.4089" y2="215.6063">
			<stop  offset="0" style="stop-color:#F39C12"/>
			<stop  offset="1" style="stop-color:#F1C40F"/>
		</linearGradient>
		<path class="st62" d="M332.4,214.5c-0.1,0-0.1-0.1-0.2-0.1c-0.4-0.2-0.8-0.3-1.2-0.5c-0.1,0-0.2-0.1-0.3-0.1
			c-0.1,0-0.2-0.1-0.4-0.1c-0.2-0.1-0.3-0.1-0.5-0.2c-0.4-0.1-0.7-0.2-1.1-0.3c0,0,0,0,0,0c0,0-0.1,0-0.1,0
			c-0.3-0.1-0.6-0.1-0.9-0.2c-0.2,0-0.4-0.1-0.5-0.1c-0.1,0-0.2,0-0.3,0c-0.1,0-0.1,0-0.2,0c-0.3,0-0.7-0.1-1-0.1
			c-0.1,0-0.1,0-0.2,0c-0.1,0-0.2,0-0.3,0c-0.2,0-0.3,0-0.5,0c-0.2,0-0.4,0-0.7,0c-0.1,0-0.2,0-0.3,0c0,0-0.1,0-0.1,0
			c-0.4,0-0.7,0.1-1.1,0.2c0,0,0,0-0.1,0c-0.2,0-0.4,0.1-0.6,0.2c-0.2,0.1-0.4,0.1-0.7,0.2c0,0-0.1,0-0.1,0c-0.1,0-0.1,0-0.2,0.1
			c-0.4,0.2-0.8,0.3-1.1,0.5l-7,3.9c0.4-0.2,0.7-0.4,1.1-0.5c0.1,0,0.1,0,0.2-0.1c0.2-0.1,0.5-0.2,0.8-0.2c0.2-0.1,0.4-0.1,0.6-0.2
			c0.4-0.1,0.8-0.2,1.3-0.2c0.1,0,0.2,0,0.3,0c0.4,0,0.8,0,1.2,0c0.1,0,0.2,0,0.3,0c0.5,0,0.9,0.1,1.4,0.1c0.1,0,0.2,0,0.3,0
			c0.5,0.1,1,0.2,1.5,0.3c0,0,0,0,0.1,0c0.5,0.1,1.1,0.3,1.6,0.4c0.1,0,0.2,0.1,0.4,0.1c0.6,0.2,1.1,0.4,1.7,0.6l0,0h0L332.4,214.5z
			"/>
		<linearGradient id="SVGID_62_" gradientUnits="userSpaceOnUse" x1="332.2812" y1="236.1926" x2="356.3747" y2="236.1926">
			<stop  offset="0" style="stop-color:#F39C12"/>
			<stop  offset="1" style="stop-color:#E77F24"/>
		</linearGradient>
		<path class="st63" d="M356.4,250.3c0-0.4,0-0.8,0-1.1c0-0.4,0-0.8-0.1-1.2c0,0,0,0,0-0.1c0,0,0,0,0,0c0-0.4-0.1-0.8-0.1-1.3
			c0-0.3-0.1-0.6-0.1-0.9c0-0.1,0-0.1,0-0.2c0,0,0-0.1,0-0.1c-0.1-0.4-0.1-0.8-0.2-1.2c0-0.3-0.1-0.6-0.2-0.9c0,0,0-0.1,0-0.1
			c0,0,0-0.1,0-0.1c-0.1-0.4-0.2-0.7-0.2-1.1c-0.1-0.3-0.2-0.6-0.2-1c0,0,0-0.1,0-0.1c0,0,0,0,0,0c-0.1-0.4-0.2-0.7-0.3-1.1
			c-0.1-0.3-0.2-0.7-0.3-1c0,0,0,0,0-0.1c0,0,0-0.1,0-0.1c-0.1-0.3-0.2-0.6-0.3-0.9c-0.1-0.3-0.2-0.7-0.4-1c0-0.1-0.1-0.2-0.1-0.2
			c0-0.1-0.1-0.1-0.1-0.2c-0.1-0.2-0.1-0.4-0.2-0.5c-0.1-0.3-0.3-0.7-0.4-1c-0.1-0.1-0.1-0.3-0.2-0.4c0-0.1-0.1-0.2-0.1-0.3
			c-0.1-0.1-0.1-0.3-0.2-0.4c-0.2-0.4-0.4-0.9-0.7-1.3c-0.1-0.1-0.1-0.2-0.2-0.3c-0.4-0.8-0.8-1.5-1.3-2.2c-0.1-0.2-0.3-0.5-0.5-0.7
			c-0.3-0.5-0.6-1-0.9-1.4c-0.1-0.1-0.1-0.1-0.1-0.2c-0.3-0.4-0.6-0.8-0.9-1.2c0,0-0.1-0.1-0.1-0.1c-0.1-0.1-0.1-0.1-0.2-0.2
			c-0.2-0.2-0.4-0.5-0.6-0.7c-0.3-0.3-0.5-0.6-0.8-1c0,0,0,0,0,0c0,0,0,0,0,0c-0.3-0.3-0.5-0.6-0.8-0.9c-0.2-0.2-0.4-0.4-0.7-0.7
			c-0.1-0.1-0.1-0.1-0.2-0.2c0,0-0.1-0.1-0.1-0.1c-0.3-0.3-0.6-0.6-1-0.9c-0.1-0.1-0.3-0.3-0.5-0.4c-0.1-0.1-0.2-0.2-0.3-0.2
			c-0.1-0.1-0.2-0.2-0.3-0.2c-0.3-0.3-0.7-0.6-1.1-0.9c-0.1-0.1-0.2-0.1-0.2-0.2c-0.1-0.1-0.2-0.2-0.3-0.2c-0.2-0.1-0.4-0.3-0.6-0.4
			c-0.4-0.3-0.8-0.6-1.2-0.8c0,0,0,0,0,0l-7,3.9c0.6,0.4,1.2,0.8,1.7,1.3c0.1,0.1,0.2,0.2,0.3,0.2c0.5,0.4,1.1,0.9,1.6,1.3
			c0.1,0.1,0.2,0.2,0.3,0.2c0.5,0.5,1,0.9,1.5,1.4c0.1,0.1,0.1,0.1,0.2,0.2c0.5,0.5,1,1,1.5,1.6c0,0,0,0,0,0
			c0.5,0.5,0.9,1.1,1.4,1.7c0.1,0.1,0.1,0.1,0.2,0.2c0.4,0.5,0.8,1,1.2,1.6c0.3,0.5,0.6,0.9,0.9,1.4c0.1,0.2,0.3,0.5,0.5,0.7
			c0.4,0.7,0.9,1.5,1.3,2.2c0.4,0.7,0.7,1.3,1,2c0,0.1,0.1,0.2,0.1,0.3c0.3,0.6,0.6,1.3,0.8,1.9c0,0.1,0.1,0.1,0.1,0.2
			c0.3,0.7,0.5,1.4,0.7,2.1c0,0,0,0.1,0,0.1c0.2,0.7,0.4,1.5,0.6,2.2c0,0,0,0.1,0,0.1c0.2,0.7,0.3,1.5,0.5,2.2c0,0,0,0.1,0,0.1
			c0.1,0.7,0.3,1.4,0.4,2.2c0,0.1,0,0.1,0,0.2c0.1,0.7,0.2,1.5,0.2,2.2c0,0,0,0,0,0.1c0.1,0.8,0.1,1.6,0.1,2.3v0v0L356.4,250.3z"/>
		<g>
			<polygon class="st58" points="325.3,207.7 332.3,203.8 339.1,207.3 332.2,211.2 			"/>
		</g>
		<g>
			<polygon class="st64" points="332.2,211.2 339.1,207.3 339.2,218.2 332.3,222.1 			"/>
		</g>
		<g>
			<linearGradient id="SVGID_63_" gradientUnits="userSpaceOnUse" x1="305.7489" y1="257.4845" x2="349.4188" y2="257.4845">
				<stop  offset="0" style="stop-color:#F39C12"/>
				<stop  offset="1" style="stop-color:#F1C40F"/>
			</linearGradient>
			<path class="st65" d="M332.2,211.2l0.1,10.9c5.3,3.6,9.4,8.2,12.5,13.9c3,5.7,4.6,11.8,4.7,18.2l-14.5-7.4c0-3.5-0.6-6.5-1.8-9
				c-1.2-2.5-2.8-4.3-4.9-5.3c-1.9-1-3.4-1-4.4-0.1c-1,0.9-1.5,2.5-1.5,5c0,2.5,0.7,4.8,1.9,6.9c1.2,2.1,3.2,4.5,5.9,7.2
				c2.7,2.7,5.2,5.4,7.6,8c2.4,2.6,4.4,5.3,6.2,8c1.7,2.7,3.1,5.5,4.1,8.4c1,2.9,1.5,6.1,1.6,9.5c0.1,5.8-1.4,9.7-4.5,11.8
				c-3.1,2.1-7.3,2-12.6-0.1l0.1,10.2l-6.8-3.5l-0.1-10.3c-6.3-4-11.1-8.9-14.5-14.9c-3.4-6-5.1-12.5-5.2-19.5l14.5,7.4
				c0,3.9,0.8,7.2,2.3,9.9c1.5,2.8,3.5,4.8,6.2,6.2c1.9,1,3.5,1.1,4.6,0.3c1.1-0.8,1.6-2.4,1.6-4.8c0-2.7-0.6-5.1-1.7-7.1
				c-1.1-2.1-3.1-4.5-5.9-7.3c-2.8-2.8-5.4-5.5-7.8-8.1c-2.4-2.6-4.5-5.3-6.2-8c-1.7-2.7-3.1-5.5-4-8.4c-1-2.9-1.4-6-1.5-9.4
				c-0.1-5.7,1.5-9.6,4.7-11.6c3.2-2,7.6-2,13,0.2l-0.1-10.7L332.2,211.2z"/>
		</g>
	</g>
</g>
<g>
	<ellipse class="st14" cx="332.4" cy="174.5" rx="20.3" ry="11.7"/>
	<ellipse class="st14" cx="332.4" cy="156.8" rx="20.3" ry="11.7"/>
	<line class="st14" x1="332.4" y1="207.5" x2="332.4" y2="136"/>
	<linearGradient id="SVGID_64_" gradientUnits="userSpaceOnUse" x1="329.0479" y1="131.8378" x2="335.7698" y2="131.8378">
		<stop  offset="0" style="stop-color:#F39C12"/>
		<stop  offset="1" style="stop-color:#F1C40F"/>
	</linearGradient>
	<circle class="st66" cx="332.4" cy="131.8" r="3.4"/>
</g>
<g>
	<ellipse class="st14" cx="701.2" cy="282.6" rx="20.3" ry="11.7"/>
	<ellipse class="st14" cx="701.2" cy="264.9" rx="20.3" ry="11.7"/>
	<line class="st14" x1="701.2" y1="315.6" x2="701.2" y2="244.1"/>
	<linearGradient id="SVGID_65_" gradientUnits="userSpaceOnUse" x1="697.884" y1="239.9516" x2="704.606" y2="239.9516">
		<stop  offset="0" style="stop-color:#F39C12"/>
		<stop  offset="1" style="stop-color:#F1C40F"/>
	</linearGradient>
	<circle class="st67" cx="701.2" cy="240" r="3.4"/>
</g>
</svg>
