<svg xmlns="http://www.w3.org/2000/svg" viewBox="0 0 564.42 448.69"><defs><style>.cls-1{fill:#ffc0c7;}.cls-1,.cls-3,.cls-4,.cls-5,.cls-6{stroke:#690519;stroke-linecap:round;stroke-width:3px;}.cls-1,.cls-3,.cls-4,.cls-6{stroke-linejoin:round;}.cls-2{fill:#8d5311;}.cls-3{fill:#51dddf;}.cls-4{fill:#fcce70;}.cls-5,.cls-6{fill:none;}.cls-5{stroke-miterlimit:10;}.cls-6{stroke-dasharray:12;}</style></defs><title>Asset 1</title><g id="Layer_2" data-name="Layer 2"><g id="Layer_1-2" data-name="Layer 1"><polygon class="cls-1" points="280.5 119.95 279.65 146.99 234.08 111.46 234.93 84.42 280.5 119.95"/><polygon class="cls-1" points="321.8 130.9 320.94 157.94 312.59 164.64 313.45 137.6 321.8 130.9"/><polygon class="cls-2" points="313.45 137.6 312.59 164.64 225.71 156.12 226.57 129.08 313.45 137.6"/><polygon class="cls-3" points="313.55 137.68 312.7 164.72 225.71 156.12 226.57 129.08 313.55 137.68"/><polygon class="cls-4" points="248.36 73.65 321.8 130.9 313.45 137.6 226.57 129.08 276.01 167.63 262.58 178.4 189.26 121.23 200.14 112.5 280.5 119.95 234.93 84.42 248.36 73.65"/><polygon class="cls-1" points="276.01 167.63 275.16 194.67 261.73 205.44 262.58 178.4 276.01 167.63"/><polygon class="cls-3" points="262.58 178.4 261.73 205.44 188.4 148.27 189.26 121.23 262.58 178.4"/><polygon class="cls-1" points="397.72 199.31 396.87 226.35 351.3 190.82 352.15 163.78 397.72 199.31"/><polygon class="cls-1" points="439.02 210.26 438.16 237.3 429.82 244 430.67 216.96 439.02 210.26"/><polygon class="cls-2" points="430.67 216.96 429.82 244 342.93 235.47 343.79 208.44 430.67 216.96"/><polygon class="cls-3" points="430.77 217.04 429.92 244.08 342.93 235.47 343.79 208.44 430.77 217.04"/><polygon class="cls-4" points="365.58 153.01 439.02 210.26 430.67 216.96 343.79 208.44 393.24 246.99 379.81 257.76 306.48 200.59 317.36 191.86 397.72 199.31 352.15 163.78 365.58 153.01"/><polygon class="cls-1" points="393.24 246.99 392.38 274.03 378.95 284.8 379.81 257.76 393.24 246.99"/><polygon class="cls-3" points="379.81 257.76 378.95 284.8 305.62 227.63 306.48 200.59 379.81 257.76"/><path class="cls-1" d="M98,248.22l.58-.34.69-.37.59-.29c.23-.12.47-.22.7-.32l.6-.25.6-.22q.51-.18,1-.33l.53-.16c.38-.1.77-.19,1.15-.27l.38-.08c.5-.09,1-.16,1.48-.22l.26,0c.41,0,.82-.07,1.22-.08h.42c.42,0,.84,0,1.25,0l.49,0c.45,0,.9.08,1.35.14l.25,0c.5.08,1,.16,1.48.27l.39.09,1.06.28a4,4,0,0,1,.49.15l1,.32.45.17c.38.15.75.3,1.12.47l.22.1c.43.2.86.42,1.27.65l.34.21c.3.17.59.35.88.53l.4.27.78.56.35.28c.31.25.61.5.91.77l.13.11c.32.31.63.62.93.94l.25.29q.32.36.6.72l.27.36c.18.24.34.48.5.73l.22.34a11.48,11.48,0,0,1,.56,1,.25.25,0,0,1,0,.07q.27.57.48,1.14c0,.11.07.23.11.35s.17.55.24.83l.09.41c.06.27.1.55.14.83,0,.13,0,.25,0,.38a8.25,8.25,0,0,1,0,1.22h0l.86-27c0-.41,0-.81,0-1.22,0-.12,0-.25-.05-.37,0-.28-.08-.56-.13-.84l-.09-.41c-.07-.28-.15-.55-.24-.83l-.12-.35c-.14-.38-.29-.76-.47-1.13l0-.08c-.17-.35-.36-.69-.56-1-.07-.12-.15-.23-.22-.34s-.33-.5-.5-.74l-.27-.35q-.28-.37-.6-.72l-.25-.29c-.3-.33-.61-.64-.94-.95l-.13-.11c-.29-.26-.59-.52-.9-.77l-.36-.27c-.25-.2-.51-.38-.78-.57l-.4-.27c-.28-.18-.57-.36-.87-.53l-.34-.2c-.42-.23-.84-.45-1.28-.66l-.21-.09c-.37-.17-.74-.33-1.12-.48l-.45-.17-1-.32-.48-.15-1.07-.28-.39-.09c-.48-.1-1-.19-1.47-.26h0l-.2,0c-.45-.06-.9-.1-1.36-.13l-.49,0c-.41,0-.82,0-1.24,0h-.42l-1.23.09-.25,0c-.5,0-1,.12-1.48.21l-.08,0-.31.07c-.38.08-.76.16-1.15.27l-.53.15c-.34.1-.67.21-1,.33l-.31.1-.3.12-.59.25-.7.32-.6.29-.69.38-.58.34c-.23.13-.46.28-.68.43l-.57.39-.25.16c-.26.2-.53.4-.8.62L76.4,239l-.85,27,20.14-16.16c.34-.27.69-.53,1-.77q.28-.21.57-.39Z"/><path class="cls-1" d="M146.75,233c0,.57-.07,1.14-.13,1.72,0,.19-.05.38-.08.57s0,.26,0,.38c-.05.3-.11.6-.17.9,0,.08,0,.17,0,.26-.08.38-.18.76-.29,1.14,0,.09,0,.19-.08.28-.09.29-.18.59-.28.88,0,.13-.09.25-.13.38-.1.28-.2.55-.31.82l-.15.35c-.16.39-.33.77-.51,1.15l0,0q-.27.54-.57,1.08c-.12.23-.26.46-.39.69s-.23.39-.36.59-.29.46-.45.69-.25.39-.39.58-.34.47-.51.7l-.43.57c-.18.24-.38.47-.57.7s-.3.37-.47.56-.42.48-.64.71l-.49.54c-.24.25-.49.49-.74.74s-.33.33-.5.5l-.89.8-.45.42c-.47.41-1,.81-1.45,1.21l-20.14,16.16-.86,27L134.34,280c.5-.4,1-.8,1.45-1.21l.46-.42c.3-.27.6-.54.88-.81s.34-.33.5-.49l.74-.74.49-.54c.22-.24.44-.47.65-.71l.46-.56.58-.7c.15-.19.29-.39.43-.58l.51-.69.39-.59c.15-.22.31-.45.45-.68s.24-.4.35-.6.27-.45.4-.68a1,1,0,0,1,.08-.14c.17-.32.33-.63.48-.94l0,0c.19-.38.36-.77.52-1.15l.14-.35c.11-.27.22-.55.31-.82s.1-.26.14-.38c.1-.3.19-.59.27-.88l.09-.28c.11-.38.2-.77.28-1.15l.06-.25c.06-.3.11-.6.16-.9l.06-.38c0-.12,0-.24.05-.36s0-.14,0-.22c.07-.57.12-1.14.14-1.71Z"/><path class="cls-4" d="M83.34,212.5c34.8-27.92,86.75,12.43,51.86,40.42l-20.14,16.16,21.58,16.83-13.43,10.77L49.88,239.51C61.07,230.53,72.16,221.47,83.34,212.5ZM122.52,243c17.2-13.79-8.88-34-26-20.25L76.4,239l26,20.25L122.52,243"/><polygon class="cls-1" points="136.64 285.91 135.78 312.95 122.36 323.72 123.21 296.68 136.64 285.91"/><polygon class="cls-3" points="123.21 296.68 122.36 323.72 49.03 266.55 49.88 239.51 123.21 296.68"/><polygon class="cls-4" points="152.17 155.21 225.49 212.38 212.17 223.06 138.85 165.9 152.17 155.21"/><polygon class="cls-1" points="225.49 212.38 224.64 239.41 211.32 250.1 212.17 223.06 225.49 212.38"/><polygon class="cls-3" points="212.17 223.06 211.32 250.1 137.99 192.93 138.85 165.9 212.17 223.06"/><path class="cls-1" d="M325.11,53.93l.32-.2c.62-.37,1.25-.72,1.9-1.06l.42-.22c.66-.34,1.33-.67,2-1l.06,0c.71-.32,1.43-.61,2.17-.89l.56-.21,1-.34.69-.23,1-.32.67-.19,1.19-.31.55-.13c.58-.14,1.17-.26,1.76-.38s1.07-.19,1.61-.27l.48-.06,1.13-.14.62-.06,1-.09.67,0,1.24,0,.85-27-.6,0-.63,0-.68,0-1,.08-.62.06-1.13.14-.49.07c-.53.08-1.06.16-1.59.26h0c-.59.11-1.18.23-1.76.37l-.55.14c-.4.09-.79.19-1.19.3l-.66.2-1.05.31-.7.23-1,.35-.3.1-.26.11c-.73.28-1.46.57-2.16.88l-.07,0c-.69.31-1.36.64-2,1l-.42.22c-.65.34-1.28.7-1.89,1.07l-.32.2c-.56.34-1.1.7-1.62,1.06l-.18.12-.09.07c-.43.31-.85.63-1.26,1s-.8.66-1.19,1l-.37.34-.74.68-.41.41-.62.63-.41.45q-.29.3-.54.6c-.14.16-.26.32-.39.48s-.33.4-.48.6-.25.32-.37.49l-.43.59-.33.51c-.13.19-.26.39-.38.59s-.2.34-.3.51-.23.4-.34.6l-.11.19-.09.21c-.23.43-.44.88-.63,1.32,0,.07-.06.13-.08.2-.21.49-.39,1-.55,1.48,0,.12-.08.24-.11.36-.15.47-.27.94-.38,1.41l0,.13c-.11.51-.19,1-.26,1.52a1.22,1.22,0,0,0,0,.17c0,.07,0,.13,0,.2q-.09.78-.12,1.56l-.85,27c0-.52.06-1,.12-1.55,0-.13,0-.25,0-.37.07-.51.15-1,.26-1.52,0,0,0-.09,0-.14.1-.47.23-.93.37-1.4,0-.12.08-.24.11-.36.17-.5.35-1,.55-1.49l.09-.19c.19-.45.4-.89.62-1.33.07-.13.13-.26.21-.39s.22-.4.33-.6l.3-.51.39-.6c.11-.17.21-.33.33-.5l.43-.6.36-.49.48-.6.39-.47.54-.6.41-.45.62-.63c.14-.14.27-.28.41-.41s.49-.46.75-.68l.37-.34c.38-.34.78-.67,1.19-1s.82-.64,1.26-1a2.61,2.61,0,0,1,.27-.19C324,54.63,324.56,54.28,325.11,53.93Z"/><polygon class="cls-1" points="381.64 50.74 380.79 77.77 368.41 68.13 369.27 41.09 381.64 50.74"/><polygon class="cls-1" points="369.27 41.09 368.41 68.13 351.07 82.04 351.92 55 369.27 41.09"/><polygon class="cls-3" points="351.92 55 351.07 82.04 339.29 72.86 340.15 45.82 351.92 55"/><path class="cls-4" d="M310.75,19.69c9.11-7.31,21.81-11.82,35.87-11.89l.44,12.91c-9.05.15-18.32,3.65-24.24,8.39-14.53,11.66-12,27.6,2.4,38.81,11.47,8.94,29.83,13,46.69-.54,5.33-4.27,8.79-8.94,9.73-16.63l-12.37-9.65L351.92,55l-11.77-9.18L369.21,22.5l29.44,23c1.19,11.51-2.55,21.93-14.46,31.49-25.49,20.44-53.12,15.3-71.47,1C293.06,62.6,286.82,38.89,310.75,19.69Z"/><path class="cls-3" d="M398,77.58h0l.85-27c0,.56,0,1.11-.1,1.67,0,.17,0,.35-.05.53,0,.38-.08.76-.13,1.14,0,.16,0,.32-.07.48-.06.39-.12.77-.19,1.16l-.09.46c-.11.52-.22,1-.36,1.55v0c-.13.5-.28,1-.44,1.5l-.15.46c-.13.37-.26.75-.4,1.12l-.18.46c-.19.47-.39.94-.6,1.4a1.17,1.17,0,0,1-.05.11c-.22.49-.47,1-.73,1.45-.15.3-.32.6-.49.9s-.29.51-.45.77-.37.59-.57.89-.32.51-.49.76-.43.59-.65.89-.35.49-.54.74-.48.6-.73.9-.38.48-.59.71-.54.61-.82.92-.41.46-.62.68l-.95,1c-.21.21-.41.43-.63.64s-.76.7-1.14,1l-.58.53c-.59.52-1.21,1-1.85,1.55s-1.42,1.11-2.14,1.64l-.54.4c-.6.44-1.21.86-1.81,1.28l-.41.28c-.71.48-1.43.94-2.15,1.38l-.57.34c-.55.33-1.1.66-1.65,1l-.66.36c-.64.35-1.27.68-1.91,1l-.27.15c-.73.35-1.45.69-2.18,1l-.6.27-1.64.68L367,87l-1.42.52-1,.33c-.48.16-1,.31-1.45.45l-.88.27c-.57.16-1.14.3-1.72.45l-.6.15c-.78.18-1.55.35-2.32.49l-.34.06c-.63.11-1.26.22-1.89.31l-.76.1-1.47.17-.83.07c-.47,0-.94.08-1.41.1l-.82,0-1.27,0h-1.09c-.41,0-.81,0-1.22,0s-.72,0-1.07,0l-1.22-.08c-.35,0-.71,0-1.06-.08s-.81-.08-1.21-.13L341,90c-.54-.07-1.07-.15-1.6-.24l-.5-.08c-.71-.12-1.4-.26-2.1-.41l-.52-.12-1.55-.37-.75-.2-1.3-.37c-.27-.07-.53-.16-.8-.24l-1.24-.4-.79-.27-1.25-.46-.73-.28L326.44,86l-.56-.24c-.64-.28-1.27-.57-1.9-.87l-.32-.16c-.52-.25-1-.51-1.55-.78l-.63-.34q-.6-.31-1.2-.66l-.7-.4-1.1-.66-.7-.43-1.09-.71-.65-.43-1.14-.8-.55-.39c-.55-.4-1.1-.81-1.63-1.23-9-7-15.13-15.7-16.93-25a28.58,28.58,0,0,1-.53-6.46l-.86,27c-.36,11.6,6.44,22.83,17.46,31.42.54.42,1.09.83,1.64,1.23l.55.39c.37.27.75.53,1.14.8l.65.43,1.09.7.69.44,1.11.66.7.4,1.19.66.64.34c.51.27,1,.52,1.54.78l.33.16c.62.3,1.26.59,1.89.87l.57.24c.46.19.91.38,1.38.56l.73.28c.41.16.83.32,1.25.46l.78.28,1.24.4.8.24,1.31.37.74.2,1.55.37.53.12c.69.15,1.39.28,2.09.41l.51.08,1.36.21.24,0,1,.12,1.22.13,1,.08,1.22.08,1.08,0,1.22,0,1.08,0h.84l.43,0,.82,0,1.41-.1.84-.08c.49,0,1-.1,1.47-.17l.75-.09,1.9-.31.33-.06h0c.75-.14,1.51-.3,2.27-.48l.59-.15c.58-.15,1.16-.29,1.74-.45l.87-.27,1.46-.45,1-.34,1-.36.39-.15.64-.26c.55-.21,1.1-.44,1.64-.68l.61-.26c.72-.32,1.45-.66,2.17-1l.28-.14c.63-.32,1.27-.65,1.91-1l.65-.37c.55-.31,1.11-.63,1.66-1l.56-.34c.72-.44,1.44-.91,2.16-1.39l.41-.28,1.25-.86.55-.41.55-.4c.71-.53,1.42-1.07,2.13-1.64s1.26-1,1.86-1.56l.57-.52c.39-.35.78-.69,1.14-1l.64-.64c.32-.32.64-.63.94-1s.42-.46.63-.69.56-.6.82-.91l.59-.72c.24-.3.49-.59.72-.89l.55-.74c.22-.3.44-.6.64-.9s.33-.5.5-.76.39-.59.57-.88.3-.52.44-.78.34-.59.5-.89l.1-.18c.22-.42.43-.84.63-1.27,0,0,0-.07,0-.11.22-.46.42-.93.6-1.4.07-.16.12-.31.18-.47.14-.37.28-.74.4-1.11l.16-.46c.15-.5.3-1,.44-1.5v0c.13-.51.25-1,.35-1.55,0-.16.06-.31.09-.47.07-.38.14-.76.2-1.15,0-.16.05-.32.07-.48s0-.2,0-.29c0-.28.06-.57.09-.85s0-.36.05-.54C397.94,78.69,398,78.14,398,77.58Z"/><polygon class="cls-3" points="203.59 314.53 202.73 341.57 198 353.81 198.85 326.78 203.59 314.53"/><path class="cls-1" d="M198.85,326.78c-.3-.06-.62-.12-.94-.16h-.12c-.5-.07-1-.11-1.55-.14h-.33c-.45,0-.9,0-1.37,0h-.24l-.25,0c-.63,0-1.26.07-1.9.14h-.07c-.67.07-1.35.18-2,.31l-.26,0-.44.1-.63.13-.89.21-.61.16-.95.27-.56.17-1.1.38-.42.14-.05,0-.25.1c-.5.2-1,.4-1.51.62l-.59.27-1.21.58-.62.32c-.42.23-.83.46-1.24.71l-.5.29c-.56.34-1.12.71-1.66,1.09l0,0c-.44.32-.88.65-1.31,1s-.75.61-1.1.92l-.33.29c-.23.21-.47.41-.69.62l-.35.33-.6.59-.31.32c-.21.22-.42.44-.62.67l-.2.21q-.37.43-.72.87l-.16.21c-.17.22-.34.44-.49.66l-.21.29-.37.57-.18.3c-.12.19-.22.38-.33.57s-.07.13-.1.19l0,.07c-.14.29-.27.56-.39.84a.36.36,0,0,0,0,.09c-.1.25-.19.49-.27.73a2.58,2.58,0,0,0-.08.26c-.06.19-.11.37-.16.56l-.06.27c0,.19-.08.39-.11.59s0,.1,0,.15a.06.06,0,0,0,0,0,5.78,5.78,0,0,0-.05.71l-.86,27c0-.23,0-.47.06-.71l0-.2c0-.19.06-.39.1-.59s0-.17.07-.26a5.12,5.12,0,0,1,.15-.56c0-.09,0-.18.08-.26a7.28,7.28,0,0,1,.28-.73l0-.09c.12-.28.25-.56.4-.84,0-.09.09-.17.14-.26s.21-.38.32-.57.13-.2.19-.31l.37-.56.2-.3.5-.66.15-.2c.23-.29.47-.58.73-.87l.2-.22.62-.67.3-.31.61-.59.34-.33.7-.63.32-.28,1.1-.92c.44-.35.9-.69,1.36-1s1.1-.75,1.66-1.1l.49-.29c.42-.24.83-.48,1.25-.7l.61-.32,1.22-.59.59-.26c.5-.22,1-.42,1.51-.62l.3-.12.41-.14,1.1-.38.57-.17.94-.27.62-.16c.29-.07.59-.15.89-.21l.62-.13.7-.14c.69-.12,1.37-.23,2-.3h.06c.65-.07,1.28-.11,1.9-.14l.5,0c.47,0,.92,0,1.37,0h.32a15.33,15.33,0,0,1,1.56.14c.36,0,.72.1,1.06.16h0Z"/><path class="cls-3" d="M230.68,352.2a10.2,10.2,0,0,0-1.2-.82l-.07-.05a12.72,12.72,0,0,0-1.22-.62l-.12,0a10.73,10.73,0,0,0-1.24-.44l-.16-.05a10.46,10.46,0,0,0-1.26-.28l-.19,0-.2,0c-.39-.05-.79-.09-1.2-.11h0c-.4,0-.82,0-1.23,0l-.17,0a5.46,5.46,0,0,0-.56,0q-.47,0-.93.09l-.63.09-.54.09-.48.1-.33.07c-.48.11-1,.24-1.46.38l-.24.07c-.43.14-.87.28-1.31.44l-.34.11-.22.08c-.44.17-.88.34-1.33.53l-.25.11-1.34.6-.47.22-1.31.65-.31.16-1.61.88-.41.24c-.42.24-.85.49-1.27.75l-.48.28-1.65,1c-.59.38-1.19.75-1.79,1.12l-.51.31-1.45.87-.42.25-1.82,1-.4.23-1.47.8-.52.27c-.61.33-1.23.64-1.84.95h0c-.62.31-1.23.6-1.84.88l-.52.24-1.48.65-.43.18c-.61.25-1.22.5-1.84.73l-.51.18-1.14.4-.62.2-1.08.34-.61.17-1.16.31L183,367c-.56.13-1.11.25-1.67.35s-.92.17-1.39.24l-.42.05c-.32.05-.65.09-1,.12l-.51.05-.89.07-.53,0-.95,0h-.42c-.46,0-.91,0-1.37,0h-.06c-.44,0-.87-.06-1.3-.1l-.43,0-.85-.11c-.36-.05-.71-.12-1.07-.18l-.57-.11-1.32-.32-.31-.08c-.54-.15-1.09-.32-1.63-.51l-.45-.17-1.17-.46-.59-.26-1-.49-.62-.32q-.51-.27-1-.57l-.61-.35-1.09-.7-.52-.35c-.53-.37-1.07-.76-1.6-1.17-5.61-4.38-7.8-9.43-7.63-14.56l-.86,27c-.16,5.14,2,10.19,7.64,14.57.53.41,1.06.8,1.6,1.17l.51.34c.37.24.73.48,1.1.7l.6.36,1,.57.63.32c.34.17.69.33,1,.48l.6.27c.38.16.77.31,1.16.45l.46.18q.81.29,1.62.51l.31.08c.44.11.88.22,1.32.31l.57.11,1.07.19.26,0,.59.07.43.05c.43,0,.86.08,1.29.1H173c.45,0,.91,0,1.36,0h1l.33,0,.53,0,.89-.07.52-.05,1-.12.42-.06c.46-.06.92-.14,1.37-.23h0c.55-.1,1.11-.22,1.66-.35l.52-.14c.39-.09.77-.19,1.16-.3l.61-.18q.54-.15,1.08-.33l.61-.2,1.15-.4.38-.14.12-.05c.62-.23,1.24-.47,1.85-.73l.42-.17,1.48-.65.52-.24c.62-.28,1.23-.58,1.84-.88h0l1.84-.95.53-.28c.48-.26,1-.52,1.46-.8l.41-.22c.61-.34,1.21-.69,1.81-1l.42-.25,1.45-.87.52-.32c.6-.36,1.19-.73,1.79-1.11s1.1-.7,1.65-1l.47-.29,1.28-.75c.14-.07.27-.15.4-.23.55-.31,1.09-.6,1.62-.88l.3-.16,1.32-.65.46-.22c.45-.21.9-.42,1.35-.61l.25-.1c.52-.22,1-.42,1.55-.61l.33-.12c.44-.15.88-.3,1.32-.43l.24-.07c.49-.15,1-.27,1.45-.38l.34-.07,1-.19.62-.09.93-.09.57-.05c.47,0,.94,0,1.4,0h0a12.76,12.76,0,0,1,1.4.14l.19,0a11.39,11.39,0,0,1,1.26.28l.16,0a12.82,12.82,0,0,1,1.23.44l.13.06a9.87,9.87,0,0,1,1.21.62l.07,0a11.82,11.82,0,0,1,1.21.83,11.35,11.35,0,0,1,2.44,2.54,7.81,7.81,0,0,1,1.36,4.67l.85-27C234.57,356.83,233.44,354.35,230.68,352.2Z"/><path class="cls-1" d="M252,358.39a14.75,14.75,0,0,1-.13,1.61c0,.43-.12.87-.2,1.31,0,.1,0,.2-.07.3-.09.45-.19.89-.32,1.34v0c-.13.45-.28.91-.44,1.36,0,.1-.07.21-.11.31-.16.44-.33.89-.52,1.33a1.42,1.42,0,0,0-.08.18c-.18.41-.37.81-.58,1.22l-.13.27-.32.58c-.21.4-.44.8-.68,1.2-.12.2-.25.4-.37.61l-.74,1.12-.41.59c-.29.42-.61.83-.92,1.24l-.33.43c-.44.55-.89,1.1-1.37,1.64l-.32.36q-.57.63-1.17,1.26c-.17.19-.36.37-.54.56l-1.07,1.06-.6.56c-.39.36-.78.72-1.19,1.08l-.54.48c-.59.51-1.2,1-1.82,1.52s-1.06.84-1.6,1.25l-.45.34-1.27.93-.41.29c-.49.35-1,.7-1.48,1l-.06,0c-.48.32-1,.63-1.43.93l-.48.3-1,.64-.54.32-1,.58-.52.28c-.41.23-.83.45-1.25.66l-.28.15c-.51.26-1,.5-1.54.74l-.44.2-1.13.49-.55.23-1,.42-.55.2c-.42.16-.85.31-1.27.45l-.36.12c-.54.18-1.08.34-1.63.5l-.42.11-1.24.32-.56.13-1.16.24-.57.12-.85.14-.66.1c-.29.05-.59.08-.88.12l-.65.08-.92.08-.61,0c-.34,0-.69,0-1,.06l-.52,0c-.55,0-1.1,0-1.65,0h-.45l-1.22,0-.62,0c-.35,0-.71,0-1.07-.08l-.67-.06-1.06-.12-.63-.09c-.58-.08-1.15-.17-1.73-.28l-.2,0c-.64-.12-1.29-.26-1.93-.41l-.55-.14c-.49-.12-1-.24-1.48-.38l-.58-.16c-.66-.19-1.32-.39-2-.62l-.86,27c.67.22,1.33.42,2,.62l.58.16,1.48.38.55.13c.65.15,1.3.29,1.94.41l.2,0c.57.1,1.15.2,1.72.28l.24,0,.39,0,1.07.13.66.06,1.08.08.62,0,1.22,0h.45c.55,0,1.1,0,1.65,0h0l.48,0,1-.05.62-.05.92-.09.65-.08.87-.11.67-.1.84-.15.22,0,.35-.08,1.16-.24.57-.14c.41-.1.83-.2,1.24-.32l.42-.11c.54-.15,1.09-.32,1.63-.49l.35-.12c.42-.15.85-.29,1.27-.45l.22-.07.33-.14,1.06-.41.55-.23,1.13-.5.43-.19,1.55-.74.27-.14,1.26-.67.52-.29,1-.58.55-.32c.34-.2.69-.41,1-.63l.49-.3,1.43-.93.06,0,1.48-1,.13-.09.27-.2,1.27-.93.46-.35c.53-.41,1.07-.82,1.6-1.25s1.22-1,1.81-1.51l.55-.48,1.19-1.08.59-.56c.37-.36.73-.71,1.08-1.07l.54-.55c.4-.42.78-.84,1.16-1.26l.33-.36c.47-.54.93-1.09,1.37-1.64l.32-.43c.32-.41.63-.83.93-1.24l.4-.59c.26-.38.51-.75.74-1.13.13-.2.26-.4.38-.6.24-.4.46-.81.68-1.21l.22-.38.09-.19.14-.27c.2-.41.39-.81.57-1.22a1.42,1.42,0,0,0,.08-.18c.19-.44.37-.89.53-1.34l.11-.3c.16-.46.31-.91.43-1.36v0c.12-.45.23-.89.32-1.34l.06-.3c.08-.42.15-.83.2-1.25a.15.15,0,0,0,0-.07c.07-.53.11-1.07.13-1.61Z"/><path class="cls-4" d="M163.46,325c10.46-8.39,24.37-14.7,40.12-10.46l-4.73,12.25c-6.26-1.24-16.35.91-23.64,6.76-9.41,7.55-9.87,14.33-4.73,18.34,6,4.7,14.62.46,23.67-5.23,15.79-9.86,32.6-17.4,49.1-4.54,15.42,12,8.8,27.81-6.18,39.83-13.72,11-28.63,16.08-46.26,10.22l4.92-12.86c10.58,3.55,21.72-.07,29.88-6.61,8-6.39,12.58-14.63,5.07-20.49-6.52-5.09-15.81-1.85-25.73,4.53-15.4,9.71-31.83,16.95-47.34,4.85C143.38,350.48,151.18,335,163.46,325Z"/><path class="cls-1" d="M308.92,261.68l-1.09-.84c-.12-.1-.25-.19-.38-.28l-.75-.54-.47-.32-.71-.48-.51-.32c-.23-.15-.46-.3-.7-.44l-.54-.32-.71-.41-.57-.32-.71-.38-.59-.3-.73-.35-.61-.29-.74-.33-.63-.27-.75-.31-.64-.25-.76-.28-.66-.23-.78-.25-.66-.21-.8-.23-.66-.18-.82-.2-.66-.16-.85-.17-.65-.13-.9-.15-.62-.1h-.11l-.72-.09-.73-.08-.84-.07-.74-.06-.85,0-.73,0H281.9c-.48,0-.95,0-1.42.08l-.39,0-1.1.11-.52.07-1,.14-.54.09-.31.06-.7.14-.51.11-1.29.32-.22.06q-.75.21-1.5.45l-.45.16c-.27.09-.54.18-.82.29l-.17.07c-.63.24-1.26.49-1.88.77l-.16.07c-.57.26-1.14.55-1.7.84-.2.1-.39.21-.58.32-.44.24-.88.49-1.32.76l-.59.36q-.76.48-1.53,1l-.24.17-.06,0c-.53.38-1.06.78-1.58,1.2s-.83.68-1.21,1c-.14.11-.26.23-.38.34l-.74.68-.42.42-.62.62-.4.44q-.29.3-.54.6l-.39.47-.47.58c-.13.16-.24.32-.36.48l-.42.58-.32.49c-.13.19-.25.38-.37.58s-.2.32-.29.49l-.33.57c0,.07-.07.13-.1.19l-.1.2c-.21.41-.4.83-.58,1.24a1.54,1.54,0,0,0-.08.19c-.2.46-.36.93-.51,1.39,0,.12-.07.23-.11.34-.13.42-.24.84-.34,1.27,0,.05,0,.11,0,.16-.1.46-.18.93-.24,1.39,0,.05,0,.1,0,.15s0,.12,0,.18c-.05.5-.1,1-.11,1.47h0l-.86,27q0-.73.12-1.47c0-.11,0-.22,0-.33.06-.46.14-.93.24-1.39,0-.06,0-.11,0-.17.09-.42.21-.84.34-1.26,0-.11.06-.23.1-.34.15-.47.32-.93.51-1.39l.09-.19c.17-.42.37-.83.58-1.24l.2-.39c.1-.19.21-.38.32-.57l.29-.5c.12-.19.25-.38.37-.58l.33-.48c.13-.19.28-.39.42-.58l.35-.48.48-.59.38-.46.54-.6c.14-.15.27-.3.41-.44s.4-.42.61-.62l.42-.42.74-.68.38-.35c.39-.34.79-.67,1.21-1s1.06-.82,1.59-1.2l.3-.21c.51-.36,1-.7,1.53-1l.59-.35c.43-.27.88-.52,1.32-.77l.57-.31q.86-.45,1.71-.84l.15-.07c.63-.28,1.25-.54,1.88-.78l1-.35.44-.16q.75-.24,1.5-.45l.23-.06c.43-.12.85-.22,1.28-.32l.52-.11,1-.2.53-.09,1-.14.53-.07,1.09-.11.4,0c.49,0,1-.06,1.47-.07h1.59l.74,0,.85,0,.73.06.84.06.74.09.82.1.63.1c.3.05.6.09.89.15l.66.13.84.17.67.16.82.2.66.18.8.23.66.21.78.25.65.23.77.28.64.25.75.31.63.27.74.33.6.28.73.36.59.3.72.38.57.32c.24.13.47.27.7.41l.55.32.7.44.51.32.72.48.45.31.76.55.38.28c.37.27.73.56,1.08.84,5,4,9,9.09,10.63,14.6a17.93,17.93,0,0,1,.74,5.64l.86-27C320.53,274.27,315.57,267.05,308.92,261.68Z"/><path class="cls-4" d="M249.24,250.6c23.58-18.92,54-13.81,72.2.73,18,14.37,25.41,37.3,1.34,56.6s-53,14.36-71.59-.1S225.56,269.59,249.24,250.6Zm59.68,11.08c-11.69-9.42-31.45-14.61-47.59-1.66s-9.4,28.73,2.78,37.77c11.88,8.79,30.34,13.59,46.48.64s9.72-27.55-1.67-36.75"/><path class="cls-3" d="M337.2,308.71h0l.85-27c0,.5-.05,1-.09,1.49,0,.15,0,.31,0,.46,0,.36-.08.72-.13,1.09,0,.15,0,.3-.07.45-.07.45-.16.9-.25,1.35l0,.15c-.11.49-.24,1-.37,1.49,0,.14-.09.28-.13.43-.11.37-.22.74-.35,1.11-.05.15-.1.3-.16.45-.16.46-.33.91-.52,1.36,0,.05,0,.1,0,.14-.21.5-.44,1-.68,1.5-.06.14-.14.28-.21.42-.16.32-.33.65-.51,1s-.34.62-.52.93-.3.52-.47.78-.39.62-.59.93l-.52.77-.68.93-.57.76c-.25.32-.51.63-.77.95s-.4.49-.62.74l-.86,1c-.22.24-.43.48-.66.71s-.65.67-1,1l-.67.66c-.38.37-.79.74-1.2,1.1-.2.18-.39.37-.6.55-.63.55-1.28,1.09-2,1.63s-1.35,1.06-2,1.56c-.13.1-.27.21-.41.3-.68.5-1.37,1-2.06,1.44l-.29.19c-.6.39-1.2.77-1.8,1.13l-.59.36q-.88.52-1.8,1l-.3.17c-.7.37-1.4.72-2.1,1.06l-.55.26c-.55.26-1.11.52-1.67.75l-.54.24c-.69.29-1.39.57-2.09.83l-.8.28-1.51.51-.93.28-1.38.41-1,.25-1.33.32-1,.22c-.45.09-.9.18-1.34.25l-.9.16-1.39.2-.88.11c-.48.06-1,.11-1.45.15l-.81.08c-.57,0-1.13.07-1.7.09l-.54,0-1.15,0h-1.24l-1.14,0-1.24,0-1.12-.08-1.23-.1c-.38,0-.75-.08-1.13-.12l-1.21-.14c-.72-.1-1.44-.21-2.16-.34l-.37-.07c-.59-.11-1.19-.22-1.78-.35l-.74-.17c-.46-.1-.93-.21-1.39-.33l-.82-.21-1.29-.37-.83-.24-1.27-.41-.8-.27-1.32-.48-.71-.27c-.53-.2-1.06-.42-1.58-.64l-.41-.17c-.66-.28-1.31-.58-1.95-.88l-.53-.26c-.46-.22-.93-.45-1.39-.69l-.69-.36-1.19-.65-.73-.41-1.11-.66-.72-.44-1.1-.71-.67-.44-1.16-.81-.56-.39c-.56-.41-1.12-.82-1.66-1.25-8.54-6.65-14.65-15.29-16.44-24.53a29.21,29.21,0,0,1-.53-6.47l-.85,27c-.37,11.61,6.46,22.81,17,31,.55.42,1.1.84,1.67,1.25l.55.39,1.16.8.67.45,1.11.7.71.44,1.12.67.73.41,1.18.64.7.37c.46.24.92.47,1.39.69l.52.26,2,.88.42.17,1.57.64.72.27,1.31.47q.4.15.81.27l1.26.41.84.25,1.29.36.82.22c.46.12.92.22,1.39.33l.74.17c.59.13,1.19.24,1.79.35l.36.07c.67.12,1.36.22,2,.32h.12c.4.06.8.1,1.2.14s.75.1,1.13.13l1.23.09,1.13.08c.41,0,.82,0,1.24,0l1.13,0,1.25,0h1.15l.54,0c.56,0,1.13,0,1.7-.1l.81-.07,1.44-.15.88-.11c.47-.06.93-.13,1.4-.21.3-.05.6-.09.89-.15l.54-.09.8-.17,1-.21,1.34-.32,1-.26c.46-.12.93-.26,1.39-.4l.92-.28c.51-.16,1-.34,1.53-.52l.78-.27.11,0c.66-.25,1.33-.52,2-.79l.54-.24c.56-.24,1.11-.49,1.67-.75l.55-.26c.7-.34,1.4-.69,2.09-1.06l.31-.17c.6-.33,1.2-.67,1.8-1l.59-.35c.6-.36,1.2-.74,1.79-1.13l.3-.19c.58-.38,1.15-.78,1.72-1.19l.34-.25.41-.3c.68-.5,1.36-1,2-1.56s1.33-1.08,1.95-1.63l.61-.55c.4-.37.81-.73,1.2-1.1l.67-.66,1-1c.22-.24.43-.48.65-.71s.59-.64.87-1l.62-.75c.26-.31.52-.62.76-.94s.39-.51.57-.76l.68-.93c.18-.26.35-.52.52-.78s.41-.62.6-.93l.47-.78.52-.92.21-.37.3-.6.21-.43c.24-.49.47-1,.67-1.49l.06-.14c.18-.45.36-.91.52-1.36.05-.15.1-.3.16-.45.12-.38.24-.75.35-1.12l.12-.42c.14-.5.27-1,.37-1.49a.9.9,0,0,0,0-.16c.1-.44.18-.89.25-1.34,0-.15,0-.3.07-.46s.06-.33.08-.5l.06-.59c0-.15,0-.3,0-.45C337.15,309.7,337.18,309.21,337.2,308.71Z"/><path class="cls-1" d="M443.71,132.34l.32-.19c.61-.37,1.24-.73,1.89-1.07l.43-.22c.66-.34,1.34-.67,2-1l0,0c.71-.32,1.43-.61,2.17-.89l.56-.21,1-.34.69-.23,1.05-.32.66-.19,1.2-.31.54-.13c.58-.14,1.17-.26,1.76-.38s1.07-.19,1.6-.27l.49-.06,1.13-.15.62,0,1-.09.66,0c.42,0,.83,0,1.24,0l.86-27-.6,0-.64,0-.67,0-1,.08c-.2,0-.41,0-.61.06l-1.14.14-.48.07c-.53.07-1.06.16-1.59.26h0c-.6.11-1.18.23-1.77.37l-.53.13-1.2.31-.66.19-1.05.32-.7.23-1,.35-.29.1-.26.1c-.74.28-1.47.58-2.18.89l0,0c-.7.31-1.38.64-2,1l-.42.22c-.65.34-1.28.7-1.89,1.07l-.32.2c-.56.34-1.1.7-1.62,1.06l-.19.13-.08.06c-.44.31-.86.63-1.26,1s-.81.67-1.2,1l-.37.34-.74.68-.41.42c-.21.21-.42.41-.62.62l-.41.46c-.18.2-.37.4-.54.6l-.39.47c-.16.2-.33.4-.48.6s-.25.33-.37.49l-.43.6-.33.5c-.13.2-.26.4-.38.6s-.2.34-.3.51-.23.4-.34.6l-.11.19-.09.2c-.23.44-.44.88-.63,1.33a1.54,1.54,0,0,0-.08.19c-.21.5-.39,1-.55,1.49,0,.12-.08.24-.11.36-.15.47-.27.94-.38,1.4l0,.14c-.11.5-.19,1-.26,1.52a.86.86,0,0,0,0,.17c0,.06,0,.13,0,.19q-.09.78-.12,1.56h0l-.85,27c0-.52.06-1,.12-1.56,0-.12,0-.24,0-.37.07-.5.15-1,.26-1.51,0-.05,0-.1,0-.14.1-.47.23-.94.37-1.4,0-.12.08-.24.11-.36.17-.5.35-1,.55-1.49l.09-.2c.19-.44.4-.88.62-1.32.07-.13.13-.26.21-.4s.22-.39.33-.59l.3-.52c.13-.2.26-.39.38-.59l.34-.51.43-.59.36-.49.48-.6.39-.47.54-.61c.14-.15.27-.3.42-.45s.4-.41.61-.62l.42-.42c.23-.23.48-.45.73-.68l.38-.34c.38-.34.78-.67,1.19-1s.83-.64,1.26-1l.27-.19C442.61,133.05,443.15,132.69,443.71,132.34Z"/><polygon class="cls-1" points="500.23 129.15 499.37 156.18 487 146.54 487.85 119.5 500.23 129.15"/><polygon class="cls-1" points="487.85 119.5 487 146.54 469.65 160.45 470.5 133.41 487.85 119.5"/><polygon class="cls-3" points="470.5 133.41 469.65 160.45 457.88 151.28 458.74 124.24 470.5 133.41"/><path class="cls-4" d="M429.34,98.1c9.11-7.31,21.81-11.81,35.87-11.89l.44,12.91c-9,.15-18.32,3.65-24.23,8.39-14.54,11.66-12,27.6,2.38,38.8,11.48,8.95,29.84,13,46.7-.53,5.33-4.27,8.78-8.94,9.73-16.63l-12.38-9.65L470.5,133.41l-11.77-9.17,29.08-23.32,29.43,23c1.19,11.5-2.55,21.92-14.46,31.48-25.49,20.45-53.12,15.3-71.48,1C411.65,141,405.4,117.3,429.34,98.1Z"/><path class="cls-3" d="M516.58,156l.85-27c0,.56,0,1.11-.09,1.66l-.06.53c0,.38-.07.77-.13,1.15,0,.16,0,.32-.07.48-.05.38-.12.77-.19,1.15l-.09.46c-.11.52-.22,1-.36,1.56v0c-.13.5-.28,1-.44,1.5l-.15.46c-.13.37-.26.74-.4,1.11l-.18.46c-.19.47-.38.94-.6,1.4l0,.12c-.22.48-.47,1-.72,1.45-.16.3-.33.59-.5.89s-.29.52-.45.77-.37.6-.57.89-.32.51-.49.76-.43.6-.65.89-.35.5-.54.74-.48.6-.73.9-.38.48-.59.72-.54.61-.82.91-.4.46-.62.69l-.94.94-.64.64c-.37.35-.75.7-1.14,1-.19.18-.38.36-.58.53-.59.52-1.21,1-1.85,1.55s-1.42,1.11-2.13,1.64l-.55.4c-.6.44-1.21.87-1.81,1.28l-.4.28c-.72.48-1.44.94-2.16,1.39l-.56.33c-.55.34-1.11.66-1.67,1-.21.12-.43.25-.65.36-.63.35-1.27.69-1.91,1l-.27.14c-.73.36-1.45.69-2.17,1l-.61.26c-.55.24-1.09.46-1.64.68l-.64.25-1.43.52-1,.34-1.47.45-.87.26c-.58.17-1.16.31-1.74.46l-.58.14c-.78.19-1.55.35-2.32.49l-.35.06c-.63.12-1.25.22-1.88.31l-.76.1-1.47.17-.83.08-1.41.09-.82,0-1.27,0h-1.09l-1.22,0-1.07,0-1.22-.08-1.06-.07-1.21-.14-1-.12c-.54-.07-1.07-.15-1.61-.24l-.49-.08c-.71-.12-1.41-.26-2.1-.41l-.52-.12c-.52-.11-1-.23-1.55-.37l-.75-.2-1.3-.36-.8-.25-1.24-.4-.79-.27-1.25-.46-.73-.28-1.39-.57-.55-.24c-.64-.28-1.28-.57-1.9-.87l-.32-.15c-.52-.26-1-.52-1.55-.79l-.64-.34c-.4-.21-.8-.43-1.19-.66l-.7-.4-1.11-.66-.69-.43c-.37-.23-.73-.47-1.09-.71l-.65-.43c-.39-.26-.77-.53-1.15-.8l-.54-.39c-.55-.4-1.1-.81-1.64-1.23-8.95-7-15.12-15.7-16.92-25a28.58,28.58,0,0,1-.53-6.46L413,152c-.37,11.6,6.44,22.83,17.46,31.42.54.42,1.08.83,1.64,1.23l.54.39,1.14.79.66.44,1.08.7.7.44,1.1.65.71.41,1.18.66.65.34,1.53.78.33.16c.63.3,1.26.59,1.9.87l.57.24,1.37.56.74.28c.41.16.83.32,1.24.46l.79.28,1.24.4.8.24,1.31.37.74.2,1.55.37.53.12c.69.15,1.39.29,2.09.41l.5.08c.46.07.91.15,1.37.21l.24,0c.34,0,.69.08,1,.12s.8.1,1.21.13l1.06.08,1.21.08,1.07,0,1.23,0h1.92l.43,0,.82,0,1.41-.1.84-.07,1.47-.17.76-.1c.62-.09,1.25-.2,1.87-.31l.35-.06h.05c.76-.14,1.52-.3,2.27-.48.2,0,.4-.1.6-.15.58-.14,1.15-.29,1.73-.45l.87-.26,1.46-.46c.32-.1.64-.22,1-.33l1-.37.39-.15.64-.25,1.65-.68.6-.27c.73-.32,1.45-.66,2.17-1l.28-.15c.64-.32,1.27-.65,1.91-1l.65-.36c.56-.31,1.11-.64,1.66-1l.57-.34c.72-.44,1.43-.9,2.15-1.38l.41-.28,1.25-.87c.19-.13.37-.27.55-.41l.55-.4c.71-.53,1.42-1.07,2.13-1.64s1.26-1,1.86-1.55l.57-.53c.39-.34.78-.69,1.14-1s.43-.42.64-.64l.94-.94c.22-.23.42-.46.63-.69s.56-.61.82-.91l.59-.72.73-.9c.19-.25.36-.49.54-.74s.44-.59.64-.89.34-.51.5-.76.39-.59.57-.89l.44-.77.5-.89.1-.18c.22-.43.43-.85.63-1.28a1.17,1.17,0,0,0,0-.11c.21-.46.41-.93.6-1.4.06-.15.12-.31.17-.46.15-.37.28-.74.4-1.12.06-.15.11-.3.16-.46.16-.49.3-1,.44-1.49,0,0,0,0,0,0q.2-.78.36-1.56c0-.15,0-.31.08-.46.08-.39.14-.77.2-1.15,0-.17,0-.33.07-.49s0-.19,0-.29c0-.28.06-.57.09-.85s0-.35.05-.53C516.53,157.11,516.56,156.55,516.58,156Z"/><path class="cls-5" d="M127.74,422.25l.76.84a3.12,3.12,0,1,1-4.65,4.16l-.76-.85-.76-.84a3.12,3.12,0,0,0-4.65,4.15l.76.85.76.85a3.12,3.12,0,0,1-4.66,4.15l-.75-.84-.76-.85a3.12,3.12,0,1,0-4.65,4.16l.76.84.75.85a3.12,3.12,0,0,1-4.65,4.16l-.75-.85-.76-.85a3.12,3.12,0,0,0-4.65,4.16l.76.85"/><path class="cls-5" d="M443.77,1.5l.75.85a3.12,3.12,0,1,1-4.65,4.15l-.75-.84-.76-.85A3.12,3.12,0,1,0,433.71,9l.76.84.75.85a3.12,3.12,0,1,1-4.65,4.15l-.75-.84-.76-.85a3.12,3.12,0,0,0-4.65,4.16l.75.85.76.84a3.12,3.12,0,0,1-4.65,4.16l-.76-.85-.75-.84a3.12,3.12,0,1,0-4.65,4.15l.75.85"/><polyline class="cls-6" points="42.8 231.77 1.5 265.12 42.8 297.32"/><path class="cls-6" d="M525.45,191.5c24.36-19.54,14.66-41.57-2.52-55.44"/><path class="cls-6" d="M112.77,138.77c-5.36-4.33-14.43-6.71-21.83-.77s-4.31,13.18,1.28,17.32c5.44,4,13.91,6.24,21.31.3s4.46-12.64-.76-16.85"/><path class="cls-6" d="M557.71,76.33c-5.37-4.32-14.43-6.7-21.83-.76s-4.31,13.17,1.28,17.32,13.91,6.23,21.31.29,4.46-12.63-.76-16.85"/><polygon class="cls-6" points="295.31 394.96 308.5 405.14 295.18 415.83 281.99 405.64 295.31 394.96"/></g></g></svg>