<svg xmlns="http://www.w3.org/2000/svg" viewBox="0 0 394.27 260.64"><defs><style>.cls-1{fill:#620517;}.cls-2{isolation:isolate;}</style></defs><title>Asset 2</title><g id="Layer_2" data-name="Layer 2"><g id="Layer_1-2" data-name="Layer 1"><path class="cls-1" d="M32.37,206.74l3.67-2.9,14.25,13.65-3.61,2.85-2.27-1.85c.79,2.3-.82,5-2.52,6.37l-.08.07c-4.55,3.58-10.51,3.74-15.48-1s-3.94-9.91.54-13.44l.08-.06a8.5,8.5,0,0,1,7.25-1.69Zm6.72,14.67c6-4.75-2.6-13-8.64-8.27-2.55,2-3,5.13-.28,7.73a6.64,6.64,0,0,0,8.92.54"/><polygon class="cls-1" points="4.12 218.54 24.36 237.92 20.24 241.17 0 221.79 4.12 218.54"/><path class="cls-1" d="M100.68,152.15c5.19-4.09,11.38-3.81,16.65,2.27L105.22,164c2,1.49,5,1.4,7.66-.73,1.42-1.12,2.78-3,2.82-4.55l4.68.2c-.08,2.78-2,5.61-4.35,7.47-5.34,4.21-11.56,3.81-16.13-.57C95.57,161.63,95.65,156.11,100.68,152.15Zm1.69,9,8.37-6.6c-2.11-1.57-4.61-1.21-6.81.52s-2.85,3.86-1.56,6.08"/><path class="cls-1" d="M80.11,158.72l3.83-3,20.21,19.35-3.58,2.83-2.22-1.69c.5,2.58-.83,4.64-2.72,6.13a11.42,11.42,0,0,1-15.45-.85c-4.91-4.71-4.09-9.79.44-13.36,1.63-1.29,5-2.52,7.38-1.83ZM92.62,179a4.74,4.74,0,0,0,.3-7.56,6.67,6.67,0,0,0-8.66-.44c-2.45,1.93-2.81,5-.24,7.46a6.56,6.56,0,0,0,8.6.54"/><polygon class="cls-1" points="78.47 230.91 87.39 248.9 82.93 252.42 77.11 249.64 70.95 246.16 74.34 251.82 76.95 257.12 72.49 260.64 52.72 251.2 56.99 247.83 71.27 255.3 63.91 242.38 67.28 239.73 81.39 247.32 74.22 234.25 78.47 230.91"/><path class="cls-1" d="M107,208a11.78,11.78,0,0,1,15.54.72c4.11,3.93,4.38,9.52-.65,13.48a11.57,11.57,0,0,1-15.48-.76C102.33,217.5,102.07,211.86,107,208Zm11.65,11.1c2.8-2.2,2.19-5.25,0-7.33s-5.85-2.75-8.43-.72c-2.77,2.18-2.13,5.31,0,7.36s5.6,2.9,8.4.69"/><path class="cls-1" d="M79.58,219.64l7.92,7.58a6.31,6.31,0,0,1,2.7-5.87c4.41-3.47,9.1-2.37,13.29,1.64l7.52,7.2-3.83,3L99.69,226c-2.61-2.49-5.18-2.37-7.23-.76-2.25,1.78-2.07,4.71.07,6.75l7.29,7L96,242,75.75,222.66Z"/><path class="cls-1" d="M46.94,194.8a7,7,0,0,1,7.25-1.07c-.64-3,.57-5,2.58-6.58,4.41-3.48,9.07-2.8,13.34,1.3l7.69,7.36-3.83,3-7.7-7.36c-1.87-1.8-4.31-2.65-6.38-1s-1.72,4.23.16,6l7.63,7.31-3.83,3-7.63-7.31c-1.89-1.8-4.66-2.59-6.77-.93s-1.59,4.23.29,6l7.63,7.3-3.84,3L39.25,201.26l3.55-2.8,2,1.44C44.19,197.87,45.47,196,46.94,194.8Z"/><ellipse class="cls-1" cx="125.24" cy="126.55" rx="2.66" ry="3.06" transform="matrix(0.01, -1, 1, 0.01, -2.4, 250.68)"/><path class="cls-1" d="M160.43,105.43c3.65-2.87,9.09-2.77,13.57,1.51l7.49,7.18-3.84,3L170.19,110c-2.17-2.08-5.1-2.64-7.55-.71s-2.14,4.87,0,6.94l7.28,7-3.81,3-14.28-13.68,3.43-2.7,2.19,1.66A7.66,7.66,0,0,1,160.43,105.43Z"/><g class="cls-2"><polygon class="cls-1" points="141.59 145.56 127.28 131.85 131.12 128.82 145.43 142.53 141.59 145.56"/><path class="cls-1" d="M156.3,120.89c1.76,1.69,3.52,4.64,2,7.67a7.84,7.84,0,0,1,7.92,2c3.93,3.76,3.08,8.67-1.41,12.21s-10.37,3.78-14.22.1l3.8-3c1.86,1.77,4.92,1.47,7.13-.27s2.82-4.15.86-6-4.87-1.15-6.79.36c-4.85,3.82-10.58,3.59-15-.68s-3.71-9.69.64-13.11a8.64,8.64,0,0,1,4.36-2l-.26-2.94,4.8-.34.29,3.3A9.61,9.61,0,0,1,156.3,120.89Zm-3.87,10c2.2-1.73,2.52-4.6.06-7a6.1,6.1,0,0,0-8-.68c-2.24,1.76-2.54,4.67-.05,7a6,6,0,0,0,8,.59"/></g><path class="cls-1" d="M117.72,138.77a12,12,0,0,1,7.92-3l.17,3.9a7.6,7.6,0,0,0-5.11,1.8c-1.82,1.44-2.31,2.73-1.41,3.59s2.36.66,4.46-.79c3.09-2.13,7.41-4.47,11.2-.85,2.51,2.41,2.45,6.25-2,9.74a13.24,13.24,0,0,1-9.72,3.21l-.63-3.89a12.56,12.56,0,0,0,7.34-2.31l.09-.07c1.41-1.11,2-2.79,1-3.77s-2.27-.63-4.58,1c-3.13,2.11-7.6,3.92-10.84.82S114.89,141,117.72,138.77Z"/><path class="cls-1" d="M177.64,91.51c5.19-4.09,11.38-3.81,16.65,2.27l-12.1,9.54c2,1.5,4.95,1.4,7.65-.73,1.42-1.12,2.78-3,2.82-4.55l4.68.21c-.08,2.78-2,5.6-4.35,7.46-5.34,4.21-11.56,3.81-16.13-.57C172.53,101,172.61,95.47,177.64,91.51Zm1.69,9,8.37-6.59c-2.11-1.58-4.61-1.22-6.81.51s-2.85,3.86-1.56,6.08"/><path class="cls-1" d="M196.69,76.6A8.59,8.59,0,0,1,202,74.76l1.34,4.29a5.61,5.61,0,0,0-3.7,1.3c-2,1.58-2.88,4-.25,6.51l7.52,7.2-3.84,3L188.86,83.43l3.55-2.8L194.34,82C193.77,79.36,195.12,77.84,196.69,76.6Z"/><path class="cls-1" d="M215.49,81.16a3.27,3.27,0,0,1,4.32.14c.35.33.3.22,2.92,5.26l-2.17,1.71-2.26-3.21a2.45,2.45,0,0,1-3-.33A2.21,2.21,0,0,1,215.49,81.16Z"/><path class="cls-1" d="M130.69,179.41l3.84-3,20.21,19.36-3.58,2.82-2.22-1.68c.51,2.57-.83,4.64-2.72,6.13a11.4,11.4,0,0,1-15.44-.86c-4.92-4.71-4.1-9.8.43-13.36,1.63-1.29,5-2.52,7.37-1.83Zm12.52,20.27a4.74,4.74,0,0,0,.3-7.56,6.65,6.65,0,0,0-8.66-.44c-2.45,1.93-2.81,5-.24,7.45a6.56,6.56,0,0,0,8.6.55"/><polygon class="cls-1" points="201.08 134.3 210 152.29 205.54 155.81 199.71 153.03 193.56 149.56 196.95 155.21 199.56 160.52 195.1 164.04 175.33 154.59 179.6 151.23 193.88 158.69 186.52 145.77 189.88 143.12 204 150.72 196.83 137.65 201.08 134.3"/><path class="cls-1" d="M169.75,159l3.69-2.91,14.25,13.66-3.62,2.85-2.27-1.85c.79,2.3-.81,5-2.51,6.37l-.08.07c-4.55,3.58-10.51,3.73-15.49-1s-3.94-9.91.56-13.46l.07,0a8.45,8.45,0,0,1,7.24-1.67Zm6.74,14.68c6-4.76-2.6-13-8.65-8.28-2.54,2-3,5.14-.28,7.74a6.68,6.68,0,0,0,8.93.54"/><path class="cls-1" d="M151.65,172.64a8.65,8.65,0,0,1,5.35-1.85l1.34,4.3a5.6,5.6,0,0,0-3.7,1.29c-2,1.59-2.89,4-.25,6.51l7.52,7.2-3.84,3-14.25-13.65,3.55-2.8L149.3,178C148.73,175.39,150.08,173.88,151.65,172.64Z"/><path class="cls-1" d="M210.16,126.49a12,12,0,0,1,7.91-3l.18,3.9a7.63,7.63,0,0,0-5.11,1.8c-1.83,1.44-2.31,2.73-1.41,3.59s2.35.66,4.45-.79c3.1-2.13,7.42-4.48,11.2-.85,2.52,2.41,2.45,6.25-2,9.74a13.2,13.2,0,0,1-9.71,3.21l-.63-3.89a12.49,12.49,0,0,0,7.34-2.31l.09-.07c1.41-1.11,2-2.79,1-3.76s-2.27-.64-4.58,1c-3.13,2.12-7.6,3.93-10.84.83S207.33,128.72,210.16,126.49Z"/><path class="cls-1" d="M238.41,104.93l3.69-2.9,14.25,13.65-3.62,2.85-2.27-1.85c.79,2.3-.81,5-2.51,6.37l-.08.07c-4.55,3.58-10.51,3.73-15.49-1s-3.94-9.91.56-13.46l.07,0a8.48,8.48,0,0,1,7.24-1.67Zm6.74,14.68c6-4.76-2.6-13-8.65-8.28-2.54,2-3,5.14-.28,7.74a6.68,6.68,0,0,0,8.93.54"/><g class="cls-2"><path class="cls-1" d="M389.1,4.31a3.25,3.25,0,0,1,4.32.19,2.34,2.34,0,0,1-.21,3.76,3.24,3.24,0,0,1-4.32-.19A2.34,2.34,0,0,1,389.1,4.31Z"/><path class="cls-1" d="M366.94,3a12,12,0,0,1,7.91-3L375,3.9a7.6,7.6,0,0,0-5.11,1.8c-1.83,1.44-2.31,2.73-1.41,3.59s2.35.66,4.45-.79c3.1-2.13,7.42-4.48,11.2-.85,2.52,2.41,2.45,6.24-2,9.74a13.2,13.2,0,0,1-9.71,3.21l-.63-3.89a12.49,12.49,0,0,0,7.34-2.31l.09-.07c1.41-1.11,2-2.79,1-3.76s-2.27-.64-4.58,1c-3.13,2.11-7.6,3.92-10.84.82S364.11,5.19,366.94,3Z"/></g><path class="cls-1" d="M349.9,16.33c5.19-4.09,11.38-3.82,16.65,2.28l-12.11,9.53c2,1.49,4.95,1.4,7.65-.73,1.42-1.12,2.79-3.05,2.83-4.55l4.68.21c-.07,2.77-2,5.6-4.36,7.46-5.34,4.21-11.55,3.81-16.11-.57C344.79,25.81,344.87,20.29,349.9,16.33Zm1.69,9L360,18.71c-2.1-1.57-4.6-1.22-6.8.51s-2.84,3.86-1.56,6.08"/><path class="cls-1" d="M329.32,22.9l3.84-3,20.21,19.36-3.59,2.82-2.22-1.68c.52,2.57-.82,4.64-2.71,6.12a11.41,11.41,0,0,1-15.45-.85c-4.91-4.7-4.09-9.79.44-13.36,1.63-1.29,5-2.52,7.37-1.83Zm12.52,20.28a4.75,4.75,0,0,0,.3-7.56,6.65,6.65,0,0,0-8.66-.44c-2.45,1.93-2.81,5-.24,7.45a6.56,6.56,0,0,0,8.6.55"/><path class="cls-1" d="M312,46.47a11.79,11.79,0,0,1,15.55.72c4.1,3.93,4.38,9.52-.66,13.48a11.57,11.57,0,0,1-15.47-.77C307.31,56,307,50.36,312,46.47Zm11.66,11.1c2.8-2.21,2.19-5.26,0-7.33s-5.86-2.75-8.43-.72c-2.77,2.18-2.13,5.31,0,7.36a6.32,6.32,0,0,0,8.41.69"/><path class="cls-1" d="M296.58,58.39A10.85,10.85,0,0,1,304.29,56l-.08,4.16A6.79,6.79,0,0,0,300,61.53c-2.58,2-2.73,5.18-.25,7.56a6.34,6.34,0,0,0,8.57.52,5.23,5.23,0,0,0,2.21-3.82l4.89.19a8.85,8.85,0,0,1-3.72,6.86c-4.49,3.55-10.72,4.12-15.78-.73S292.09,61.94,296.58,58.39Z"/><path class="cls-1" d="M270.19,69.5l3.83-3,20.21,19.35-3.58,2.82L288.43,87c.51,2.57-.83,4.64-2.72,6.13a11.39,11.39,0,0,1-15.44-.86c-4.91-4.7-4.1-9.79.43-13.36,1.64-1.29,5-2.52,7.38-1.82ZM282.7,89.77a4.74,4.74,0,0,0,.3-7.56,6.64,6.64,0,0,0-8.65-.44c-2.46,1.93-2.81,5-.24,7.45a6.55,6.55,0,0,0,8.59.55"/><path class="cls-1" d="M253.77,92.42c3.65-2.87,9.1-2.77,13.58,1.52l7.49,7.17-3.84,3L263.54,97c-2.17-2.08-5.11-2.65-7.56-.72s-2.14,4.87,0,7l7.29,7-3.8,3L245.21,99.53l3.43-2.7,2.18,1.66A7.74,7.74,0,0,1,253.77,92.42Z"/></g></g></svg>