<svg xmlns="http://www.w3.org/2000/svg" xmlns:xlink="http://www.w3.org/1999/xlink" viewBox="0 0 190.94 142.1"><defs><style>.cls-1{fill:none;}.cls-2{isolation:isolate;}.cls-3{fill:#51dddf;}.cls-12,.cls-3{stroke:#690519;stroke-linecap:round;stroke-linejoin:round;stroke-width:2px;}.cls-4{clip-path:url(#clip-path);}.cls-5{fill:#410310;}.cls-6{fill:#3f030f;}.cls-7{fill:#3d030f;}.cls-8{clip-path:url(#clip-path-2);}.cls-9{fill:#37030d;}.cls-10{fill:#460311;}.cls-11{clip-path:url(#clip-path-3);}.cls-12{fill:#ffc0c7;}</style><clipPath id="clip-path"><path class="cls-1" d="M75.36,110.81l0-6.21a1.41,1.41,0,0,1,.59-1.09l-.06,6.2A1.4,1.4,0,0,0,75.36,110.81Z"/></clipPath><clipPath id="clip-path-2"><path class="cls-1" d="M105.92,109.12l-.06,6.21a1.42,1.42,0,0,0-.59-1.13l.06-6.21A1.45,1.45,0,0,1,105.92,109.12Z"/></clipPath><clipPath id="clip-path-3"><path class="cls-1" d="M88.63,121.2l.06-6.2a1.41,1.41,0,0,1,.58-1.1l-.06,6.21A1.44,1.44,0,0,0,88.63,121.2Z"/></clipPath></defs><title>Asset 3</title><g id="Layer_2" data-name="Layer 2"><g id="Layer_5" data-name="Layer 5"><g class="cls-2"><path class="cls-3" d="M78.55,89.61a8.07,8.07,0,0,0-1-.64l-.33-.16c-.26-.12-.53-.23-.8-.33l-.36-.12a8,8,0,0,0-1-.22l-.21,0h-.06A10.92,10.92,0,0,0,73.68,88h-.3c-.23,0-.47,0-.71.06s-.33,0-.49,0h-.06c-.27,0-.52.12-.79.19l-.42.1h0a8,8,0,0,0-1,.44l-.18.09-.16.08a6.38,6.38,0,0,0-1.42,1.07l-.14.15a3.59,3.59,0,0,0-.32.38l-.14.18c-.1.14-.19.28-.28.43s0,.08-.07.13a4.29,4.29,0,0,0-.26.58l0,0,0,.13a2.77,2.77,0,0,0-.12.41,1.55,1.55,0,0,0,0,.21c0,.12,0,.25-.05.38a.5.5,0,0,1,0,.12v.21l-.06,6.21c0-.11,0-.22,0-.33s0-.26,0-.39a1.77,1.77,0,0,0,0-.2,3.31,3.31,0,0,1,.12-.42s0-.1,0-.16a4.92,4.92,0,0,1,.26-.58.83.83,0,0,1,.08-.12c.08-.15.17-.29.27-.44l.14-.17a3.79,3.79,0,0,1,.32-.38l.15-.16a6.35,6.35,0,0,1,.54-.48,6.93,6.93,0,0,1,1-.66l.18-.09a7.25,7.25,0,0,1,1.08-.45l.42-.1c.28-.07.57-.15.85-.2l.5,0a7.91,7.91,0,0,1,.84-.06h.16a8.08,8.08,0,0,1,1.2.09l.21,0c.33.06.65.14,1,.23l.36.12c.28.1.54.21.8.33l.33.16a7.39,7.39,0,0,1,1,.64,5,5,0,0,1,2.07,4l.06-6.21A5,5,0,0,0,78.55,89.61Z"/><g class="cls-2"><g class="cls-4"><g class="cls-2"><path class="cls-5" d="M76,103.51l-.06,6.2a1.55,1.55,0,0,0-.51.68l.06-6.21a1.47,1.47,0,0,1,.51-.67"/><path class="cls-6" d="M75.49,104.18l-.06,6.21a1.15,1.15,0,0,0-.07.36l.06-6.21a1.15,1.15,0,0,1,.07-.36"/><path class="cls-7" d="M75.42,104.54l-.06,6.21v.06l0-6.21a.13.13,0,0,1,0-.06"/></g></g></g><path class="cls-3" d="M102.48,105.76a2.46,2.46,0,0,0-.45-.25l-.11-.05a2.62,2.62,0,0,0-.5-.13h-.12l-.27,0h0l-.2,0h-.16l-.22,0-.13,0h0l-.06,0-.31.13,0,0a1.32,1.32,0,0,0-.25.16l-1.41,1.11L86.37,97.59a2.2,2.2,0,0,0-.45-.26l-.11,0a2.09,2.09,0,0,0-.49-.13h-.43l-.19,0h-.17l-.21,0-.13,0h0l-.06,0a2.08,2.08,0,0,0-.3.13l0,0-.25.16L76,103.51l-.06,6.2,7.54-5.92a1.67,1.67,0,0,1,.28-.18l.3-.13.08,0,.12,0,.24,0,.14,0h.62a2.85,2.85,0,0,1,.5.14l.11,0a2,2,0,0,1,.45.26l11.85,9.28L99.58,112a1.67,1.67,0,0,1,.28-.18,1.69,1.69,0,0,1,.31-.13.15.15,0,0,1,.07,0l.12,0a2.1,2.1,0,0,1,.24-.06h.14l.23,0,.27,0h.13a2.09,2.09,0,0,1,.49.13l.12,0a2.38,2.38,0,0,1,.44.25l2.85,2.23.06-6.21Z"/><g class="cls-2"><g class="cls-8"><g class="cls-2"><path class="cls-9" d="M105.92,109.12l-.06,6.21a1.42,1.42,0,0,0-.59-1.13l.06-6.21a1.45,1.45,0,0,1,.59,1.13"/></g></g></g><polygon class="cls-10" points="90.69 112.79 90.63 119 89.22 120.11 89.27 113.9 90.69 112.79"/><g class="cls-2"><g class="cls-11"><g class="cls-2"><path class="cls-5" d="M89.27,113.9l-.06,6.21a1.58,1.58,0,0,0-.5.67l.06-6.2a1.52,1.52,0,0,1,.5-.68"/><path class="cls-6" d="M88.77,114.58l-.06,6.2a1.55,1.55,0,0,0-.08.36l.06-6.2a1.05,1.05,0,0,1,.08-.36"/><path class="cls-7" d="M88.69,114.94l-.06,6.2v.06l.06-6.2v-.06"/></g></g></g><path class="cls-3" d="M126.37,104.17c0,.57-.09,1.15-.16,1.72l0,.2c-.07.51-.16,1-.26,1.52l-.12.56c-.09.39-.18.77-.29,1.15-.05.21-.11.42-.17.62-.11.38-.24.75-.37,1.13-.06.19-.13.38-.2.57q-.3.81-.66,1.62a.49.49,0,0,1,0,.11c-.26.57-.54,1.13-.84,1.69-.09.17-.18.34-.28.5-.22.4-.46.8-.7,1.2-.11.18-.23.36-.35.54-.27.42-.55.83-.85,1.24l-.28.39c-.4.53-.82,1.06-1.26,1.57l-.31.35c-.35.4-.71.8-1.08,1.19l-.49.49c-.35.35-.72.7-1.1,1l-.48.44c-.54.48-1.1,1-1.68,1.4s-1.47,1.1-2.23,1.62l-.49.33c-.75.49-1.51,1-2.29,1.4l-.62.34c-.4.22-.8.44-1.2.64l-.74.36-1.18.55-.77.34-1.22.49-.76.3-1.34.47-.69.23-.81.25c-.34.1-.68.21-1,.3l-.84.22-1,.26-.86.19-1,.22-.88.16-1,.17-.87.13-1,.14-.88.09-1,.1-.88.07-1.05.05-.89,0h-1q-.57,0-1.14,0h-.93l-1.14,0-.92-.05-1.15-.09-.91-.09-1.15-.14-.83-.11c-.88-.13-1.75-.28-2.62-.45l-.52-.11c-.77-.16-1.52-.34-2.27-.54l-.49-.12c-.85-.23-1.69-.48-2.53-.75l-.55-.19c-.75-.26-1.49-.53-2.22-.82l-.36-.14c-.82-.34-1.61-.69-2.4-1.07l-.55-.27c-.74-.36-1.46-.74-2.17-1.14l-.21-.12c-.76-.43-1.5-.9-2.23-1.38l-.52-.35c-.73-.49-1.45-1-2.14-1.55-8.23-6.44-12.31-14.9-12.23-23.34l-.05,6.21c-.08,8.43,4,16.9,12.22,23.34.7.54,1.41,1.05,2.14,1.55l.52.35c.73.48,1.47.94,2.23,1.38l.21.11c.71.41,1.44.78,2.17,1.15l.55.27c.79.37,1.59.73,2.4,1.06l.37.15c.73.29,1.46.56,2.21.81l.56.19c.83.28,1.67.53,2.52.76l.49.12c.75.2,1.51.37,2.27.53l.53.12c.86.17,1.74.32,2.61.44l.2,0,.63.08,1.15.14.92.08q.57.06,1.14.09l.92.06,1.14,0,.93,0q.57,0,1.14,0c.18,0,.35,0,.52,0l.46,0,.88,0,1-.06.88-.06,1-.1.88-.09,1-.14.87-.13.36-.05.68-.12.87-.16,1-.22.86-.19,1-.26.85-.22,1-.3.82-.25.16,0,.52-.19c.45-.15.9-.3,1.34-.47l.76-.29,1.22-.49.77-.34,1.18-.55.74-.36,1.2-.64.5-.26.12-.08c.78-.44,1.55-.91,2.29-1.41.17-.1.33-.21.49-.32.76-.52,1.51-1.05,2.23-1.62s1.14-.93,1.68-1.4l.48-.45c.38-.34.75-.69,1.1-1l.49-.5c.37-.38.73-.78,1.08-1.18.11-.12.22-.23.32-.35.44-.52.85-1,1.25-1.57l.28-.39c.3-.41.58-.83.86-1.24.11-.18.23-.36.34-.55.25-.39.48-.79.71-1.19.09-.17.19-.33.27-.5.3-.56.59-1.13.84-1.7a.93.93,0,0,0,0-.1c.24-.54.45-1.08.66-1.63l.07-.18c0-.13.08-.26.13-.39.13-.37.25-.74.36-1.12l.18-.62c.1-.38.19-.77.28-1.15,0-.19.09-.38.12-.57.1-.5.19-1,.26-1.51l0-.2c.08-.58.13-1.15.17-1.72,0,0,0-.09,0-.13,0-.42,0-.84,0-1.25l.06-6.21Q126.42,103.48,126.37,104.17Z"/><path class="cls-12" d="M55.58,79.39C71.72,66.72,98,66.76,114.2,79.46s16.31,33.29.17,46S72,138.06,55.76,125.35,39.44,92.06,55.58,79.39ZM105.33,108l-2.85-2.23a2.43,2.43,0,0,0-2.84,0l-1.41,1.11L86.37,97.59a2.42,2.42,0,0,0-2.83,0L76,103.51a1.35,1.35,0,0,0,0,2.22L78.85,108a2.42,2.42,0,0,0,2.84,0l1.41-1.11,7.59,5.94-1.42,1.11a1.36,1.36,0,0,0,0,2.23l2.85,2.23a2.43,2.43,0,0,0,2.84,0l10.36-8.14a1.36,1.36,0,0,0,0-2.23M68.62,89.6a4.7,4.7,0,0,0,0,7.78,8.45,8.45,0,0,0,9.93,0,4.72,4.72,0,0,0,0-7.79,8.45,8.45,0,0,0-9.93,0"/></g><polygon class="cls-12" points="33.81 45.56 15.63 27.38 1 42 19.18 60.19 12.05 67.32 43.53 69.91 40.94 38.42 33.81 45.56"/><polygon class="cls-12" points="110.38 30.77 116.27 5.74 96.14 1 90.24 26.03 80.42 23.71 94.78 51.85 120.2 33.08 110.38 30.77"/><polygon class="cls-12" points="167.05 84.9 189.94 73.19 180.52 54.78 157.63 66.48 153.04 57.5 140.89 86.67 171.65 93.88 167.05 84.9"/></g></g></svg>