<svg xmlns="http://www.w3.org/2000/svg" viewBox="0 0 799.02 466.07"><defs><style>.cls-1{fill:#ffc0c7;}.cls-1,.cls-3,.cls-4,.cls-5,.cls-6{stroke:#690519;stroke-linecap:round;stroke-width:3px;}.cls-1,.cls-3,.cls-4,.cls-6{stroke-linejoin:round;}.cls-2{fill:#8d5311;}.cls-3{fill:#51dddf;}.cls-4{fill:#fcce70;}.cls-5,.cls-6{fill:none;}.cls-5{stroke-miterlimit:10;}.cls-6{stroke-dasharray:12;}.cls-7{fill:#620517;}.cls-8{isolation:isolate;}</style></defs><title>Asset 2</title><g id="Layer_2" data-name="Layer 2"><g id="Layer_5" data-name="Layer 5"><polygon class="cls-1" points="291.38 124.57 290.49 152.66 243.15 115.75 244.04 87.66 291.38 124.57"/><polygon class="cls-1" points="334.28 135.95 333.4 164.04 324.72 171 325.61 142.91 334.28 135.95"/><polygon class="cls-2" points="325.61 142.91 324.72 171 234.46 162.15 235.34 134.05 325.61 142.91"/><polygon class="cls-3" points="325.72 142.99 324.83 171.08 234.46 162.15 235.34 134.05 325.72 142.99"/><polygon class="cls-4" points="257.99 76.46 334.28 135.95 325.61 142.91 235.34 134.05 286.72 174.11 272.76 185.3 196.58 125.9 207.89 116.83 291.38 124.57 244.04 87.66 257.99 76.46"/><polygon class="cls-1" points="286.72 174.11 285.83 202.2 271.88 213.39 272.76 185.3 286.72 174.11"/><polygon class="cls-3" points="272.76 185.3 271.88 213.39 195.69 153.99 196.58 125.9 272.76 185.3"/><polygon class="cls-1" points="413.17 207.02 412.29 235.12 364.94 198.2 365.82 170.11 413.17 207.02"/><polygon class="cls-1" points="456.08 218.41 455.19 246.5 446.52 253.45 447.4 225.36 456.08 218.41"/><polygon class="cls-2" points="447.4 225.36 446.52 253.45 356.25 244.6 357.13 216.5 447.4 225.36"/><polygon class="cls-3" points="447.51 225.44 446.62 253.54 356.25 244.6 357.13 216.5 447.51 225.44"/><polygon class="cls-4" points="379.78 158.91 456.08 218.41 447.4 225.36 357.13 216.5 408.51 256.56 394.56 267.75 318.37 208.35 329.68 199.28 413.17 207.02 365.82 170.11 379.78 158.91"/><polygon class="cls-1" points="408.51 256.56 407.62 284.65 393.67 295.85 394.56 267.75 408.51 256.56"/><polygon class="cls-3" points="394.56 267.75 393.67 295.85 317.48 236.44 318.37 208.35 394.56 267.75"/><path class="cls-1" d="M101.75,257.84l.6-.35.72-.39c.21-.1.41-.21.62-.3s.48-.23.72-.33l.63-.26.62-.23c.35-.13.7-.24,1.06-.34a5,5,0,0,1,.55-.16c.4-.11.8-.2,1.19-.28l.4-.09c.51-.09,1-.17,1.54-.23l.27,0q.63-.06,1.26-.09h.45c.43,0,.86,0,1.29,0l.51,0c.47,0,.94.08,1.4.14a2.06,2.06,0,0,1,.26,0c.52.07,1,.16,1.54.27l.4.1c.37.09.74.18,1.11.29.17,0,.34.1.5.15.34.1.67.22,1,.34l.47.17c.39.15.78.32,1.16.49l.23.1c.45.22.89.45,1.32.68l.36.21c.31.18.61.37.91.56l.41.28c.28.19.55.38.81.59l.37.28c.32.26.64.52.94.8l.13.12c.34.31.67.64,1,1l.26.3c.22.24.42.49.62.75s.19.24.28.37.36.5.52.76.16.23.23.35c.21.35.41.71.58,1.06l.05.09c.18.38.34.78.49,1.17l.12.37c.09.28.17.57.24.86,0,.14.07.28.1.43s.1.57.14.87c0,.13,0,.25,0,.39,0,.41.05.83,0,1.26h0l.89-28.09c0-.43,0-.85,0-1.27,0-.13,0-.26-.05-.39,0-.29-.08-.58-.14-.87s-.06-.28-.1-.42a8.47,8.47,0,0,0-.25-.86c0-.12-.07-.25-.11-.37-.15-.39-.31-.79-.5-1.18a.59.59,0,0,1,0-.08c-.18-.36-.37-.71-.58-1.06-.07-.12-.15-.23-.23-.35s-.34-.51-.52-.77-.19-.24-.28-.37-.41-.5-.62-.74l-.26-.3c-.31-.34-.64-.67-1-1l-.13-.12c-.3-.28-.62-.54-.94-.8l-.37-.29c-.26-.2-.53-.39-.81-.58l-.41-.28c-.3-.19-.6-.38-.91-.56l-.36-.21c-.43-.24-.87-.46-1.32-.68l-.23-.1c-.38-.17-.77-.34-1.16-.49l-.47-.17c-.33-.12-.66-.24-1-.34l-.5-.16c-.37-.1-.74-.2-1.11-.28l-.4-.1c-.51-.11-1-.2-1.54-.27h0l-.21,0c-.46-.06-.93-.11-1.4-.14l-.51,0c-.43,0-.86,0-1.3,0h-.44l-1.27.09-.26,0c-.51.06-1,.13-1.54.23h-.08l-.32.08c-.4.08-.8.17-1.19.27l-.56.16c-.35.11-.7.22-1,.35l-.32.1-.31.13-.62.26-.73.33c-.2.09-.41.19-.61.3l-.72.39-.6.35-.71.45-.59.41-.26.17c-.28.2-.55.42-.83.64L79.32,248.2l-.89,28.1,20.93-16.79c.36-.29.72-.55,1.09-.81.19-.14.39-.27.59-.4S101.51,258,101.75,257.84Z"/><path class="cls-1" d="M152.41,242c0,.6-.07,1.19-.14,1.79,0,.2,0,.4-.07.6l-.06.39c0,.31-.11.62-.17.93l-.06.27c-.08.4-.18.79-.29,1.19l-.09.29c-.09.31-.18.61-.29.91,0,.14-.09.27-.14.4-.1.29-.21.57-.32.85l-.15.37c-.17.4-.34.8-.54,1.19v0l-.59,1.13-.41.71c-.12.2-.24.41-.37.61s-.31.48-.47.72l-.41.61-.53.72c-.14.2-.29.4-.44.59s-.4.49-.6.73-.31.39-.48.58l-.67.74-.51.56-.77.77-.52.52c-.29.28-.61.56-.92.84l-.47.43c-.49.42-1,.84-1.51,1.26l-20.93,16.79-.88,28.09,20.92-16.79c.52-.42,1-.84,1.51-1.26l.47-.43c.31-.28.63-.56.92-.84l.52-.52.77-.77c.18-.18.34-.37.51-.56s.46-.49.67-.74.32-.38.48-.58.41-.48.6-.72l.45-.61c.18-.23.36-.47.52-.71s.28-.41.41-.61l.47-.71.37-.62.41-.71a1.09,1.09,0,0,0,.08-.15c.18-.32.35-.65.51-1v0c.2-.4.37-.8.54-1.2l.15-.36.33-.86.13-.39c.11-.31.2-.61.29-.92l.09-.29c.11-.39.21-.79.3-1.19,0-.09,0-.17.05-.26.06-.31.12-.63.17-.94l.06-.39.06-.37c0-.08,0-.15,0-.23.06-.6.12-1.19.14-1.78Z"/><path class="cls-4" d="M86.54,220.72c36.15-29,90.13,12.93,53.87,42l-20.93,16.79L141.91,297l-14,11.19-76.19-59.4C63.4,239.46,74.91,230.05,86.54,220.72Zm40.7,31.74c17.87-14.33-9.23-35.29-27-21L79.32,248.2l27,21.05,20.93-16.79"/><polygon class="cls-1" points="141.91 297 141.02 325.09 127.07 336.29 127.96 308.19 141.91 297"/><polygon class="cls-3" points="127.96 308.19 127.07 336.29 50.88 276.88 51.77 248.79 127.96 308.19"/><polygon class="cls-4" points="158.04 161.2 234.23 220.6 220.38 231.7 144.2 172.31 158.04 161.2"/><polygon class="cls-1" points="234.23 220.6 233.34 248.69 219.5 259.8 220.38 231.7 234.23 220.6"/><polygon class="cls-3" points="220.38 231.7 219.5 259.8 143.31 200.4 144.2 172.31 220.38 231.7"/><path class="cls-1" d="M337.73,56l.34-.21c.63-.38,1.29-.75,2-1.11l.44-.22c.68-.35,1.38-.7,2.1-1l.06,0c.74-.33,1.49-.63,2.26-.92l.58-.22,1-.36.72-.24,1.09-.33.69-.2,1.23-.31.58-.15c.6-.14,1.21-.27,1.83-.38s1.11-.2,1.67-.29l.5-.06c.39-.06.79-.11,1.18-.15.21,0,.43,0,.64-.06s.7-.07,1.05-.09l.69,0,1.29-.05.88-28.09-.62,0c-.22,0-.44,0-.66,0l-.7,0-1,.09c-.21,0-.43,0-.64.06l-1.18.14-.51.07c-.55.08-1.1.18-1.65.28h0q-.92.18-1.83.39l-.57.14-1.23.32-.7.2-1.08.33-.72.24c-.35.12-.69.23-1,.36l-.32.11-.26.11c-.77.29-1.52.59-2.26.91l-.07,0c-.71.32-1.41.66-2.09,1-.15.07-.3.14-.44.22-.67.36-1.33.73-2,1.11l-.33.21c-.58.36-1.14.72-1.68,1.1l-.19.13-.09.07c-.45.32-.89.65-1.31,1s-.84.68-1.24,1l-.38.36-.77.71-.43.43-.64.64-.43.48c-.19.2-.38.41-.56.62l-.41.49-.49.62c-.14.17-.26.34-.38.51s-.31.41-.45.62l-.35.53c-.13.2-.27.41-.39.61l-.32.54-.35.62-.11.19a1.47,1.47,0,0,1-.1.22c-.23.45-.45.91-.64,1.37a1.89,1.89,0,0,0-.09.21c-.22.51-.4,1-.57,1.54l-.12.38c-.15.48-.28,1-.39,1.45l0,.15c-.12.52-.2,1-.27,1.57,0,.06,0,.12,0,.18a1.27,1.27,0,0,1,0,.2c-.06.54-.11,1.08-.13,1.62l-.89,28.09c0-.54.07-1.07.13-1.61,0-.13,0-.26.05-.39.07-.52.15-1,.27-1.57l0-.14c.11-.49.25-1,.39-1.46l.12-.37c.17-.52.35-1,.57-1.55l.09-.21c.19-.46.41-.91.65-1.37.07-.14.13-.27.21-.41s.23-.42.35-.62.2-.36.31-.53.26-.42.4-.63l.34-.52.45-.62c.12-.17.25-.34.38-.5l.5-.63.4-.49c.18-.21.37-.41.56-.62s.28-.32.43-.47l.64-.65.43-.43.77-.71c.13-.12.25-.24.39-.35.4-.35.81-.7,1.24-1s.85-.67,1.3-1l.28-.19Q336.86,56.52,337.73,56Z"/><polygon class="cls-1" points="396.46 52.66 395.57 80.75 382.72 70.72 383.61 42.63 396.46 52.66"/><polygon class="cls-1" points="383.61 42.63 382.72 70.72 364.7 85.18 365.59 57.09 383.61 42.63"/><polygon class="cls-3" points="365.59 57.09 364.7 85.18 352.47 75.64 353.35 47.55 365.59 57.09"/><path class="cls-4" d="M322.81,20.4C332.28,12.8,345.47,8.12,360.08,8l.45,13.42c-9.39.16-19,3.79-25.18,8.72-15.1,12.11-12.44,28.67,2.49,40.31,11.92,9.3,31,13.5,48.52-.55,5.54-4.44,9.12-9.29,10.1-17.28l-12.85-10-18,14.46-12.24-9.54,30.2-24.23,30.58,23.84c1.25,12-2.64,22.79-15,32.72-26.48,21.24-55.18,15.9-74.26,1C304.43,65,297.94,40.34,322.81,20.4Z"/><path class="cls-3" d="M413.45,80.55h0l.89-28.09c0,.58-.06,1.15-.11,1.72,0,.19,0,.37-.05.56,0,.39-.08.79-.13,1.18,0,.17-.05.34-.08.51-.06.4-.13.8-.2,1.19l-.09.48c-.11.54-.23,1.08-.37,1.62v0c-.14.52-.3,1-.46,1.56,0,.16-.11.31-.16.47-.13.39-.27.78-.42,1.16l-.18.49c-.2.48-.4,1-.63,1.45a.37.37,0,0,1-.05.11c-.23.51-.48,1-.75,1.51-.16.31-.34.62-.52.93s-.3.54-.46.8-.39.62-.59.93l-.52.79c-.21.31-.44.61-.67.92s-.36.52-.56.77-.5.62-.76.94l-.61.74c-.27.32-.56.63-.85,1s-.43.48-.65.71-.65.66-1,1-.43.44-.66.66-.79.72-1.19,1.08l-.59.55c-.62.54-1.27,1.08-1.93,1.61s-1.48,1.16-2.22,1.71l-.56.41c-.63.46-1.26.9-1.88,1.33l-.42.29c-.75.5-1.5,1-2.24,1.44l-.59.35c-.57.34-1.15.68-1.72,1l-.68.38c-.66.36-1.33.71-2,1l-.28.15c-.76.37-1.51.72-2.26,1.06l-.63.27c-.57.25-1.14.48-1.71.71l-.66.26-1.49.54-1,.35-1.51.47-.91.27c-.6.17-1.19.32-1.78.47l-.64.16c-.8.19-1.6.36-2.41.51l-.35.06c-.65.12-1.31.22-2,.32l-.79.1-1.52.18-.87.08-1.47.1-.85,0-1.32,0h-1.13q-.63,0-1.26,0c-.38,0-.75,0-1.12,0l-1.26-.08-1.1-.08-1.26-.14-1.08-.13c-.56-.07-1.12-.16-1.67-.25l-.52-.08c-.73-.13-1.45-.27-2.18-.42l-.54-.13-1.61-.38L346.9,92l-1.36-.38-.83-.26L343.42,91l-.82-.29-1.29-.47-.77-.29c-.48-.19-1-.39-1.43-.6l-.58-.24c-.67-.29-1.32-.59-2-.91l-.33-.16c-.54-.26-1.07-.53-1.6-.81l-.67-.36-1.24-.68-.73-.42-1.14-.68-.72-.46c-.38-.24-.76-.48-1.13-.73s-.46-.29-.68-.45l-1.19-.83-.57-.4c-.57-.42-1.14-.84-1.7-1.28-9.3-7.25-15.71-16.32-17.59-25.92a30.3,30.3,0,0,1-.55-6.72l-.88,28.09c-.39,12,6.68,23.72,18.13,32.64.56.44,1.13.86,1.7,1.28l.57.4,1.19.83c.22.16.45.31.68.46l1.13.73.72.45c.38.23.76.46,1.15.68l.72.42,1.24.68c.22.12.44.25.67.36q.79.42,1.59.81l.35.17c.65.31,1.31.61,2,.9l.59.25,1.43.59.76.29,1.3.48.81.28,1.29.42.83.25,1.36.38.77.21c.54.14,1.07.26,1.61.38l.55.13c.72.15,1.44.29,2.17.42l.53.08,1.42.23a2,2,0,0,1,.24,0l1.08.12,1.26.14,1.1.08L358,122l1.12,0,1.27,0h2l.45,0,.86,0,1.46-.1.87-.08q.76-.08,1.53-.18l.78-.1c.66-.09,1.31-.2,2-.32l.35-.06h0c.79-.15,1.58-.31,2.37-.5l.61-.16c.6-.15,1.2-.3,1.8-.47l.91-.27c.5-.15,1-.3,1.51-.47l1-.35c.36-.13.72-.24,1.08-.38l.41-.16.67-.26c.56-.22,1.13-.46,1.7-.71l.63-.27c.75-.33,1.51-.68,2.26-1.06l.29-.15c.66-.33,1.32-.67,2-1l.68-.37c.57-.33,1.15-.66,1.72-1l.59-.35c.75-.46,1.49-.94,2.24-1.44l.42-.29c.43-.3.87-.59,1.3-.9l.58-.43.57-.41c.74-.55,1.47-1.12,2.21-1.71s1.31-1.07,1.93-1.61l.59-.54c.41-.37.81-.73,1.19-1.09s.44-.44.66-.66.67-.66,1-1,.43-.47.65-.71.58-.63.85-1,.41-.5.62-.74l.75-.94c.2-.25.38-.51.57-.77l.67-.92c.18-.26.34-.53.51-.79s.41-.62.59-.92l.47-.81c.17-.31.35-.62.51-.92a1.18,1.18,0,0,1,.11-.19c.22-.44.44-.88.65-1.32a.61.61,0,0,1,.05-.12c.22-.48.42-1,.62-1.45.06-.16.12-.32.19-.49.14-.38.28-.77.41-1.16,0-.15.11-.31.16-.47.17-.52.32-1,.46-1.56v0c.14-.53.26-1.07.37-1.61l.09-.49c.08-.39.14-.79.2-1.19,0-.17.06-.34.08-.5s0-.21,0-.31c0-.29.06-.59.09-.88l.06-.56C413.39,81.7,413.43,81.13,413.45,80.55Z"/><polygon class="cls-3" points="211.47 326.74 210.58 354.83 205.66 367.55 206.55 339.46 211.47 326.74"/><path class="cls-1" d="M206.55,339.46c-.32-.06-.65-.12-1-.16h-.12q-.78-.1-1.62-.15h-.34c-.46,0-.93,0-1.42,0h-.26l-.26,0c-.64,0-1.3.07-2,.15h-.07c-.69.07-1.4.19-2.11.32l-.26,0-.47.1-.65.14-.92.22-.64.16-1,.29-.59.18-1.14.38-.43.16-.06,0-.25.1c-.53.2-1,.41-1.57.64l-.62.28c-.42.19-.84.4-1.26.61l-.64.33c-.43.23-.86.48-1.29.73l-.51.3c-.59.36-1.17.74-1.73,1.14l0,0c-.47.33-.92.67-1.37,1s-.77.64-1.14.95l-.34.3c-.24.22-.49.43-.72.65l-.36.34-.63.62-.32.32-.64.7-.21.22-.75.91-.17.21-.51.69-.21.3-.38.59c-.07.1-.13.21-.2.32s-.23.39-.33.59a1.28,1.28,0,0,0-.11.2.25.25,0,0,0,0,.07c-.15.29-.29.58-.41.87a.69.69,0,0,1,0,.1c-.1.25-.2.5-.28.75l-.09.27c-.06.2-.11.39-.16.58l-.06.28c0,.21-.08.41-.11.61l0,.16v.05c0,.25-.05.49-.06.74L172.79,387c0-.24,0-.49.06-.74l0-.21c0-.2.07-.4.11-.61l.06-.28c0-.19.11-.38.17-.58a2.76,2.76,0,0,1,.08-.27,7.71,7.71,0,0,1,.29-.75l0-.1c.12-.29.26-.58.41-.87l.15-.27.34-.59.19-.32.38-.58a3.46,3.46,0,0,1,.22-.31q.24-.35.51-.69l.16-.21c.24-.3.49-.6.76-.9.06-.08.13-.15.2-.23l.65-.7.31-.32.63-.62.36-.34.72-.65.34-.3,1.14-.95c.46-.37.93-.72,1.41-1.06s1.14-.78,1.73-1.14l.51-.3c.43-.25.86-.5,1.3-.73l.63-.33c.42-.21.84-.42,1.27-.61l.61-.28c.52-.22,1-.44,1.56-.64l.32-.12c.14-.06.29-.1.43-.15q.57-.21,1.14-.39l.59-.18c.33-.1.66-.2,1-.28l.64-.17.93-.22.64-.13.73-.14c.71-.13,1.42-.24,2.11-.32h.07c.67-.07,1.33-.12,2-.14l.51,0c.49,0,1,0,1.43,0h.33q.84,0,1.62.15c.38.05.75.1,1.1.17h0Z"/><path class="cls-3" d="M239.62,365.87a13.8,13.8,0,0,0-1.25-.85l-.08,0a12.42,12.42,0,0,0-1.26-.64l-.13-.06a11.47,11.47,0,0,0-1.28-.46l-.17-.05c-.43-.12-.86-.21-1.31-.29l-.19,0-.21,0c-.41-.06-.83-.1-1.25-.12h0c-.42,0-.85,0-1.28,0H231l-.59,0-1,.09-.64.1-.57.09-.49.11-.35.07c-.5.11-1,.24-1.51.39l-.25.08c-.46.14-.91.29-1.37.45l-.35.12-.23.08c-.46.17-.92.36-1.38.55l-.26.11-1.4.63-.48.23c-.45.21-.9.44-1.36.68l-.32.16c-.56.29-1.12.6-1.68.91l-.42.25-1.33.78-.49.29-1.71,1.08L211,371.74l-.53.33L209,373l-.43.26-1.89,1.08-.42.24-1.52.83-.54.28-1.92,1h0c-.64.32-1.27.62-1.91.92l-.54.24-1.54.68-.44.18c-.64.27-1.27.52-1.91.76l-.54.19c-.39.15-.78.29-1.18.42l-.64.21-1.12.34-.64.19-1.2.31-.54.14c-.57.14-1.15.26-1.73.37l-1.44.24-.44.06c-.33.05-.67.09-1,.12l-.53.05c-.31,0-.62.06-.92.07l-.55,0-1,0H182c-.47,0-.94,0-1.42,0h-.06c-.45,0-.9-.06-1.35-.11l-.45-.05-.88-.11-1.11-.2-.6-.11c-.46-.1-.91-.21-1.37-.33l-.32-.08c-.57-.16-1.13-.34-1.69-.53l-.47-.18c-.41-.15-.81-.3-1.21-.47l-.62-.28-1.08-.5-.65-.34c-.35-.18-.7-.38-1.05-.59l-.64-.37-1.13-.72-.54-.36c-.56-.39-1.11-.79-1.66-1.22-5.83-4.54-8.1-9.8-7.94-15.13l-.88,28.09c-.17,5.33,2.1,10.59,7.93,15.13.55.43,1.11.84,1.66,1.22l.54.36,1.14.72.63.38c.35.2.7.4,1.06.58.21.12.43.23.65.34s.71.34,1.07.5l.62.28c.4.17.8.32,1.21.47l.47.18c.56.2,1.13.37,1.69.53l.32.08c.46.12.92.24,1.37.33l.6.12L177,410l.27,0,.61.07.45.06c.45,0,.89.08,1.34.1h.08c.47,0,.94,0,1.41,0h1.43l.55,0,.92-.07.54-.05,1-.13c.15,0,.3,0,.44-.06.48-.07.95-.15,1.43-.24h0c.58-.11,1.16-.23,1.73-.37l.55-.13,1.19-.32.64-.18,1.13-.35.63-.21c.4-.13.79-.27,1.19-.42l.4-.14.13-.05c.64-.24,1.28-.49,1.92-.76l.43-.18c.52-.22,1-.44,1.54-.68l.54-.24c.64-.3,1.28-.6,1.92-.92h0c.64-.31,1.28-.65,1.92-1l.54-.29,1.52-.83.43-.24c.63-.35,1.25-.71,1.88-1.08l.44-.26,1.5-.9.54-.33,1.86-1.15c.57-.37,1.15-.73,1.72-1.08l.48-.29,1.33-.78.42-.24c.57-.32,1.13-.63,1.68-.92l.32-.16c.46-.24.91-.46,1.37-.68l.47-.23,1.41-.63.25-.11,1.61-.63.35-.12,1.37-.45.25-.08c.51-.15,1-.27,1.51-.39l.35-.07c.35-.08.71-.14,1.06-.2l.65-.1,1-.09c.2,0,.4,0,.59,0a14.06,14.06,0,0,1,1.45,0h0c.49,0,1,.08,1.45.15l.19,0a10.87,10.87,0,0,1,1.31.3l.17.05a11.58,11.58,0,0,1,1.29.45l.12.06a12.42,12.42,0,0,1,1.26.64l.08.05a11.56,11.56,0,0,1,1.25.86,11.34,11.34,0,0,1,2.53,2.64,8,8,0,0,1,1.42,4.85l.89-28.09C243.65,370.68,242.49,368.11,239.62,365.87Z"/><path class="cls-1" d="M261.81,372.3c0,.56-.06,1.12-.13,1.67s-.13.91-.22,1.37l-.06.32q-.15.69-.33,1.38v0c-.13.47-.29.94-.45,1.41,0,.11-.08.21-.11.32-.17.46-.35.92-.55,1.39l-.09.18c-.18.42-.38.85-.59,1.27l-.14.28-.33.6c-.22.41-.46.83-.71,1.24-.12.22-.26.43-.39.64-.24.39-.5.78-.76,1.16l-.43.62q-.47.65-1,1.29c-.11.15-.22.3-.34.44-.45.58-.93,1.14-1.42,1.71l-.34.37c-.39.44-.79.88-1.21,1.31-.18.2-.37.39-.56.58-.36.37-.74.73-1.12,1.1l-.62.59c-.4.37-.81.75-1.23,1.12l-.57.5c-.61.53-1.24,1.05-1.88,1.57s-1.11.87-1.67,1.3l-.47.35c-.44.34-.88.66-1.32,1l-.42.3c-.51.36-1,.72-1.54,1.06l-.06.05c-.49.33-1,.65-1.49,1l-.49.31-1.09.66-.56.33-1.06.6-.54.3-1.31.68-.29.16-1.6.77-.45.2-1.17.51c-.19.09-.39.16-.58.24l-1.09.43-.57.22-1.32.46-.37.13c-.57.18-1.13.35-1.7.51l-.43.12-1.29.33-.59.14-1.2.25-.59.12-.88.15-.69.11-.91.12-.68.08-1,.09-.63.05-1.07.06-.54,0c-.57,0-1.14,0-1.71,0h-.47l-1.27,0-.64,0-1.12-.08-.69-.07-1.11-.13-.65-.09c-.6-.08-1.19-.18-1.79-.29l-.21,0c-.67-.13-1.34-.27-2-.43l-.57-.14c-.51-.12-1-.25-1.54-.4l-.6-.16c-.69-.2-1.38-.41-2.07-.64l-.89,28.09c.7.23,1.38.44,2.07.64l.6.16c.52.15,1,.28,1.54.4l.57.14c.67.16,1.34.3,2,.43l.21,0c.6.11,1.2.21,1.79.29l.25.05.41,0,1.1.13.69.07,1.12.08.64,0,1.27,0H212c.57,0,1.14,0,1.71,0h.05l.49,0c.36,0,.72,0,1.07-.06l.64-.05.95-.09.69-.08.9-.12.69-.11.88-.15.22,0,.37-.08,1.21-.25.58-.14q.64-.15,1.29-.33l.44-.12c.56-.16,1.13-.33,1.69-.51l.36-.12,1.33-.47.22-.08.35-.13,1.1-.44.57-.23,1.18-.52.44-.2,1.61-.77.28-.15c.44-.22.87-.45,1.31-.69l.54-.3c.35-.19.71-.39,1.06-.6l.57-.33,1.07-.66.51-.31,1.48-1,.07,0,1.54-1.07.13-.09.28-.21,1.32-1,.48-.36,1.66-1.3c.65-.52,1.27-1,1.88-1.57l.57-.5,1.24-1.12.62-.59c.38-.36.75-.73,1.11-1.1.19-.19.38-.38.56-.58.42-.43.82-.87,1.21-1.31l.34-.37c.5-.57,1-1.13,1.42-1.71.12-.14.23-.29.34-.44.33-.43.66-.86,1-1.29l.43-.61c.26-.39.52-.78.76-1.17q.21-.31.39-.63c.25-.42.49-.84.71-1.25.08-.14.16-.27.23-.41l.1-.19c.05-.09.09-.19.14-.28.21-.42.41-.84.59-1.27l.09-.18c.2-.46.38-.93.55-1.39l.11-.32c.16-.47.32-.94.45-1.41v0c.13-.47.23-.93.33-1.39,0-.11.05-.21.07-.32q.12-.65.21-1.29v-.07a15.83,15.83,0,0,0,.13-1.68Z"/><path class="cls-4" d="M169.77,337.61c10.87-8.72,25.32-15.28,41.69-10.87l-4.91,12.72c-6.51-1.29-17,1-24.57,7-9.77,7.84-10.25,14.89-4.91,19.05,6.26,4.89,15.19.48,24.59-5.43,16.41-10.24,33.88-18.08,51-4.71,16,12.49,9.14,28.89-6.42,41.37-14.26,11.44-29.75,16.72-48.07,10.63L203.3,394c11,3.69,22.57-.07,31-6.87,8.27-6.64,13.07-15.2,5.27-21.29-6.78-5.28-16.43-1.92-26.73,4.72-16,10.08-33.07,17.6-49.19,5C148.91,364.09,157,348,169.77,337.61Z"/><path class="cls-1" d="M320.91,271.83c-.37-.3-.75-.59-1.13-.88l-.4-.29-.78-.56-.48-.33-.74-.5-.53-.33-.73-.46-.57-.34-.73-.42-.59-.33-.74-.39-.62-.31-.75-.37c-.21-.11-.42-.2-.64-.3l-.76-.35-.66-.28-.78-.31-.66-.26-.8-.3-.67-.23c-.27-.1-.55-.18-.82-.27l-.68-.21-.84-.24-.68-.19-.86-.21-.68-.16c-.3-.07-.59-.13-.89-.18l-.67-.14-.93-.15-.65-.1-.11,0-.75-.09-.76-.09-.87-.07-.77-.06-.88,0-.76,0h-1.72c-.49,0-1,0-1.47.08l-.41,0-1.14.11-.54.07c-.35,0-.69.1-1,.15l-.56.09-.32.06c-.24,0-.48.1-.72.15l-.54.11-1.34.34-.23.06c-.52.14-1,.3-1.56.47l-.46.16c-.28.1-.57.19-.85.3l-.19.07c-.65.25-1.3.51-2,.8a.8.8,0,0,1-.16.08q-.89.41-1.77.87l-.6.33c-.46.25-.92.51-1.37.79l-.61.37c-.53.34-1.06.7-1.59,1.07l-.26.17-.05,0c-.56.4-1.11.82-1.65,1.25s-.86.7-1.26,1.06l-.4.36-.76.7-.44.44-.64.64-.42.46-.56.62c-.14.16-.27.33-.4.49s-.33.4-.49.61-.25.33-.37.49-.3.4-.44.61l-.33.5c-.13.2-.27.4-.39.6l-.3.51c-.12.2-.23.4-.34.6a2,2,0,0,1-.11.2l-.09.2c-.22.43-.43.86-.61,1.29l-.09.2c-.2.48-.37,1-.53,1.44,0,.12-.07.24-.11.36-.13.43-.25.87-.35,1.31,0,.06,0,.11,0,.17a14.66,14.66,0,0,0-.25,1.45l0,.15a1.28,1.28,0,0,0,0,.19c-.06.51-.11,1-.12,1.53h0l-.89,28.09q0-.76.12-1.53c0-.11,0-.23,0-.34.07-.48.15-1,.25-1.45,0-.05,0-.11,0-.17.1-.44.22-.87.35-1.31,0-.12.07-.24.11-.35.16-.49.33-1,.53-1.45l.09-.2c.18-.43.39-.86.61-1.29l.2-.4.34-.6.3-.51.39-.6.33-.5.44-.61c.12-.16.24-.33.37-.49s.33-.41.49-.61l.4-.48.56-.63.42-.46.64-.64.44-.44c.24-.23.51-.47.77-.7l.39-.36c.41-.35.82-.71,1.26-1.06s1.09-.85,1.65-1.25l.31-.21c.53-.37,1.06-.73,1.59-1.06l.61-.38c.46-.27.91-.54,1.37-.79l.6-.33c.59-.31,1.18-.6,1.78-.87l.15-.07c.65-.3,1.3-.56,2-.81l1-.37.46-.16c.52-.17,1-.33,1.56-.47l.24-.06c.44-.12.89-.23,1.33-.33l.54-.12,1.05-.2.55-.1,1-.15.54-.07,1.14-.11.41,0c.51,0,1-.06,1.53-.08h1.66l.76,0,.88,0,.77.05.87.07.77.09.85.11.65.1.93.15.68.14c.29.06.59.11.88.18l.69.16.85.21.69.19.83.24.69.21.81.27.67.24.8.29.67.26.78.32.65.28.77.34.63.3.75.37.62.31.74.4.59.32.74.43.56.33.73.46.53.33.74.5.48.33c.27.18.53.38.78.57l.4.28c.38.29.76.58,1.13.88,5.18,4.19,9.38,9.45,11,15.17a18.72,18.72,0,0,1,.77,5.85l.89-28.09C333,284.9,327.82,277.41,320.91,271.83Z"/><path class="cls-4" d="M258.9,260.31c24.5-19.65,56.06-14.34,75,.76,18.74,14.93,26.4,38.75,1.4,58.81s-55.12,14.92-74.38-.1S234.3,280,258.9,260.31Zm62,11.52c-12.15-9.79-32.68-15.18-49.45-1.73s-9.76,29.86,2.89,39.24c12.34,9.14,31.52,14.12,48.29.67s10.1-28.63-1.73-38.18"/><path class="cls-3" d="M350.29,320.69h0l.88-28.09c0,.51-.05,1-.09,1.55,0,.15,0,.31-.05.47,0,.37-.09.75-.14,1.13,0,.16-.05.32-.07.47-.08.47-.16.93-.26,1.4l0,.16c-.11.51-.25,1-.39,1.54,0,.15-.09.3-.13.45-.11.39-.23.77-.36,1.16-.06.15-.11.31-.17.47q-.24.71-.54,1.41c0,.05,0,.1-.05.15-.22.51-.46,1-.71,1.55-.07.14-.14.29-.22.44-.16.33-.34.67-.52,1s-.36.65-.55,1-.31.54-.48.81l-.62,1-.54.8-.71,1-.59.79c-.26.33-.53.65-.8,1l-.64.77c-.29.33-.59.67-.9,1s-.44.49-.68.74-.68.69-1,1l-.7.69c-.4.38-.82.76-1.24,1.14l-.63.57c-.65.57-1.32,1.13-2,1.69s-1.41,1.1-2.12,1.62l-.42.32c-.71.51-1.43,1-2.14,1.49l-.31.2c-.62.4-1.24.8-1.87,1.17l-.61.37c-.62.37-1.24.72-1.87,1.06l-.32.18c-.72.39-1.45.75-2.17,1.1-.19.1-.39.18-.58.27-.57.28-1.15.54-1.73.79l-.56.24c-.73.3-1.45.59-2.18.86l-.82.29c-.53.18-1.05.37-1.58.54l-1,.29-1.44.42-1,.26-1.39.33-1.05.23-1.39.27-.93.15-1.45.22-.91.11-1.51.16-.84.07c-.59.05-1.17.08-1.76.1l-.57,0c-.4,0-.79,0-1.19,0s-.86,0-1.29,0-.79,0-1.18,0l-1.29,0-1.17-.09-1.28-.09-1.16-.13c-.43-.05-.85-.09-1.27-.15-.75-.1-1.49-.22-2.24-.35l-.38-.07c-.62-.11-1.24-.23-1.85-.36l-.77-.18-1.44-.34-.85-.23-1.35-.37-.86-.26-1.32-.43-.83-.28-1.37-.49-.74-.28-1.64-.67c-.14-.06-.29-.11-.43-.18-.68-.29-1.36-.59-2-.91l-.54-.27-1.45-.71-.72-.38-1.23-.67-.76-.43L267,324l-.74-.46-1.15-.73-.69-.46-1.21-.84-.58-.41c-.58-.42-1.16-.85-1.73-1.29-8.86-6.92-15.21-15.89-17.08-25.49a30.3,30.3,0,0,1-.55-6.73l-.88,28.1c-.38,12.07,6.71,23.7,17.63,32.21.56.44,1.14.87,1.72,1.29l.58.41c.4.28.8.57,1.21.84l.7.46c.37.25.75.49,1.14.73l.74.46,1.17.69.75.43,1.23.67.72.38c.48.25,1,.48,1.45.72l.54.26c.67.32,1.35.62,2,.92l.43.17c.55.23,1.09.46,1.64.67l.74.28,1.37.49.83.29,1.32.42.87.26,1.33.37.86.23,1.44.34.77.18c.62.13,1.24.25,1.87.36l.36.07c.71.13,1.42.24,2.13.34h.12c.41.06.83.1,1.25.15l1.17.13,1.28.1,1.17.08,1.29,0,1.18,0,1.29,0h1.2l.56,0c.59,0,1.18-.06,1.76-.11l.85-.07,1.5-.15.91-.12,1.45-.22.93-.15.56-.1.83-.17,1.05-.22,1.39-.34,1-.26,1.45-.42.95-.29,1.59-.54.81-.29.11,0c.69-.26,1.38-.53,2.07-.82l.56-.24q.87-.37,1.74-.78l.57-.27c.73-.36,1.45-.72,2.17-1.11l.32-.18c.63-.34,1.25-.69,1.87-1.06l.61-.36c.63-.38,1.25-.78,1.87-1.18l.31-.2c.6-.4,1.19-.81,1.79-1.23l.35-.26.42-.31c.71-.53,1.42-1.06,2.12-1.62s1.37-1.13,2-1.7l.63-.57c.42-.38.85-.76,1.25-1.14l.69-.69c.35-.35.7-.69,1-1s.46-.49.68-.74.61-.67.9-1,.43-.51.65-.77.54-.65.79-1,.4-.53.6-.79.47-.65.7-1,.36-.53.54-.8l.62-1c.17-.27.33-.54.49-.81s.37-.64.54-1l.22-.39.31-.62c.07-.15.15-.29.22-.44.25-.52.48-1,.7-1.55,0-.05,0-.1.05-.14.2-.48.38-1,.55-1.42,0-.16.1-.32.16-.47.13-.39.25-.77.36-1.16.05-.15.09-.29.13-.44.15-.52.28-1,.39-1.55l0-.16c.1-.46.19-.93.26-1.4,0-.15.05-.31.07-.47s.06-.34.08-.52l.06-.61c0-.16,0-.31.05-.47C350.23,321.72,350.27,321.21,350.29,320.69Z"/><path class="cls-1" d="M461,137.45l.33-.21c.63-.38,1.29-.75,2-1.11l.44-.23c.69-.35,1.4-.69,2.12-1l0,0c.74-.32,1.5-.63,2.26-.92l.58-.22,1-.35.72-.24c.36-.12.73-.22,1.09-.33l.69-.2c.41-.12.83-.22,1.25-.32l.55-.14,1.83-.39c.56-.1,1.11-.2,1.67-.28l.5-.07,1.18-.15.64-.06,1.05-.08.69,0,1.29,0,.89-28.09h-.63l-.66,0-.69,0-1,.08-.64.06-1.18.15-.5.07c-.55.08-1.1.17-1.65.28h0q-.92.18-1.83.39l-.56.14c-.41.1-.83.2-1.25.32l-.68.2c-.37.1-.73.21-1.09.33s-.48.16-.72.24l-1,.35-.31.11-.27.11c-.76.29-1.52.59-2.26.92l0,0c-.73.33-1.43.67-2.12,1l-.44.23c-.67.35-1.33.72-2,1.11l-.33.2q-.87.54-1.68,1.11l-.19.13-.09.07c-.45.32-.89.65-1.31,1s-.84.69-1.24,1L457,113c-.26.23-.53.47-.77.71l-.44.43-.64.65-.42.47c-.19.21-.38.41-.56.62s-.28.33-.41.5-.34.41-.5.62-.25.34-.38.5l-.44.63c-.12.17-.24.34-.35.52s-.27.41-.4.62-.21.35-.31.53-.24.41-.35.62a3.94,3.94,0,0,0-.21.41c-.24.46-.45.92-.65,1.38l-.09.2c-.21.51-.4,1-.57,1.55l-.12.37c-.14.49-.28,1-.39,1.46l0,.14c-.11.52-.2,1-.27,1.58l0,.18c0,.06,0,.13,0,.2-.06.54-.11,1.08-.12,1.62h0l-.89,28.09q0-.81.12-1.62c0-.13,0-.25.05-.38.07-.53.16-1,.27-1.58,0-.05,0-.09,0-.14.11-.49.24-1,.39-1.46,0-.12.07-.25.11-.37.17-.52.36-1,.57-1.55l.09-.2c.2-.46.42-.92.65-1.38l.21-.41.35-.62.31-.53.4-.62.35-.52c.14-.21.29-.41.44-.62l.38-.51c.16-.21.33-.42.5-.62l.41-.49c.18-.22.37-.42.56-.63s.28-.32.43-.47.42-.43.63-.65l.44-.43c.24-.24.5-.47.76-.71s.26-.23.39-.35c.4-.35.81-.7,1.24-1s.86-.67,1.31-1l.28-.19C459.81,138.18,460.38,137.81,461,137.45Z"/><polygon class="cls-1" points="519.67 134.12 518.78 162.22 505.93 152.19 506.82 124.1 519.67 134.12"/><polygon class="cls-1" points="506.82 124.1 505.93 152.19 487.9 166.65 488.79 138.56 506.82 124.1"/><polygon class="cls-3" points="488.79 138.56 487.9 166.65 475.68 157.12 476.56 129.02 488.79 138.56"/><path class="cls-4" d="M446,101.86c9.47-7.59,22.67-12.27,37.27-12.34l.46,13.41c-9.4.16-19,3.79-25.18,8.72-15.1,12.11-12.45,28.67,2.48,40.31,11.92,9.3,31,13.5,48.52-.55,5.54-4.44,9.12-9.29,10.1-17.29l-12.85-10-18,14.46L476.56,129l30.21-24.23,30.58,23.85c1.24,12-2.64,22.78-15,32.71-26.47,21.24-55.18,15.9-74.26,1C427.64,146.45,421.15,121.81,446,101.86Z"/><path class="cls-3" d="M536.66,162l.89-28.09c0,.58,0,1.15-.1,1.72,0,.19,0,.37-.05.56,0,.4-.08.79-.14,1.19,0,.16,0,.33-.07.5-.06.4-.13.8-.2,1.19,0,.16-.06.33-.1.49-.11.54-.23,1.08-.37,1.61v0c-.14.52-.29,1-.46,1.56l-.15.48c-.14.38-.27.77-.42,1.15-.06.17-.12.33-.19.49-.19.48-.4,1-.62,1.45l0,.12c-.23.5-.49,1-.75,1.51l-.52.92c-.15.27-.3.54-.46.81l-.59.92c-.18.26-.34.53-.52.79s-.44.62-.67.93l-.56.76c-.24.31-.5.62-.76.94l-.61.74c-.27.32-.57.63-.85.95s-.43.48-.65.71-.65.66-1,1-.43.45-.67.67-.78.72-1.18,1.08c-.2.18-.39.37-.6.55-.62.54-1.26,1.08-1.93,1.61s-1.47,1.16-2.21,1.71l-.57.41c-.62.46-1.25.9-1.88,1.33l-.42.29c-.74.5-1.49,1-2.24,1.44l-.58.35c-.58.35-1.15.68-1.73,1l-.68.37c-.66.37-1.32.71-2,1.05l-.28.14c-.75.37-1.5.73-2.25,1.06l-.63.27c-.57.25-1.14.48-1.71.71l-.67.26c-.49.19-1,.36-1.48.54l-1,.35c-.51.17-1,.32-1.52.47-.3.09-.6.19-.9.27-.61.17-1.21.33-1.81.47l-.61.16c-.8.19-1.61.36-2.41.51l-.36.06c-.65.12-1.3.22-1.95.32l-.79.1-1.53.18-.87.08-1.46.1-.85,0-1.32,0h-1.13c-.43,0-.85,0-1.27,0s-.74,0-1.11,0l-1.27-.08-1.1-.08-1.26-.14L477.4,175c-.56-.07-1.11-.16-1.67-.25l-.51-.08c-.74-.13-1.46-.27-2.18-.42l-.54-.13-1.62-.38-.77-.21-1.36-.38-.83-.26q-.65-.19-1.29-.42l-.81-.28c-.44-.15-.87-.31-1.31-.48l-.75-.29-1.44-.59-.58-.24c-.66-.29-1.32-.59-2-.91l-.32-.16c-.54-.26-1.08-.53-1.61-.81l-.66-.36-1.25-.68-.72-.42-1.15-.69-.72-.45c-.38-.24-.76-.48-1.13-.73l-.68-.45-1.19-.83-.57-.4-1.7-1.28c-9.3-7.26-15.71-16.32-17.59-25.92a30.3,30.3,0,0,1-.55-6.72L429,157.83c-.38,12,6.68,23.71,18.13,32.64.56.44,1.13.86,1.71,1.28.18.14.37.27.56.4l1.19.83.68.46,1.13.72.72.46,1.15.68.73.42,1.23.68.67.36c.53.28,1.06.54,1.6.8a3.59,3.59,0,0,0,.34.17c.65.32,1.31.62,2,.91l.59.25c.47.2.95.4,1.43.58l.76.3,1.3.47.82.29,1.29.41.82.26,1.36.38.78.21,1.6.38.55.13c.72.15,1.45.29,2.18.42l.52.08,1.42.23.24,0,1.09.13,1.25.14,1.1.08,1.27.08,1.11,0,1.27,0h2l.45,0,.85-.05,1.47-.1.86-.08,1.53-.18.79-.1c.65-.09,1.3-.2,1.95-.32l.36-.06h.05c.79-.15,1.57-.31,2.36-.5l.62-.16c.6-.15,1.2-.3,1.8-.47l.9-.27c.51-.15,1-.3,1.52-.47l1-.35c.36-.13.72-.24,1.08-.38l.41-.16.66-.26c.57-.22,1.14-.46,1.71-.71l.63-.27c.75-.33,1.5-.68,2.25-1.06l.29-.14c.66-.34,1.32-.68,2-1l.69-.38,1.72-1,.58-.35q1.13-.69,2.25-1.44l.41-.29c.44-.3.88-.59,1.31-.9l.57-.42.57-.42c.74-.55,1.48-1.11,2.22-1.7s1.31-1.08,1.92-1.62l.6-.54c.4-.36.81-.73,1.19-1.09s.44-.44.66-.66.66-.65,1-1l.65-.72c.28-.31.58-.63.85-1s.41-.49.61-.74.52-.62.76-.94.38-.51.56-.76.46-.62.67-.93.35-.53.52-.79.4-.61.59-.92.31-.54.46-.81.36-.61.52-.92l.1-.19c.23-.44.45-.88.65-1.32l0-.11c.22-.49.43-1,.63-1.46l.18-.48c.15-.39.29-.77.42-1.16,0-.16.11-.32.16-.48.16-.52.32-1,.45-1.55a.09.09,0,0,0,0-.05c.14-.53.26-1.07.38-1.61l.09-.49c.07-.39.14-.79.2-1.19,0-.17.05-.34.07-.5a2.87,2.87,0,0,0,0-.31c0-.29.06-.58.09-.88s0-.37,0-.55C536.61,163.17,536.65,162.6,536.66,162Z"/><path class="cls-5" d="M132.66,438.66l.79.87a3.24,3.24,0,1,1-4.83,4.32l-.79-.88-.78-.88a3.24,3.24,0,0,0-4.84,4.32l.79.88.78.88a3.24,3.24,0,1,1-4.83,4.32l-.78-.88-.79-.88a3.24,3.24,0,1,0-4.83,4.32l.78.88.79.88a3.24,3.24,0,0,1-4.83,4.32l-.79-.88-.78-.88a3.24,3.24,0,1,0-4.84,4.32l.79.88"/><path class="cls-5" d="M461,1.5l.79.88A3.24,3.24,0,0,1,457,6.7l-.79-.88-.78-.88a3.24,3.24,0,1,0-4.84,4.32l.79.88.79.88a3.24,3.24,0,0,1-4.84,4.31l-.78-.88-.79-.87a3.24,3.24,0,0,0-4.83,4.31l.78.88.79.88A3.24,3.24,0,1,1,437.64,24l-.79-.88-.78-.88a3.24,3.24,0,0,0-4.84,4.32l.79.88"/><polyline class="cls-6" points="44.41 240.75 1.5 275.4 44.41 308.86"/><path class="cls-6" d="M545.88,198.91c25.31-20.31,15.23-43.19-2.62-57.6"/><path class="cls-6" d="M117.11,144.12c-5.58-4.49-15-7-22.68-.79S90,157,95.75,161.32s14.46,6.48,22.15.31,4.63-13.13-.79-17.51"/><path class="cls-6" d="M579.39,79.25c-5.57-4.49-15-7-22.68-.8s-4.47,13.7,1.33,18,14.46,6.48,22.15.31,4.63-13.13-.8-17.51"/><polygon class="cls-6" points="306.77 410.3 320.47 420.88 306.63 431.98 292.93 421.4 306.77 410.3"/><path class="cls-7" d="M423,372l3.82-3,14.81,14.18-3.76,3-2.35-1.92c.83,2.39-.85,5.18-2.62,6.62l-.08.06c-4.72,3.73-10.92,3.89-16.08-1.05s-4.11-10.3.56-14l.08-.06a8.82,8.82,0,0,1,7.54-1.74Zm7,15.24c6.27-4.94-2.71-13.54-9-8.6-2.65,2.09-3.12,5.34-.3,8a6.93,6.93,0,0,0,9.28.56"/><polygon class="cls-7" points="393.66 384.25 414.68 404.38 410.4 407.75 389.38 387.62 393.66 384.25"/><path class="cls-7" d="M438.15,359.57a7.24,7.24,0,0,1,7.53-1.11c-.66-3.14.6-5.18,2.69-6.83,4.57-3.6,9.41-2.91,13.86,1.35l8,7.65-4,3.14-8-7.65c-2-1.87-4.49-2.76-6.65-1.06s-1.78,4.39.18,6.26l7.93,7.59-4,3.15-7.93-7.6c-1.95-1.87-4.84-2.69-7-1s-1.66,4.4.29,6.28l7.93,7.59-4,3.14-14.83-14.21,3.69-2.9,2.09,1.48C435.29,362.77,436.61,360.78,438.15,359.57Z"/><path class="cls-7" d="M494,315.26c5.39-4.24,11.82-4,17.3,2.37l-12.58,9.91c2.09,1.55,5.15,1.45,8-.77,1.47-1.15,2.89-3.16,2.93-4.72l4.87.21c-.08,2.89-2.08,5.83-4.53,7.76-5.55,4.37-12,4-16.76-.59C488.67,325.11,488.76,319.39,494,315.26Zm1.75,9.32,8.69-6.85c-2.19-1.63-4.79-1.26-7.07.54s-3,4-1.62,6.31"/><path class="cls-7" d="M472.6,322.1l4-3.15,21,20.11L493.86,342l-2.3-1.75c.53,2.67-.87,4.82-2.83,6.36a11.84,11.84,0,0,1-16-.88c-5.11-4.9-4.26-10.18.44-13.88,1.71-1.34,5.19-2.62,7.67-1.9Zm13,21a4.93,4.93,0,0,0,.31-7.85,6.92,6.92,0,0,0-9-.46c-2.55,2-2.93,5.19-.26,7.75a6.82,6.82,0,0,0,8.94.56"/><path class="cls-7" d="M511.68,301.37a12.45,12.45,0,0,1,8.23-3.07l.19,4.05a7.86,7.86,0,0,0-5.31,1.88c-1.9,1.49-2.41,2.83-1.48,3.72s2.46.69,4.64-.81c3.21-2.23,7.7-4.66,11.64-.89,2.61,2.5,2.54,6.48-2.07,10.12a13.67,13.67,0,0,1-10.08,3.33l-.66-4.05a12.93,12.93,0,0,0,7.63-2.39l.09-.07c1.47-1.16,2.1-2.9,1-3.91s-2.36-.67-4.76,1c-3.25,2.19-7.9,4.07-11.26.85S508.75,303.68,511.68,301.37Z"/><path class="cls-7" d="M613.27,241.51a3.39,3.39,0,0,1,4.48.14c.37.35.31.23,3,5.47l-2.25,1.78-2.35-3.34a2.57,2.57,0,0,1-3.16-.34A2.3,2.3,0,0,1,613.27,241.51Z"/><path class="cls-7" d="M593.73,236.77a9,9,0,0,1,5.57-1.92l1.38,4.47a5.73,5.73,0,0,0-3.83,1.35c-2.09,1.64-3,4.14-.26,6.76l7.81,7.47-4,3.15L585.6,243.87l3.69-2.91,2,1.41C590.71,239.63,592.1,238.06,593.73,236.77Z"/><path class="cls-7" d="M574,252.26c5.39-4.25,11.82-4,17.3,2.36l-12.58,9.92c2.09,1.55,5.15,1.45,8-.77,1.47-1.16,2.89-3.16,2.93-4.72l4.87.21c-.09,2.89-2.08,5.82-4.53,7.75-5.55,4.38-12,4-16.75-.59C568.63,262.11,568.73,256.38,574,252.26Zm1.75,9.32,8.69-6.85c-2.19-1.63-4.78-1.27-7.07.54s-3,4-1.62,6.31"/><path class="cls-7" d="M556.06,266.72c3.79-3,9.45-2.88,14.1,1.58l7.78,7.45-4,3.14-7.74-7.42c-2.26-2.16-5.31-2.75-7.86-.74s-2.22,5.06,0,7.22l7.57,7.24-4,3.12L547.16,274.1l3.56-2.8L553,273A8,8,0,0,1,556.06,266.72Z"/><g class="cls-8"><polygon class="cls-7" points="536.48 308.41 521.62 294.18 525.61 291.04 540.47 305.27 536.48 308.41"/><path class="cls-7" d="M551.77,282.79c1.83,1.75,3.67,4.82,2.13,8,3.91-.94,6.33.25,8.22,2.06,4.09,3.92,3.21,9-1.46,12.69s-10.78,3.93-14.77.11l4-3.12c1.93,1.84,5.12,1.53,7.4-.27s2.94-4.32.9-6.27-5.06-1.2-7.06.37c-5,4-11,3.73-15.61-.69s-3.85-10.07.66-13.63a9,9,0,0,1,4.53-2.1l-.26-3.05,5-.36.3,3.42A10.05,10.05,0,0,1,551.77,282.79Zm-4,10.35c2.28-1.8,2.62-4.79.07-7.23a6.35,6.35,0,0,0-8.36-.71c-2.32,1.83-2.62,4.84,0,7.32a6.24,6.24,0,0,0,8.33.62"/></g><path class="cls-7" d="M521.64,290.72a3.4,3.4,0,0,1-4.5-.2,2.44,2.44,0,0,1,.21-3.91,3.39,3.39,0,0,1,4.5.2A2.44,2.44,0,0,1,521.64,290.72Z"/><path class="cls-7" d="M500.55,373.26a12.23,12.23,0,0,1,16.15.76c4.26,4.08,4.55,9.88-.68,14a12,12,0,0,1-16.08-.8C495.7,383.16,495.42,377.3,500.55,373.26Zm12.11,11.54c2.91-2.29,2.27-5.46,0-7.62s-6.09-2.86-8.77-.76c-2.87,2.27-2.21,5.53,0,7.66s5.82,3,8.73.72"/><path class="cls-7" d="M472.06,385.38l8.23,7.88a6.54,6.54,0,0,1,2.81-6.09c4.57-3.6,9.45-2.47,13.81,1.7l7.81,7.48-4,3.14L493,392c-2.7-2.58-5.38-2.47-7.5-.8-2.35,1.85-2.16,4.9.07,7l7.57,7.24-4,3.15-21-20.14Z"/><polygon class="cls-7" points="470.9 397.09 480.18 415.79 475.54 419.44 469.49 416.56 463.1 412.94 466.62 418.82 469.33 424.33 464.7 427.99 444.14 418.17 448.58 414.67 463.42 422.44 455.77 409.01 459.27 406.25 473.94 414.14 466.49 400.57 470.9 397.09"/><path class="cls-7" d="M546.94,336.55a9,9,0,0,1,5.56-1.92l1.39,4.47a5.76,5.76,0,0,0-3.84,1.35c-2.09,1.64-3,4.14-.26,6.76l7.81,7.47-4,3.15L538.8,343.64l3.69-2.9,2,1.4C543.91,339.41,545.31,337.84,546.94,336.55Z"/><path class="cls-7" d="M525.17,343.58l4-3.13,21,20.1-3.73,2.94-2.3-1.76c.53,2.68-.86,4.83-2.82,6.37a11.84,11.84,0,0,1-16-.88c-5.11-4.89-4.26-10.18.45-13.89,1.69-1.33,5.18-2.61,7.66-1.89Zm13,21.07a4.92,4.92,0,0,0,.31-7.85,6.91,6.91,0,0,0-9-.47c-2.55,2-2.92,5.19-.24,7.75a6.82,6.82,0,0,0,8.93.57"/><polygon class="cls-7" points="598.29 296.72 607.57 315.42 602.93 319.07 596.88 316.19 590.48 312.57 594 318.45 596.73 323.96 592.08 327.62 571.53 317.8 575.98 314.3 590.81 322.06 583.16 308.64 586.66 305.88 601.33 313.78 593.88 300.19 598.29 296.72"/><path class="cls-7" d="M565.75,322.41l3.82-3,14.81,14.18-3.76,3-2.35-1.92c.83,2.39-.85,5.18-2.61,6.62l-.08.07c-4.73,3.72-10.93,3.88-16.09-1.06s-4.11-10.3.56-14l.08-.06a8.82,8.82,0,0,1,7.54-1.74Zm7,15.25c6.28-4.94-2.7-13.54-9-8.6-2.65,2.09-3.12,5.34-.29,8.05a6.9,6.9,0,0,0,9.26.55"/><path class="cls-7" d="M637.09,266.2l3.82-3,14.81,14.18-3.76,3-2.36-1.91c.83,2.39-.84,5.17-2.61,6.62l-.08.06C642.18,288.83,636,289,630.82,284s-4.09-10.3.57-14l.08-.06a8.8,8.8,0,0,1,7.53-1.74Zm7,15.25c6.27-4.94-2.7-13.54-9-8.59-2.64,2.08-3.11,5.33-.29,8a6.92,6.92,0,0,0,9.27.55"/><path class="cls-7" d="M607.73,288.6a12.49,12.49,0,0,1,8.23-3.07l.17,4.05a8,8,0,0,0-5.31,1.88c-1.89,1.49-2.39,2.83-1.46,3.72s2.45.69,4.62-.81c3.23-2.22,7.71-4.66,11.65-.89,2.61,2.5,2.54,6.49-2.07,10.12a13.67,13.67,0,0,1-10.08,3.34l-.65-4.05a13.06,13.06,0,0,0,7.62-2.39l.09-.07c1.47-1.16,2.1-2.91,1-3.92s-2.36-.66-4.76,1c-3.25,2.2-7.9,4.07-11.26.86S604.79,290.92,607.73,288.6Z"/><path class="cls-7" d="M670.1,229.39l4-3.14,21,20.11-3.72,2.93-2.31-1.75c.53,2.68-.86,4.82-2.82,6.36a11.83,11.83,0,0,1-16-.87c-5.11-4.9-4.26-10.18.45-13.89,1.69-1.34,5.18-2.62,7.66-1.89Zm13,21.06a4.92,4.92,0,0,0,.31-7.85,6.9,6.9,0,0,0-9-.46c-2.55,2-2.92,5.18-.24,7.74a6.78,6.78,0,0,0,8.92.57"/><path class="cls-7" d="M653.05,253.21c3.79-3,9.44-2.88,14.1,1.57l7.78,7.46-4,3.14L663.19,258c-2.25-2.15-5.3-2.74-7.85-.73s-2.22,5.06,0,7.21l7.57,7.25-4,3.12-14.84-14.21,3.55-2.81,2.28,1.73A8,8,0,0,1,653.05,253.21Z"/><path class="cls-7" d="M731.54,181l4-3.14,21,20.11-3.72,2.93-2.31-1.75c.53,2.68-.86,4.82-2.82,6.36a11.83,11.83,0,0,1-16-.87c-5.11-4.9-4.26-10.18.45-13.89,1.69-1.33,5.18-2.62,7.66-1.89Zm13,21.06a4.92,4.92,0,0,0,.32-7.85,6.91,6.91,0,0,0-9-.46c-2.55,2-2.92,5.18-.24,7.74a6.78,6.78,0,0,0,8.92.57"/><path class="cls-7" d="M713.52,205.46a12.22,12.22,0,0,1,16.14.76c4.27,4.08,4.55,9.88-.67,14a12,12,0,0,1-16.08-.8C708.67,215.36,708.39,209.5,713.52,205.46ZM725.63,217c2.9-2.29,2.27-5.46,0-7.62s-6.09-2.87-8.77-.76c-2.87,2.27-2.21,5.53,0,7.66s5.83,3,8.74.72"/><path class="cls-7" d="M697.52,217.85a11.24,11.24,0,0,1,8-2.48l-.08,4.32a7.14,7.14,0,0,0-4.41,1.42c-2.68,2.11-2.84,5.38-.25,7.85a6.58,6.58,0,0,0,8.9.54,5.43,5.43,0,0,0,2.3-4l5.07.19a9.23,9.23,0,0,1-3.86,7.14c-4.67,3.68-11.14,4.27-16.39-.76S692.85,221.53,697.52,217.85Z"/><path class="cls-7" d="M793.65,161.66a3.35,3.35,0,0,1,4.48.2,2.43,2.43,0,0,1-.2,3.9,3.38,3.38,0,0,1-4.5-.2A2.43,2.43,0,0,1,793.65,161.66Z"/><path class="cls-7" d="M770.62,160.25a12.52,12.52,0,0,1,8.23-3.07l.17,4a8,8,0,0,0-5.3,1.87c-1.89,1.5-2.4,2.84-1.46,3.73s2.45.7,4.62-.82c3.22-2.21,7.71-4.64,11.64-.87,2.61,2.5,2.55,6.48-2.06,10.11a13.71,13.71,0,0,1-10.09,3.34l-.65-4.05a13,13,0,0,0,7.62-2.39l.09-.07c1.47-1.16,2.1-2.9,1.05-3.92s-2.36-.66-4.77,1c-3.25,2.19-7.89,4.07-11.25.85S767.68,162.57,770.62,160.25Z"/><path class="cls-7" d="M752.92,174.15c5.39-4.25,11.82-4,17.3,2.36l-12.58,9.92c2.1,1.54,5.15,1.45,8-.77,1.47-1.16,2.88-3.16,2.93-4.72l4.86.2c-.08,2.9-2.08,5.83-4.53,7.77-5.55,4.37-12,4-16.74-.6C747.61,184,747.7,178.26,752.92,174.15Zm1.75,9.31,8.69-6.84c-2.18-1.63-4.78-1.27-7.06.53s-3,4-1.63,6.31"/></g></g></svg>