<svg xmlns="http://www.w3.org/2000/svg" viewBox="0 0 53.6 65.7"><defs><style>.cls-1{fill:#ffc0c7;}.cls-1,.cls-2,.cls-3{stroke:#690519;stroke-linecap:round;stroke-linejoin:round;stroke-width:2px;}.cls-2{fill:#fcce70;}.cls-3{fill:#51dddf;}</style></defs><title>Asset 1</title><g id="Layer_2" data-name="Layer 2"><g id="Layer_5" data-name="Layer 5"><path class="cls-1" d="M26.85,24.84a1.92,1.92,0,0,1,.31-.18l.36-.2.31-.16.38-.16.31-.13.32-.12c.18-.07.36-.12.54-.18l.28-.08.6-.14.2,0,.79-.12h.13c.22,0,.43,0,.65,0h1.14l.71.07.13,0c.27,0,.53.08.78.14l.21.05.56.14.26.08.5.17.24.09.59.25.12.05c.23.11.45.23.67.35l.18.11.46.28a1.53,1.53,0,0,1,.21.14l.41.3.19.14c.17.13.33.27.48.41l.07.06c.17.16.34.33.49.5l.14.15c.11.12.21.25.31.38a1.33,1.33,0,0,1,.14.19,3.28,3.28,0,0,1,.27.38l.12.19c.1.17.2.35.29.53,0,0,0,0,0,.05a4.35,4.35,0,0,1,.25.59c0,.07,0,.13.06.19s.09.29.13.44,0,.14.05.21,0,.3.07.45a1.23,1.23,0,0,1,0,.19c0,.22,0,.43,0,.65h0L42.78,17c0-.22,0-.43,0-.64l0-.2c0-.15,0-.3-.07-.44s0-.15,0-.22-.08-.29-.13-.44a1.27,1.27,0,0,0-.06-.18,5.09,5.09,0,0,0-.25-.6l0,0c-.09-.18-.19-.36-.29-.54l-.12-.18-.26-.39-.15-.19L41,12.51l-.14-.15c-.15-.17-.32-.34-.49-.5l-.07-.06c-.15-.14-.31-.27-.48-.4l-.18-.15-.41-.3L39,10.81l-.46-.28-.18-.11-.67-.34L37.61,10c-.2-.09-.4-.18-.6-.25l-.23-.09-.51-.17L36,9.44c-.18-.06-.37-.1-.56-.15l-.21,0-.78-.14h-.13c-.23,0-.47-.06-.71-.07h-.26c-.22,0-.44,0-.66,0h-.22l-.65,0-.13,0a7,7,0,0,0-.78.11h0l-.17,0c-.2,0-.4.08-.6.14l-.28.08-.54.17-.16.06L29,9.73l-.31.13-.37.17-.32.15-.36.2-.31.18-.36.23-.3.2-.13.09c-.14.11-.28.21-.42.33L15.45,19.94,15,34.21l10.64-8.53c.18-.14.36-.28.55-.41l.3-.2Z"/><path class="cls-1" d="M52.6,16.78c0,.3,0,.61-.07.91,0,.1,0,.2,0,.3l0,.2-.09.48,0,.13c0,.2-.09.41-.15.61s0,.1,0,.15L52,20a1.59,1.59,0,0,1-.07.2l-.16.43c0,.07-.05.13-.08.19s-.17.4-.27.61h0c-.09.19-.2.39-.3.58l-.21.36c-.06.1-.12.21-.19.31l-.23.37-.21.3-.27.37-.23.3c-.09.13-.2.25-.3.37l-.24.3-.35.37-.25.29-.39.39L48,26l-.47.43c-.08.07-.15.15-.24.22l-.76.64L35.86,35.85l-.45,14.27,10.64-8.53c.26-.21.52-.42.76-.64l.24-.22.47-.42.26-.27.39-.39.26-.28c.12-.13.24-.25.34-.38L49,38.7l.3-.37.23-.31.27-.36.21-.31c.08-.12.16-.24.23-.36l.19-.32.21-.36,0-.07c.09-.17.18-.33.26-.5v0l.27-.61a1.34,1.34,0,0,0,.07-.18c.06-.14.12-.29.17-.43s.05-.14.07-.21l.15-.46s0-.1,0-.15q.09-.3.15-.6l0-.14.09-.47,0-.2,0-.19a.49.49,0,0,1,0-.12c0-.3.06-.6.07-.9Z"/><path class="cls-2" d="M19.12,6C37.49-8.77,64.92,12.54,46.5,27.32L35.86,35.85l11.4,8.88-7.09,5.69L1.45,20.24C7.36,15.49,13.21,10.71,19.12,6ZM39.81,22.1c9.07-7.28-4.7-17.93-13.72-10.69L15.45,19.94,29.17,30.63,39.81,22.1"/><polygon class="cls-1" points="47.26 44.73 46.81 59.01 39.72 64.7 40.17 50.42 47.26 44.73"/><polygon class="cls-3" points="40.17 50.42 39.72 64.7 1 34.51 1.45 20.23 40.17 50.42"/></g></g></svg>