<?xml version="1.0" encoding="utf-8"?>
<!-- Generator: Adobe Illustrator 22.0.1, SVG Export Plug-In . SVG Version: 6.00 Build 0)  -->
<svg version="1.1" id="Layer_1" xmlns="http://www.w3.org/2000/svg" xmlns:xlink="http://www.w3.org/1999/xlink" x="0px" y="0px"
	 viewBox="0 0 595.3 595.3" style="enable-background:new 0 0 595.3 595.3;" xml:space="preserve">
<style type="text/css">
	.st0{clip-path:url(#SVGID_2_);}
	.st1{filter:url(#Adobe_OpacityMaskFilter);}
	.st2{fill:#FFFFFF;}
	.st3{mask:url(#mask-2_9_);fill:url(#Rectangle_2_);}
	.st4{filter:url(#Adobe_OpacityMaskFilter_1_);}
	.st5{opacity:0.3;mask:url(#mask-2_3_);fill:url(#Oval_22_);enable-background:new    ;}
	.st6{filter:url(#Adobe_OpacityMaskFilter_2_);}
	.st7{opacity:0.3;mask:url(#mask-2_2_);fill:url(#Oval_23_);enable-background:new    ;}
	.st8{filter:url(#Adobe_OpacityMaskFilter_3_);}
	.st9{mask:url(#mask-2_8_);fill:url(#Oval_24_);fill-opacity:0.2;}
	.st10{filter:url(#Adobe_OpacityMaskFilter_4_);}
	.st11{mask:url(#mask-2_7_);fill:url(#Oval_25_);fill-opacity:0.2;}
	.st12{filter:url(#Adobe_OpacityMaskFilter_5_);}
	.st13{mask:url(#mask-2_1_);fill:url(#Oval_26_);fill-opacity:0.2;}
	.st14{filter:url(#Adobe_OpacityMaskFilter_6_);}
	.st15{mask:url(#mask-2_5_);fill:url(#Oval_27_);fill-opacity:0.2;}
	.st16{filter:url(#Adobe_OpacityMaskFilter_7_);}
	.st17{mask:url(#mask-2_6_);fill:url(#Rectangle_3_);}
	.st18{filter:url(#Adobe_OpacityMaskFilter_8_);}
	.st19{opacity:0.3;mask:url(#mask-2_4_);fill:url(#Oval_28_);enable-background:new    ;}
	.st20{fill:#E6E7E8;}
	.st21{clip-path:url(#SVGID_4_);fill:url(#SVGID_5_);}
	.st22{fill:url(#SVGID_6_);}
	.st23{fill:#3C5FAB;}
	.st24{fill:url(#SVGID_7_);}
	.st25{fill:url(#SVGID_8_);}
	.st26{fill:#FFEBD3;}
	.st27{fill:url(#SVGID_9_);}
	.st28{fill:url(#SVGID_11_);}
	.st29{fill:#231F20;}
	.st30{fill:url(#SVGID_12_);}
	.st31{fill:url(#Oval_29_);stroke:#FFFFFF;stroke-miterlimit:10;}
	.st32{fill:#CE2027;stroke:#FFFFFF;stroke-miterlimit:10;}
	.st33{fill:url(#Oval_30_);stroke:#FFFFFF;stroke-miterlimit:10;}
	.st34{fill:#2C53A4;stroke:#FFFFFF;stroke-miterlimit:10;}
	.st35{fill:#F6902A;stroke:#FFFFFF;stroke-miterlimit:10;}
	.st36{fill:#427638;stroke:#FFFFFF;stroke-miterlimit:10;}
	.st37{fill:url(#Oval_31_);stroke:#FFFFFF;stroke-miterlimit:10;}
	.st38{fill:url(#Oval_32_);stroke:#FFFFFF;stroke-width:0.75;stroke-miterlimit:10;}
	.st39{fill:url(#Oval_33_);stroke:#FFFFFF;stroke-width:0.75;stroke-miterlimit:10;}
	.st40{fill:#BBBDBF;}
	.st41{fill:#D0D2D3;}
	.st42{fill:#F48468;}
	.st43{fill:none;stroke:#FFFFFF;stroke-width:5;stroke-miterlimit:10;}
	.st44{font-family:'Montserrat-SemiBold';}
	.st45{font-size:41.5306px;}
</style>
<g>
	<defs>
		<rect id="SVGID_1_" width="595" height="595"/>
	</defs>
	<clipPath id="SVGID_2_">
		<use xlink:href="#SVGID_1_"  style="overflow:visible;"/>
	</clipPath>
	<g id="Page-1_2_" class="st0">
		<g id="Artboard-2_1_">
			<g id="left_1_">
				<g id="Mask_2_">
				</g>
				<defs>
					<filter id="Adobe_OpacityMaskFilter" filterUnits="userSpaceOnUse" x="0" y="-259.7" width="606" height="1495.7">
						<feColorMatrix  type="matrix" values="1 0 0 0 0  0 1 0 0 0  0 0 1 0 0  0 0 0 1 0"/>
					</filter>
				</defs>
				<mask maskUnits="userSpaceOnUse" x="0" y="-259.7" width="606" height="1495.7" id="mask-2_9_">
					<g class="st1">
						<rect id="path-1_9_" x="-2.8" y="-259.7" class="st2" width="606" height="1495.7"/>
					</g>
				</mask>
				
					<linearGradient id="Rectangle_2_" gradientUnits="userSpaceOnUse" x1="157.5235" y1="439.5145" x2="156.8275" y2="438.8185" gradientTransform="matrix(850 0 0 2098 -133289 -920865.4375)">
					<stop  offset="0" style="stop-color:#3B75E5"/>
					<stop  offset="1" style="stop-color:#6F86D6"/>
				</linearGradient>
				<rect id="Rectangle_1_" x="0" y="-259.7" class="st3" width="606" height="1495.7"/>
				<defs>
					<filter id="Adobe_OpacityMaskFilter_1_" filterUnits="userSpaceOnUse" x="-442" y="-382.3" width="807" height="807">
						<feColorMatrix  type="matrix" values="1 0 0 0 0  0 1 0 0 0  0 0 1 0 0  0 0 0 1 0"/>
					</filter>
				</defs>
				<mask maskUnits="userSpaceOnUse" x="-442" y="-382.3" width="807" height="807" id="mask-2_3_">
					<g class="st4">
						<rect id="path-1_3_" x="-2.8" y="-259.7" class="st2" width="606" height="1495.7"/>
					</g>
				</mask>
				
					<linearGradient id="Oval_22_" gradientUnits="userSpaceOnUse" x1="157.015" y1="439.6112" x2="157.7279" y2="440.3241" gradientTransform="matrix(1132 0 0 -1132 -178183 498064.5312)">
					<stop  offset="0" style="stop-color:#7C8FEA"/>
					<stop  offset="1" style="stop-color:#464EE5"/>
				</linearGradient>
				<circle id="Oval" class="st5" cx="-38.5" cy="21.2" r="403.5"/>
				<defs>
					<filter id="Adobe_OpacityMaskFilter_2_" filterUnits="userSpaceOnUse" x="314.4" y="424" width="238.8" height="238.8">
						<feColorMatrix  type="matrix" values="1 0 0 0 0  0 1 0 0 0  0 0 1 0 0  0 0 0 1 0"/>
					</filter>
				</defs>
				<mask maskUnits="userSpaceOnUse" x="314.4" y="424" width="238.8" height="238.8" id="mask-2_2_">
					<g class="st6">
						<rect id="path-1_2_" x="-2.8" y="-259.7" class="st2" width="606" height="1495.7"/>
					</g>
				</mask>
				
					<linearGradient id="Oval_23_" gradientUnits="userSpaceOnUse" x1="156.1415" y1="441.3514" x2="156.8545" y2="442.0644" gradientTransform="matrix(335 0 0 -335 -51993 148515.5312)">
					<stop  offset="0" style="stop-color:#7C8FEA"/>
					<stop  offset="1" style="stop-color:#464EE5"/>
				</linearGradient>
				<circle id="Oval_5_" class="st7" cx="433.8" cy="543.4" r="119.4"/>
			</g>
		</g>
	</g>
</g>
<g id="Page-1_1_">
	<g id="Loading-page-start" transform="translate(-679.000000, 0.000000)">
		<g id="white-bubble" transform="translate(631.000000, 0.000000)">
			<g id="Mask_1_">
			</g>
			<defs>
				<filter id="Adobe_OpacityMaskFilter_3_" filterUnits="userSpaceOnUse" x="-1683.1" y="-685" width="635.1" height="635.1">
					<feColorMatrix  type="matrix" values="1 0 0 0 0  0 1 0 0 0  0 0 1 0 0  0 0 0 1 0"/>
				</filter>
			</defs>
			<mask maskUnits="userSpaceOnUse" x="-1683.1" y="-685" width="635.1" height="635.1" id="mask-2_8_">
				<g class="st8">
					<rect id="path-1_8_" x="-2418.4" y="-473" class="st2" width="1231" height="1031.4"/>
				</g>
			</mask>
			
				<linearGradient id="Oval_24_" gradientUnits="userSpaceOnUse" x1="201.1962" y1="441.0094" x2="201.7968" y2="440.0737" gradientTransform="matrix(665 0 0 -665 -135398 292534.5312)">
				<stop  offset="0" style="stop-color:#FFA893"/>
				<stop  offset="1" style="stop-color:#FEEED5"/>
			</linearGradient>
			<circle id="Oval_8_" class="st9" cx="-1365.5" cy="-367.5" r="317.5"/>
			<defs>
				<filter id="Adobe_OpacityMaskFilter_4_" filterUnits="userSpaceOnUse" x="-2385.9" y="362.6" width="564.4" height="564.4">
					<feColorMatrix  type="matrix" values="1 0 0 0 0  0 1 0 0 0  0 0 1 0 0  0 0 0 1 0"/>
				</filter>
			</defs>
			<mask maskUnits="userSpaceOnUse" x="-2385.9" y="362.6" width="564.4" height="564.4" id="mask-2_7_">
				<g class="st10">
					<rect id="path-1_7_" x="-2418.4" y="-473" class="st2" width="1231" height="1031.4"/>
				</g>
			</mask>
			
				<linearGradient id="Oval_25_" gradientUnits="userSpaceOnUse" x1="200.7609" y1="441.2096" x2="201.3614" y2="440.2739" gradientTransform="matrix(591 0 0 -591 -120964 261071.5312)">
				<stop  offset="0" style="stop-color:#FFA893"/>
				<stop  offset="1" style="stop-color:#FEEED5"/>
			</linearGradient>
			<circle id="Oval_4_" class="st11" cx="-2103.7" cy="644.8" r="282.2"/>
			<defs>
				<filter id="Adobe_OpacityMaskFilter_5_" filterUnits="userSpaceOnUse" x="-1683.1" y="227" width="82.1" height="82.1">
					<feColorMatrix  type="matrix" values="1 0 0 0 0  0 1 0 0 0  0 0 1 0 0  0 0 0 1 0"/>
				</filter>
			</defs>
			<mask maskUnits="userSpaceOnUse" x="-1683.1" y="227" width="82.1" height="82.1" id="mask-2_1_">
				<g class="st12">
					<rect id="path-1_1_" x="-2418.4" y="-473" class="st2" width="1231" height="1031.4"/>
				</g>
			</mask>
			
				<linearGradient id="Oval_26_" gradientUnits="userSpaceOnUse" x1="174.7716" y1="447.7816" x2="175.3721" y2="446.8459" gradientTransform="matrix(86 0 0 -86 -16703 38729.5352)">
				<stop  offset="0" style="stop-color:#FFA893"/>
				<stop  offset="1" style="stop-color:#FEEED5"/>
			</linearGradient>
			<circle id="Oval_2_" class="st13" cx="-1642" cy="268.1" r="41.1"/>
			<defs>
				<filter id="Adobe_OpacityMaskFilter_6_" filterUnits="userSpaceOnUse" x="-2279.9" y="-196.1" width="64.9" height="64.9">
					<feColorMatrix  type="matrix" values="1 0 0 0 0  0 1 0 0 0  0 0 1 0 0  0 0 0 1 0"/>
				</filter>
			</defs>
			<mask maskUnits="userSpaceOnUse" x="-2279.9" y="-196.1" width="64.9" height="64.9" id="mask-2_5_">
				<g class="st14">
					<rect id="path-1_5_" x="-2418.4" y="-473" class="st2" width="1231" height="1031.4"/>
				</g>
			</mask>
			
				<linearGradient id="Oval_27_" gradientUnits="userSpaceOnUse" x1="167.1517" y1="449.5276" x2="167.7523" y2="448.5919" gradientTransform="matrix(68 0 0 -68 -13638 30366.5352)">
				<stop  offset="0" style="stop-color:#FFA893"/>
				<stop  offset="1" style="stop-color:#FEEED5"/>
			</linearGradient>
			<circle id="Oval_3_" class="st15" cx="-2247.5" cy="-163.6" r="32.5"/>
		</g>
	</g>
</g>
<g id="Page-1">
	<g id="Artboard-2">
		<g id="left">
			<g id="Mask">
			</g>
			<defs>
				<filter id="Adobe_OpacityMaskFilter_7_" filterUnits="userSpaceOnUse" x="-2464.8" y="-470.1" width="417.8" height="1031.3">
					<feColorMatrix  type="matrix" values="1 0 0 0 0  0 1 0 0 0  0 0 1 0 0  0 0 0 1 0"/>
				</filter>
			</defs>
			<mask maskUnits="userSpaceOnUse" x="-2464.8" y="-470.1" width="417.8" height="1031.3" id="mask-2_6_">
				<g class="st16">
					<rect id="path-1_6_" x="-2466.8" y="-470.1" class="st2" width="417.8" height="1031.3"/>
				</g>
			</mask>
			
				<linearGradient id="Rectangle_3_" gradientUnits="userSpaceOnUse" x1="154.4023" y1="439.1928" x2="153.9224" y2="438.713" gradientTransform="matrix(850 0 0 2098 -133289 -920865.4375)">
				<stop  offset="0" style="stop-color:#3B75E5"/>
				<stop  offset="1" style="stop-color:#6F86D6"/>
			</linearGradient>
			<rect id="Rectangle" x="-2464.8" y="-470.1" class="st17" width="417.8" height="1031.3"/>
			<defs>
				<filter id="Adobe_OpacityMaskFilter_8_" filterUnits="userSpaceOnUse" x="-2248.1" y="1.3" width="164.7" height="164.7">
					<feColorMatrix  type="matrix" values="1 0 0 0 0  0 1 0 0 0  0 0 1 0 0  0 0 0 1 0"/>
				</filter>
			</defs>
			<mask maskUnits="userSpaceOnUse" x="-2248.1" y="1.3" width="164.7" height="164.7" id="mask-2_4_">
				<g class="st18">
					<rect id="path-1_4_" x="-2466.8" y="-470.1" class="st2" width="417.8" height="1031.3"/>
				</g>
			</mask>
			
				<linearGradient id="Oval_28_" gradientUnits="userSpaceOnUse" x1="148.4923" y1="442.8347" x2="148.9839" y2="443.3262" gradientTransform="matrix(335 0 0 -335 -51993 148515.5312)">
				<stop  offset="0" style="stop-color:#7C8FEA"/>
				<stop  offset="1" style="stop-color:#464EE5"/>
			</linearGradient>
			<circle id="Oval_1_" class="st19" cx="-2165.7" cy="83.6" r="82.3"/>
		</g>
	</g>
</g>
<rect x="727.8" y="-594.8" class="st2" width="595.3" height="595.3"/>
<rect x="727.8" y="-39.6" class="st20" width="594.8" height="40.1"/>
<g>
	<defs>
		<path id="SVGID_3_" d="M727.1-252.5c0,0,10.8,96.2,107.7,125.6s102.4,71.3,105.7,92.4l58.8-7.6c0,0,72.1-51.3,262.1-58.3
			c18.9-0.7,42.4,0.4,61.3,1.7v-496.6L727.1-596V-252.5z"/>
	</defs>
	<clipPath id="SVGID_4_">
		<use xlink:href="#SVGID_3_"  style="overflow:visible;"/>
	</clipPath>
	<linearGradient id="SVGID_5_" gradientUnits="userSpaceOnUse" x1="1365.9812" y1="113.1912" x2="1055.3134" y2="-724.5915">
		<stop  offset="0" style="stop-color:#7385C1"/>
		<stop  offset="1" style="stop-color:#4B70B6"/>
	</linearGradient>
	<rect x="727.1" y="-596" class="st21" width="973" height="596.5"/>
</g>
<g>
	<linearGradient id="SVGID_6_" gradientUnits="userSpaceOnUse" x1="755.3438" y1="-79.7588" x2="900.6787" y2="-79.7588">
		<stop  offset="0" style="stop-color:#4B70B6"/>
		<stop  offset="1" style="stop-color:#7385C1"/>
	</linearGradient>
	<path class="st22" d="M804.6-119.9c0,0-16.4,8.5-27.2,12.1c0,0-17.8,21.5-22.1,68.2H786l114.7-4.9c0,0,1.1-29.7-13.2-59.1
		c0,0-16.6-6.6-26.1-13.6"/>
	<path class="st23" d="M866-84.3c0,0,1.8,30.1-5.9,46.2l13.6-3.6l3.4-12.5l-4.5-20.2L866-84.3z"/>
	<path class="st23" d="M770.2-77.7c0,0-6,21.8-6.9,38.1h43.2l-17-17.1l-14-13.2L770.2-77.7z"/>
	<g>
		<linearGradient id="SVGID_7_" gradientUnits="userSpaceOnUse" x1="889.7628" y1="-63.6575" x2="882.2329" y2="-36.3285">
			<stop  offset="0" style="stop-color:#FFEBD3"/>
			<stop  offset="1" style="stop-color:#FDDCB8"/>
		</linearGradient>
		<path class="st24" d="M872.6-63.6c0,0,1.3,17,0,24l28.1-1.5c0,0,1.2-10.8-1.2-21.2c-5.6-0.2-15-1.8-16-3.9L872.6-63.6z"/>
	</g>
	<g>
		<linearGradient id="SVGID_8_" gradientUnits="userSpaceOnUse" x1="799.9586" y1="-73.5522" x2="894.928" y2="-73.5522">
			<stop  offset="0" style="stop-color:#4B70B6"/>
			<stop  offset="1" style="stop-color:#7385C1"/>
		</linearGradient>
		<path class="st25" d="M865-86.8c0,0,5.5,12.3,5.9,26.1c0,0,10.2,1.4,28.6-1.7"/>
		<path class="st2" d="M865-86.8c1.1,2,2,4.1,2.8,6.2c0.8,2.1,1.5,4.3,2.1,6.5c0.6,2.2,1.1,4.4,1.4,6.7c0.4,2.2,0.5,4.5,0.7,6.8
			l-0.9-1c2.3,0.2,4.7,0.3,7,0.3c2.4,0,4.7,0,7.1-0.1c2.4-0.1,4.8-0.2,7.1-0.4l7.2-0.5c-2.3,0.6-4.7,1.1-7,1.5
			c-2.4,0.4-4.8,0.7-7.2,1c-2.4,0.2-4.8,0.4-7.2,0.4c-2.4,0-4.8,0-7.3-0.3l-0.8-0.1l0-0.9c-0.2-4.4-0.7-8.8-1.6-13.2
			C867.5-78.2,866.3-82.5,865-86.8z"/>
	</g>
	<g>
		<path class="st26" d="M820.7-162.6h24c0,0-4.8,30.4,16.6,45.5c0,0-8.3,11.5-20.6,19.3c0,0-23.2-5.7-36.1-22.1
			C804.6-119.9,819.5-136.7,820.7-162.6z"/>
	</g>
	<g>
		<linearGradient id="SVGID_9_" gradientUnits="userSpaceOnUse" x1="835.3759" y1="-155.8746" x2="831.7665" y2="-99.2649">
			<stop  offset="0" style="stop-color:#FFEBD3"/>
			<stop  offset="1" style="stop-color:#FDDCB8"/>
		</linearGradient>
		<path class="st27" d="M820.7-162.6h24c0,0-4.8,30.4,16.6,45.5c0,0-8.3,11.5-20.6,19.3c0,0-23.2-5.7-36.1-22.1
			C804.6-119.9,819.5-136.7,820.7-162.6z"/>
	</g>
	<g>
		<path class="st26" d="M871-189.7c0,0-1.7,26.1-15.6,38.4c-13.9,12.2-31.8,7.3-40.7,4.9l-0.5-52.3L871-189.7z"/>
	</g>
	<g>
		<linearGradient id="SVGID_11_" gradientUnits="userSpaceOnUse" x1="845.5704" y1="-152.5835" x2="830.4691" y2="-193.3076">
			<stop  offset="0" style="stop-color:#FFEBD3"/>
			<stop  offset="1" style="stop-color:#FDDCB8"/>
		</linearGradient>
		<path class="st28" d="M865-189.6c0,0-15.8-1.2-22.3,4c-6.5,5.2-11.8,35.4-18.3,41.5l-9.6-2.3l3.5-42l27.2-9.5L865-189.6z"/>
	</g>
	<path class="st29" d="M871-189.7c0,0-19.5,0-28.4,0.3S829.7-175,829.7-175s0.4-4.5-4.5-4s-6.6,6-5.9,10.3c0.6,3.4,4.7,6.8,4.7,6.8
		s-3.1,14.9-7.1,21.5c0,0-16.4-13.8-7.4-43.9c0,0-12.6-10.3-4.7-26.7c7.9-16.4,26.5-11.1,29.3-5.8c0,0,2.6-16.6,21.5-13.4
		c18.9,3.2,14.2,17.5,14.2,17.5s12.3-1.4,13.5,10.3C884.6-190.8,871-189.7,871-189.7z"/>
	<g>
		<path class="st26" d="M784.2-56.1c0,0,10.5,19.7,30.9,32c0,0,17.2,4.9,73.1-8.7c0,0,11.5-1.9,22.9,1.3l11.5-0.2
			c0,0-9.6-24.3-35.9-12.3c0,0-27.6-4.1-60.8-0.5c0,0-7.6-13.6-19.5-24.9L784.2-56.1z"/>
	</g>
	<g>
		<linearGradient id="SVGID_12_" gradientUnits="userSpaceOnUse" x1="768.0909" y1="-77.7194" x2="840.1981" y2="-77.7194">
			<stop  offset="0" style="stop-color:#4B70B6"/>
			<stop  offset="1" style="stop-color:#7385C1"/>
		</linearGradient>
		<path class="st30" d="M768.1-78.7c0,0,5.7,17.6,11,24.4c0,0,21.7-7.6,31.9-14.9c0,0-12.7-23.1-14.7-32"/>
		<path class="st2" d="M768.1-78.7c0.8,2.1,1.7,4.2,2.5,6.2c0.9,2.1,1.8,4.1,2.7,6.1c0.9,2,1.9,4,3,6c1.1,1.9,2.2,3.9,3.5,5.6
			l-0.9-0.3c2.7-1,5.5-2.1,8.2-3.2c2.7-1.1,5.4-2.2,8.1-3.5c5.3-2.4,10.6-4.9,15.4-8.2l-0.3,1.2c-2.8-5.2-5.4-10.5-7.8-15.9
			c-1.2-2.7-2.4-5.4-3.4-8.2c-1-2.8-2.1-5.6-2.6-8.5c0.8,2.8,2,5.5,3.2,8.2c1.3,2.7,2.6,5.3,3.9,7.9c2.7,5.2,5.5,10.4,8.3,15.5
			l0.4,0.7l-0.7,0.5c-2.4,1.8-5,3.2-7.7,4.6c-2.6,1.4-5.3,2.6-8,3.8c-2.7,1.2-5.4,2.3-8.2,3.4c-2.8,1.1-5.5,2.1-8.3,3l-0.6,0.2
			l-0.3-0.5c-1.4-1.9-2.4-3.9-3.5-5.9c-1-2-1.9-4.1-2.7-6.2c-0.8-2.1-1.6-4.2-2.3-6.4C769.4-74.4,768.7-76.5,768.1-78.7z"/>
	</g>
</g>
<g id="Page-1_21_">
	<g id="A4_21_" transform="translate(-371.000000, -233.000000)">
		<g id="Group_1_" transform="translate(371.000000, 233.000000)">
			
				<linearGradient id="Oval_29_" gradientUnits="userSpaceOnUse" x1="182.1946" y1="596.3372" x2="182.1946" y2="595.204" gradientTransform="matrix(32.339 -13.3863 -14.1512 -34.1869 3400.5923 22543.1055)">
				<stop  offset="0" style="stop-color:#6878B9"/>
				<stop  offset="1" style="stop-color:#5F6EB3"/>
			</linearGradient>
			<path id="Oval_21_" class="st31" d="M869.7-244c10.5-9.2,13.7-18.7,9.7-28.4c-4.1-9.9-15.6-14.6-25.8-10.4s-15,15.6-10.9,25.6
				C846.8-247.5,855.8-243.1,869.7-244z"/>
			<path id="hospital_1_" class="st2" d="M873.5-263.9c0.4-0.2,0.6-0.7,0.4-1.2l-2.9-6.9c-0.8-1.9-2.8-2.8-4.5-2.1l-2.7,1.1
				l-0.5-1.3c-0.8-1.9-2.8-2.8-4.5-2.1l-7.6,3.2c-1.7,0.7-2.4,2.8-1.6,4.7l6.6,15.8c0.6,1.4,2.1,2.1,3.3,1.6l3.1-1.3
				c0.4-0.2,0.6-0.7,0.4-1.2l-1.1-2.6l1.5-0.6l1.1,2.6c0.2,0.5,0.7,0.7,1.1,0.5l8.9-3.7c1.3-0.5,1.8-2.1,1.2-3.5
				c-0.2-0.5-0.7-0.7-1.1-0.5c-0.4,0.2-0.6,0.7-0.4,1.2c0.2,0.5,0,1-0.4,1.2l-3.6,1.5c0-0.3-0.1-0.6-0.2-0.9l-5.3-12.9l2.7-1.1
				c0.8-0.3,1.8,0.1,2.2,1.1l2.9,6.9C872.6-263.9,873.1-263.7,873.5-263.9z M868.3-257.8c0.2,0.5,0,1-0.4,1.2l-2.3,0.9l-1.1-2.6
				c-0.2-0.5-0.7-0.7-1.1-0.5l-3.1,1.3c-0.4,0.2-0.6,0.7-0.4,1.2l1.1,2.6l-2.3,0.9c-0.4,0.2-0.9-0.1-1.1-0.5l-6.5-15.8
				c-0.4-0.9,0-2,0.8-2.3l7.6-3.2c0.8-0.3,1.8,0.1,2.2,1.1L868.3-257.8z M858.2-264.5l1.6-0.6l0.7,1.7l-1.6,0.6L858.2-264.5z
				 M861.4-265.8l1.6-0.6l0.7,1.7l-1.6,0.6L861.4-265.8z M855.4-263.3l1.6-0.6l0.7,1.7l-1.6,0.6L855.4-263.3z M859.6-261.3l1.6-0.6
				l0.7,1.7l-1.6,0.6L859.6-261.3z M862.7-262.6l1.6-0.6l0.7,1.7l-1.6,0.6L862.7-262.6z M869.6-267.2l-1.6,0.6l-0.7-1.7l1.6-0.6
				L869.6-267.2z M871-264l-1.6,0.6l-0.7-1.7l1.6-0.6L871-264z M870.1-261.6l1.6-0.6l0.7,1.7l-1.6,0.6L870.1-261.6z M856.7-260.1
				l1.6-0.6l0.7,1.7l-1.6,0.6L856.7-260.1z M859.8-270.3c0.2,0.5,0,1-0.4,1.2l-0.8,0.3l0.4,0.9c0.2,0.5,0,1-0.4,1.2
				c-0.4,0.2-0.9-0.1-1.1-0.5l-0.4-0.9l-0.8,0.3c-0.4,0.2-0.9-0.1-1.1-0.5c-0.2-0.5,0-1,0.4-1.2l0.8-0.3l-0.4-0.9
				c-0.2-0.5,0-1,0.4-1.2s0.9,0.1,1.1,0.5l0.4,0.9l0.8-0.3C859.1-271,859.6-270.8,859.8-270.3z"/>
		</g>
	</g>
</g>
<g id="Page-1_20_">
	<g id="A4_20_" transform="translate(-465.000000, -309.000000)">
		<g id="Group-3_3_" transform="translate(465.000000, 309.000000)">
			<path id="Oval_20_" class="st32" d="M917.7-201.1c11.5-9.1,15.5-18.8,11.8-29.2c-3.7-10.7-15.6-16.2-26.4-12.4
				c-10.9,3.8-16.6,15.5-12.9,26.2C893.9-206.1,903.1-201,917.7-201.1z"/>
			<g id="shopping-cart-2_3_" transform="translate(7.000000, 6.937500)">
				<path id="Shape_19_" class="st2" d="M898.2-222.6l14.5-5.1c0.1,0,0.2-0.1,0.3-0.2c0,0,0,0,0,0c0.1-0.1,0.1-0.1,0.2-0.2
					c0,0,0,0,0,0c0-0.1,0.1-0.2,0.1-0.2c0,0,0,0,0,0c0-0.1,0-0.2,0-0.3c0,0,0,0,0,0l-0.7-10.8c0-0.3-0.2-0.7-0.5-0.9
					c-0.3-0.2-0.6-0.3-0.9-0.1l-16.4,5.7l-2.4-3.9c-0.3-0.4-0.8-0.6-1.2-0.5l-3.2,1.1c-0.5,0.2-0.8,0.8-0.6,1.4
					c0.2,0.6,0.8,0.9,1.3,0.7l2.4-0.9l2.4,3.9c0,0,0,0,0,0l4.8,7.9l-1,0.4c-1.4,0.5-2.2,2.1-1.6,3.7c0.5,1.5,2.1,2.3,3.6,1.8
					l1.4-0.5c0,0.4,0.1,0.9,0.2,1.3c0.6,1.8,2.6,2.8,4.3,2.2c1.7-0.6,2.6-2.6,2-4.4c-0.2-0.4-0.4-0.8-0.7-1.2l2.8-1
					c0,0.4,0.1,0.9,0.2,1.3c0.6,1.8,2.6,2.8,4.3,2.2s2.6-2.6,2-4.4c-0.6-1.8-2.6-2.8-4.3-2.2l-12.9,4.5c-0.4,0.1-0.7-0.1-0.9-0.4
					S897.9-222.5,898.2-222.6z M910.8-238l0.5,8.5l-10.8,3.8l-4.4-7.1L910.8-238z M905.3-219.8c0.2,0.7-0.1,1.4-0.7,1.7
					c-0.6,0.2-1.4-0.1-1.6-0.8c-0.2-0.7,0.1-1.4,0.7-1.7C904.4-220.9,905.1-220.5,905.3-219.8z M913.2-221.2
					c-0.6,0.2-1.4-0.1-1.6-0.8c-0.2-0.7,0.1-1.4,0.7-1.7c0.6-0.2,1.4,0.1,1.6,0.8C914.2-222.2,913.9-221.4,913.2-221.2z"/>
				<path id="Shape_18_" class="st2" d="M905.7-229.2c0.6-0.2,0.9-0.8,0.7-1.4l-0.8-2.3c-0.2-0.6-0.8-0.9-1.4-0.7
					c-0.6,0.2-0.9,0.8-0.7,1.4l0.8,2.3C904.6-229.3,905.2-229,905.7-229.2z"/>
				<path id="Shape_17_" class="st2" d="M900.8-228.4c0.3,0.5,0.8,0.7,1.2,0.5c0.1,0,0.1-0.1,0.2-0.1c0.5-0.3,0.6-1,0.3-1.5
					l-1.2-2.1c-0.3-0.5-1-0.7-1.4-0.4c-0.5,0.3-0.6,1-0.3,1.5L900.8-228.4z"/>
				<path id="Shape_16_" class="st2" d="M908.9-230.4c0.1,0,0.1,0,0.2,0c0.4-0.2,0.7-0.6,0.7-1.2l-0.3-2.4c-0.1-0.6-0.6-1.1-1.2-1
					c-0.6,0.1-1,0.6-0.9,1.2l0.3,2.4C907.8-230.7,908.3-230.3,908.9-230.4z"/>
			</g>
		</g>
	</g>
</g>
<g id="Page-1_19_">
	<g id="A4_19_" transform="translate(-467.000000, -235.000000)">
		<g id="Group-4_3_" transform="translate(467.000000, 235.000000)">
			
				<linearGradient id="Oval_30_" gradientUnits="userSpaceOnUse" x1="183.9776" y1="593.5862" x2="183.9776" y2="592.6183" gradientTransform="matrix(32.5384 -12.8231 -13.5659 -34.4233 2996.5498 22625.6504)">
				<stop  offset="0" style="stop-color:#FDBD10"/>
				<stop  offset="1" style="stop-color:#F5841F"/>
			</linearGradient>
			<path id="Oval_19_" class="st33" d="M943.5-133.4c9.1-7.7,12-15.7,8.7-24.1c-3.4-8.5-13.1-12.7-21.8-9.3
				c-8.7,3.4-13,13.1-9.7,21.7C924-136.7,931.6-132.9,943.5-133.4z"/>
			<path id="dinner_3_" class="st2" d="M943.3-164.5c-0.2-0.1-0.4,0-0.6,0.1c-1.1,1-1.8,2.3-2.1,3.7c-2.2-1-4.7-1-7-0.1
				c-1.1,0.4-2.2,1.1-3,2c-0.5,0.5-0.9,1-1.3,1.6l-0.4-1c-0.1-0.4-0.5-0.5-0.9-0.4c-0.3,0.1-0.5,0.5-0.4,0.9l1.3,3.2l-1.2,0.5
				l-1.3-3.2c-0.1-0.4-0.5-0.5-0.9-0.4c-0.3,0.1-0.5,0.5-0.4,0.9l1.3,3.2l-1.2,0.5l-1.3-3.2c-0.1-0.4-0.5-0.5-0.9-0.4
				c-0.3,0.1-0.5,0.5-0.4,0.9c0.2,0.4,1.8,4.5,2,5.1c0.4,1.1,1.6,1.6,2.6,1.2l0.6-0.2l1.1,2.7c-0.6,0.5-0.8,1.5-0.5,2.3l1.5,3.9
				c0.4,1.1,1.6,1.6,2.6,1.2c1-0.4,1.5-1.6,1.1-2.7l-0.3-0.8c2.4,1.1,5,1.2,7.3,0.3c2.3-0.9,4.2-2.7,5.1-5.2l0.3,0.8
				c0.4,1.1,1.6,1.6,2.6,1.2c1-0.4,1.5-1.6,1.1-2.7l-2-5.1l-4.1-10.3C943.7-164.3,943.5-164.4,943.3-164.5z M927.1-150.7
				c-0.4,0.1-0.8-0.1-0.9-0.5l-0.3-0.7l3.9-1.5l0.3,0.7c0.2,0.4,0,0.9-0.4,1L927.1-150.7z M932.7-142.1c0.1,0.3-0.1,0.8-0.5,0.9
				s-0.8,0-0.9-0.4l-1.5-3.8c-0.1-0.3,0.1-0.8,0.5-0.9c0.4-0.2,0.8,0,0.9,0.4L932.7-142.1z M945.4-150c-0.5,2.7-2.4,4.9-4.9,5.9
				c-2.5,1-5.4,0.6-7.6-1l-0.4-1c-0.3-0.8-1.1-1.3-2-1.3l-1.1-2.7l0.6-0.2c1-0.4,1.5-1.6,1.1-2.7c-0.6-1.5-0.4-1-1-2.5
				c0.9-1.8,2.4-3.2,4.2-3.9c2.1-0.8,4.4-0.7,6.4,0.2c0,0.8,0.2,1.7,0.5,2.5l1.9,4.9c0.1,0.4,0.5,0.5,0.9,0.4l0.6-0.2L945.4-150z
				 M948.7-148.4c0.1,0.3-0.1,0.8-0.5,0.9c-0.4,0.2-0.8,0-0.9-0.4l-1.7-4.4l1.4-0.6L948.7-148.4z M946.5-153.9
				c-0.8,0.3-1.8,0.7-2.5,1l-1.7-4.2c-0.7-1.8-0.4-3.9,0.8-5.3L946.5-153.9z M941-152.3c0,0.2,0.1,0.7,0.3,0.9
				c0.4,0.4,0.7,0.8,0.8,1.2c0.7,1.8-0.1,3.7-1.8,4.4c-1.4,0.6-3,0.1-3.9-1.2c-0.2-0.3-0.5-0.6-1-0.7c-1.9-0.4-3.3-1.9-3.7-3.9
				c-0.4-1.9,0.5-3.9,2.1-4.9c2.5-1.6,5.8-0.4,6.9,2.4C940.8-153.4,941-152.8,941-152.3z M940.5-150.4c-0.5-0.5-0.8-1.1-0.8-1.9
				c0-0.4-0.1-0.8-0.3-1.2c-0.8-2-3.1-2.9-4.9-1.8c-1.1,0.7-1.7,2.2-1.4,3.5c0.3,1.4,1.3,2.5,2.7,2.8c0.7,0.2,1.3,0.6,1.8,1.3
				c0.5,0.8,1.5,1.1,2.3,0.7c1-0.4,1.5-1.6,1.1-2.7C940.9-149.9,940.8-150.2,940.5-150.4z M935.7-154.1c1.1-0.4,2.3,0.1,2.7,1.1
				c0.4,1.1-0.1,2.3-1.2,2.7c-1.1,0.4-2.3-0.1-2.7-1.1C934.1-152.5,934.6-153.7,935.7-154.1z M936.9-151.5c0.4-0.2,0.6-0.6,0.4-1
				c-0.2-0.4-0.6-0.6-1-0.5c-0.4,0.2-0.6,0.6-0.4,1C936.1-151.6,936.5-151.4,936.9-151.5z"/>
		</g>
	</g>
</g>
<g id="Page-1_18_">
	<g id="A4_18_" transform="translate(-337.000000, -314.000000)">
		<g id="Group-5_3_" transform="translate(337.000000, 314.000000)">
			<path id="Oval_18_" class="st34" d="M982.8-209.8c14.1-7.5,20.2-17.2,18.3-29c-2-12.2-13.6-20.4-26-18.4
				c-12.4,2-20.8,13.5-18.9,25.6C958.2-219.7,967-212.5,982.8-209.8z"/>
			<path id="school_3_" class="st2" d="M993.2-231.3c0.5-0.1,0.9,0.2,1,0.7l0.8,5.1c0.1,0.5-0.2,0.9-0.7,1c-0.8,0.1-26.5,4.3-27,4.3
				c-0.5,0.1-0.9-0.2-1-0.7l-0.8-5.1c-0.1-0.5,0.2-0.9,0.7-1l2.6-0.4l-1.1-6.8l-0.8,0.1c-0.5,0.1-0.9-0.2-1-0.7l-0.5-3.4
				c-0.1-0.3,0.1-0.7,0.4-0.9l10.5-6.6c-0.1-0.6-0.7-4.1-0.7-4.5c-0.1-0.5,0.2-0.9,0.7-1l5-0.8c0.5-0.1,0.9,0.2,1,0.7
				c0.4,2.3-1.2,4.5-3.5,4.9l-0.8,0.1l0,0.3l12.1,3c0.3,0.1,0.6,0.4,0.6,0.7l0.5,3.4c0.1,0.5-0.2,0.9-0.7,1l-0.8,0.1l1.1,6.8
				L993.2-231.3z M977.1-249.2l0.3,1.9l0.8-0.1c1.1-0.2,1.8-1.1,2-2.2L977.1-249.2z M978.4-239.2c-0.5,0.1-1-0.3-1.1-0.8
				c-0.1-0.5,0.3-1,0.8-1.1c0.5-0.1,1,0.3,1.1,0.8C979.2-239.8,978.9-239.3,978.4-239.2z M981.5-239.7c-0.5,0.1-1-0.3-1.1-0.8
				c-0.1-0.5,0.3-1,0.8-1.1s1,0.3,1.1,0.8C982.4-240.3,982-239.8,981.5-239.7z M974.6-238.6c-0.5,0.1-1-0.3-1.1-0.8
				c-0.1-0.5,0.3-1,0.8-1.1c0.5-0.1,1,0.3,1.1,0.8C975.5-239.2,975.2-238.7,974.6-238.6z M966.8-237.5l0.3,2
				c0.8-0.1,20.6-3.3,21.8-3.5l-0.3-2l-11.7-3.1L966.8-237.5z M987.9-237.5l-1.9,0.3l1.1,6.9l1.9-0.3L987.9-237.5z M973-223
				l-0.5-3.1c-0.6,0.1-4.4,0.7-5,0.8l0.5,3.1L973-223z M972.2-228l-1.1-6.9l-1.9,0.3l1.1,6.9L972.2-228z M976.8-223.6l0.7-3.3
				l-3.1,0.5l0.5,3.1L976.8-223.6z M978-223.8l4.4-0.7l-1.6-2.9l-2.1,0.3L978-223.8z M979-229.1l1.9-0.3l-0.4-2.3
				c-0.1-0.4-0.5-0.7-1.1-0.6c-0.5,0.1-0.9,0.5-0.8,0.9L979-229.1z M986.7-225.2l-0.5-3.1l-3.1,0.5l1.7,2.9L986.7-225.2z
				 M985.9-230.2l-1.1-6.9l-11.8,1.9l1.1,6.9l3.4-0.5l-0.4-2.6c-0.2-1.4,0.7-2.7,2.1-3c1.4-0.2,2.7,0.7,2.9,2.1l0.4,2.6L985.9-230.2
				z M992.9-226.2l-0.5-3.1c-0.6,0.1-4.4,0.7-5,0.8l0.5,3.1L992.9-226.2z"/>
		</g>
	</g>
</g>
<g id="Page-1_17_">
	<g id="A4_17_" transform="translate(-413.000000, -386.000000)">
		<g id="Group-6_1_" transform="translate(413.000000, 386.000000)">
			<path id="Oval_17_" class="st35" d="M1128.8-184.1c10.1,2.5,17.3,0.5,21.6-6.1c4.3-6.8,2.3-15.8-4.6-20.3
				c-6.9-4.4-16-2.5-20.3,4.2C1121.2-199.7,1122.4-192.3,1128.8-184.1z"/>
			<g id="bus-solid_1_" transform="translate(6.000000, 6.000000)">
				<path id="Shape_15_" class="st2" d="M1141.9-203.3l-0.3-0.2l1-1.5c0.9-1.4-1.5-4.6-5.5-7.2s-7.9-3.5-8.8-2.1l-1,1.5l-0.3-0.2
					c-0.4-0.3-1-0.2-1.3,0.3l-1.6,2.6c-0.3,0.4-0.2,1,0.3,1.3l0.3,0.2l-3.3,5.1c-0.4,0.6-0.2,1.3,0.4,1.7l-0.7,1
					c-0.4,0.6-0.2,1.3,0.4,1.7l1,0.7c0.6,0.4,1.3,0.2,1.7-0.4l0.7-1l6.1,4l-0.7,1c-0.4,0.6-0.2,1.3,0.4,1.7l1,0.7
					c0.6,0.4,1.3,0.2,1.7-0.4l0.7-1l0.2,0.1c0.5,0.3,1.1,0.1,1.3-0.3l3.4-5.3l0.3,0.2c0.4,0.3,1,0.2,1.3-0.3l1.6-2.6
					C1142.4-202.5,1142.3-203,1141.9-203.3z M1124.2-202.4c-0.6-0.4-0.7-1.1-0.4-1.7c0.4-0.6,1.1-0.7,1.7-0.4s0.7,1.1,0.4,1.7
					C1125.5-202.2,1124.8-202,1124.2-202.4z M1127-205.6c-0.6-0.4-0.7-1.1-0.4-1.7l2.6-4.1c0.4-0.6,1.1-0.7,1.7-0.4l8.2,5.3
					c0.6,0.4,0.7,1.1,0.4,1.7l-2.6,4.1c-0.4,0.6-1.1,0.7-1.7,0.4L1127-205.6z M1133.4-196.4c-0.6-0.4-0.7-1.1-0.4-1.7
					c0.4-0.6,1.1-0.7,1.7-0.4s0.7,1.1,0.4,1.7C1134.8-196.2,1134-196.1,1133.4-196.4z"/>
			</g>
		</g>
	</g>
</g>
<g id="Page-1_16_">
	<g id="A4_16_" transform="translate(-489.000000, -386.000000)">
		<g id="Group-7_1_" transform="translate(489.000000, 386.000000)">
			<path id="Oval_16_" class="st36" d="M1059.9-179.4c12.4-1.7,19.5-7.1,21.3-16.3c1.9-9.4-4.4-18.6-14-20.5
				c-9.6-1.9-18.9,4.2-20.8,13.6C1044.6-193.4,1049.1-185.6,1059.9-179.4z"/>
			<g id="subway-solid_1_" transform="translate(6.000000, 5.000000)">
				<path id="Shape_14_" class="st2" d="M1069.8-209.5l-2.5,12.4c-0.5,2.5-3.9,4.1-7.3,3.4l2.6,3c0.2,0.3,0,0.7-0.4,0.6l-1.4-0.3
					l-3.3-3.7l-4.2-0.8l-4.4,2.2l-1.5-0.3c-0.4-0.1-0.4-0.6-0.1-0.7l3.6-1.8c-3.3-0.7-5.9-3.4-5.4-5.9l2.5-12.4
					c0.5-2.6,4.1-4,7.2-3.4l9.4,1.9C1067.6-214.8,1070.3-212.1,1069.8-209.5z M1056.3-205.3l1.1-5.4c0.1-0.6-0.3-1.3-0.9-1.4l-5.1-1
					c-0.6-0.1-1.3,0.3-1.4,0.9l-1.1,5.4c-0.1,0.6,0.3,1.3,0.9,1.4l5.1,1C1055.6-204.2,1056.2-204.6,1056.3-205.3z M1066.1-203.3
					l1.1-5.4c0.1-0.6-0.3-1.3-0.9-1.4l-5.1-1c-0.6-0.1-1.3,0.3-1.4,0.9l-1.1,5.4c-0.1,0.6,0.3,1.3,0.9,1.4l5.1,1
					C1065.4-202.3,1066-202.7,1066.1-203.3z M1063.2-201.1c-1.3-0.3-2.6,0.6-2.8,1.9c-0.3,1.3,0.6,2.5,1.9,2.8s2.6-0.6,2.8-1.9
					C1065.4-199.6,1064.5-200.8,1063.2-201.1z M1050.7-203.6c-1.3-0.3-2.6,0.6-2.8,1.9c-0.3,1.3,0.6,2.5,1.9,2.8
					c1.3,0.3,2.6-0.6,2.8-1.9S1052-203.3,1050.7-203.6z"/>
			</g>
		</g>
	</g>
</g>
<g id="Page-1_15_">
	<g id="A4_15_" transform="translate(-410.000000, -233.000000)">
		<g id="Group-2_3_" transform="translate(410.000000, 233.000000)">
			
				<linearGradient id="Oval_31_" gradientUnits="userSpaceOnUse" x1="182.6816" y1="599.4227" x2="182.6816" y2="600.5516" gradientTransform="matrix(34.9638 -0.8449 -0.8938 -36.9892 -4841.667 22184.7793)">
				<stop  offset="0" style="stop-color:#01B1BB"/>
				<stop  offset="1" style="stop-color:#23BFD8"/>
			</linearGradient>
			<path id="Oval_15_" class="st37" d="M1009.8-141.7c13-4.8,19.4-12.4,19.2-22.9c-0.3-10.7-9.3-19.2-20.2-18.9
				c-10.9,0.3-19.5,9.2-19.3,19.9C989.8-153.2,996.5-145.9,1009.8-141.7z"/>
			<path id="family_3_" class="st2" d="M1022.2-157.2c-0.8-0.8-1.4-1.7-1.9-2.7c0.3-0.4,0.5-1,0.5-1.6l-0.1-4.9c-0.1-2.2-1.8-4-4-4
				l-2.3,0.1l-0.8,0c-1,0-1.9,0.4-2.5,1.1c-0.6-1.5-2-2.6-3.7-2.6l-2.3,0.1l-3.9,0.1c-2.1,0.1-3.8,1.9-3.8,4.2l0.2,6.5
				c0,1.3,1.1,2.4,2.4,2.4c0.4,0,0.7-0.1,1.1-0.3c0.1,0,0.1,0.1,0.2,0.1l1.1,0.5l0.1,5.4c0,1.3,1.1,2.4,2.4,2.4l10.9-0.3
				c1.3,0,2.3-1.1,2.3-2.5l-0.1-2.5l3.9-0.1c0.3,0,0.6-0.2,0.7-0.5C1022.5-156.6,1022.4-157,1022.2-157.2z M1011.4-164.5l0-1.7
				c0-1.3,1-2.5,2.3-2.5l3.1-0.1c1.3,0,2.4,1,2.4,2.4l0.1,4.9c0,0.4-0.3,0.8-0.8,0.8c-0.4,0-0.8-0.3-0.8-0.8c0-0.2-0.1-2.8-0.1-3.2
				c0-0.4-0.4-0.8-0.8-0.8c-0.4,0-0.8,0.4-0.8,0.8l0,0.7l-3.8,1.8c0,0,0,0,0,0c0-0.8-0.3-1.6-0.9-2.2
				C1011.4-164.3,1011.4-164.4,1011.4-164.5z M1010.7-162c0,0.9-0.7,1.6-1.5,1.7c-0.9,0-1.6-0.7-1.6-1.6c0-0.9,0.7-1.6,1.5-1.7
				C1009.9-163.6,1010.6-162.9,1010.7-162z M1001.2-166.7c-0.4,0-0.8,0.4-0.8,0.8c0,1,0.1,4,0.1,4.9c0,0.4-0.3,0.8-0.8,0.8
				c-0.4,0-0.8-0.3-0.8-0.8l-0.2-6.5c0-1.3,1-2.5,2.3-2.5l6.2-0.2c1.3,0,2.4,1,2.4,2.4c0,0.8,0.1,2.1,0.1,2.6
				c-0.2-0.1-0.5-0.1-0.8-0.1c-1.7,0-3.1,1.5-3,3.3c0,0,0,0,0,0l-3.9-1.6l-0.1-2.4C1002-166.4,1001.7-166.7,1001.2-166.7z
				 M1005.5-152.1l-0.8,0c-0.4,0-0.8-0.3-0.8-0.8l-0.1-4.7l1.6,0.7L1005.5-152.1z M1011.5-157.6l0.1,5.4l-4.7,0.1l-0.1-5.4
				c0-0.3-0.2-0.6-0.5-0.7c-0.4-0.2-4-1.7-4.4-1.8c0.1-0.3,0.2-0.6,0.2-0.9l0-0.8l4.7,2c0.6,0.7,1.4,1.1,2.4,1.1
				c0.9,0,1.8-0.5,2.3-1.2l4.6-2.2l0,0.8c0,0.3,0.1,0.6,0.2,0.9l-4.3,2.1C1011.7-158.2,1011.5-157.9,1011.5-157.6z M1017-157.3
				c-0.4,0-0.8,0.4-0.8,0.8l0.1,3.3c0,0.4-0.3,0.8-0.8,0.8l-2.3,0.1l-0.1-4.8l4-1.9c0.1-0.1,0.2-0.1,0.3-0.2
				c0.3,0.2,0.7,0.3,1.1,0.3c0.2,0,0.3,0,0.4-0.1c0.3,0.6,0.6,1.1,1,1.6L1017-157.3z M1004.8-178.2c1.7,0,3.1,1.4,3.2,3.2
				s-1.3,3.3-3,3.3c-1.7,0-3.1-1.4-3.2-3.2S1003.1-178.1,1004.8-178.2z M1004.9-173.3c0.9,0,1.5-0.8,1.5-1.7c0-0.9-0.7-1.6-1.6-1.6
				c-0.9,0-1.5,0.8-1.5,1.7C1003.4-174,1004.1-173.3,1004.9-173.3z M1014.2-176.8c1.7,0,3.1,1.4,3.2,3.2c0,1.8-1.3,3.3-3,3.3
				c-1.7,0-3.1-1.4-3.2-3.2C1011.1-175.2,1012.5-176.7,1014.2-176.8z M1014.3-171.9c0.9,0,1.5-0.8,1.5-1.7c0-0.9-0.7-1.6-1.6-1.6
				c-0.9,0-1.5,0.8-1.5,1.7C1012.7-172.6,1013.4-171.9,1014.3-171.9z"/>
		</g>
	</g>
</g>
<g id="Page-1_14_">
	<g id="A4_14_" transform="translate(-410.000000, -233.000000)">
		<g id="Group-2_2_" transform="translate(410.000000, 233.000000)">
			
				<linearGradient id="Oval_32_" gradientUnits="userSpaceOnUse" x1="185.6557" y1="589.2391" x2="185.6557" y2="589.7488" gradientTransform="matrix(21.9894 -27.1965 -28.7719 -23.2632 13659.7188 18549.6055)">
				<stop  offset="0" style="stop-color:#01B1BB"/>
				<stop  offset="1" style="stop-color:#23BFD8"/>
			</linearGradient>
			<path id="Oval_14_" class="st38" d="M788.6-207.2c2.2-5.9,1.4-10.3-2.3-13.3c-3.8-3-9.3-2.4-12.4,1.4c-3.1,3.8-2.6,9.4,1.2,12.4
				C778.8-203.6,783.3-203.8,788.6-207.2z"/>
			<path id="family_2_" class="st2" d="M786.9-215.9c-0.5,0-1,0-1.5-0.1c-0.1-0.2-0.2-0.5-0.4-0.6l-1.7-1.4
				c-0.8-0.6-1.9-0.5-2.5,0.2l-0.7,0.8l-0.2,0.3c-0.3,0.3-0.4,0.8-0.4,1.2c-0.7-0.2-1.5-0.1-2,0.5l-0.7,0.8l-1.1,1.4
				c-0.6,0.8-0.5,1.9,0.3,2.5l2.3,1.9c0.5,0.4,1.2,0.3,1.5-0.1c0.1-0.1,0.2-0.3,0.2-0.5c0,0,0.1,0,0.1,0l0.5-0.2l1.9,1.5
				c0.5,0.4,1.2,0.3,1.5-0.1l3.1-3.8c0.4-0.5,0.3-1.1-0.2-1.5l-0.9-0.7l1.1-1.4c0.1-0.1,0.1-0.3,0-0.4S787.1-215.9,786.9-215.9z
				 M781.3-214.3l-0.6-0.5c-0.5-0.4-0.6-1.1-0.2-1.5l0.9-1.1c0.4-0.5,1-0.5,1.5-0.1l1.7,1.4c0.2,0.1,0.2,0.4,0.1,0.5
				c-0.1,0.2-0.3,0.2-0.5,0c-0.1,0-1-0.8-1.1-0.9c-0.2-0.1-0.4-0.1-0.5,0s-0.1,0.4,0.1,0.5l0.3,0.2l-0.5,1.9c0,0,0,0,0,0
				C782-214.2,781.7-214.3,781.3-214.3C781.3-214.3,781.3-214.3,781.3-214.3z M781.9-213.4c0.3,0.3,0.4,0.7,0.1,1
				c-0.2,0.3-0.7,0.3-1,0.1c-0.3-0.3-0.4-0.7-0.1-1C781.1-213.6,781.6-213.6,781.9-213.4z M777.5-211.5c-0.1,0.2-0.1,0.4,0.1,0.5
				c0.4,0.3,1.4,1.1,1.7,1.4c0.2,0.1,0.2,0.4,0.1,0.5c-0.1,0.2-0.3,0.2-0.5,0l-2.3-1.9c-0.5-0.4-0.6-1.1-0.2-1.5l1.8-2.2
				c0.4-0.5,1-0.5,1.5-0.1c0.3,0.2,0.7,0.6,0.9,0.7c-0.1,0.1-0.2,0.1-0.3,0.2c-0.5,0.6-0.4,1.5,0.3,2c0,0,0,0,0,0l-1.7,0.9l-0.8-0.7
				C777.9-211.7,777.6-211.7,777.5-211.5z M783.8-208.7l-0.2,0.3c-0.1,0.2-0.3,0.2-0.5,0l-1.7-1.3l0.7-0.3L783.8-208.7z
				 M783.7-212.4l1.9,1.5l-1.3,1.6l-1.9-1.5c-0.1-0.1-0.3-0.1-0.4,0c-0.2,0.1-1.7,0.9-1.9,1c-0.1-0.1-0.2-0.2-0.3-0.3l-0.3-0.2l2-1
				c0.4,0,0.8-0.2,1.1-0.5c0.3-0.3,0.4-0.7,0.3-1.1l0.6-2.2l0.3,0.2c0.1,0.1,0.2,0.2,0.4,0.2l-0.6,2.1
				C783.5-212.6,783.6-212.5,783.7-212.4z M785.4-214.2c-0.1,0.2-0.1,0.4,0.1,0.5l1.2,0.9c0.2,0.1,0.2,0.4,0.1,0.5l-0.7,0.8
				l-1.7-1.4l0.5-1.9c0-0.1,0-0.1,0-0.2c0.2-0.1,0.3-0.2,0.4-0.3c0-0.1,0.1-0.1,0.1-0.2c0.3,0.1,0.6,0.1,0.9,0.1L785.4-214.2z
				 M774.6-216.1c0.5-0.6,1.4-0.7,2-0.2c0.6,0.5,0.7,1.4,0.3,2s-1.4,0.7-2,0.2C774.3-214.6,774.1-215.5,774.6-216.1z M776.3-214.7
				c0.2-0.3,0.2-0.8-0.1-1c-0.3-0.3-0.8-0.2-1,0.1c-0.2,0.3-0.2,0.8,0.1,1C775.6-214.4,776.1-214.4,776.3-214.7z M777.8-218.9
				c0.5-0.6,1.4-0.7,2-0.2c0.6,0.5,0.7,1.4,0.3,2c-0.5,0.6-1.4,0.7-2,0.2C777.5-217.4,777.4-218.3,777.8-218.9z M779.6-217.5
				c0.2-0.3,0.2-0.8-0.1-1c-0.3-0.3-0.8-0.2-1,0.1s-0.2,0.8,0.1,1S779.3-217.2,779.6-217.5z"/>
		</g>
	</g>
</g>
<g id="Page-1_13_">
	<g id="A4_13_" transform="translate(-465.000000, -309.000000)">
		<g id="Group-3_2_" transform="translate(465.000000, 309.000000)">
			<path id="Oval_13_" class="st32" d="M1089-136.8c7.2,0.3,11.7-2,13.7-7.1c2-5.1-0.6-11-5.8-13c-5.2-2.1-11.1,0.5-13.1,5.6
				C1081.7-146.2,1083.5-141.4,1089-136.8z"/>
			<g id="shopping-cart-2_2_" transform="translate(7.000000, 6.937500)">
				<path id="Shape_13_" class="st2" d="M1082-153.1l7,2.7c0,0,0.1,0,0.1,0c0,0,0,0,0,0c0,0,0.1,0,0.1,0c0,0,0,0,0,0
					c0,0,0.1,0,0.1-0.1c0,0,0,0,0,0c0,0,0.1-0.1,0.1-0.1c0,0,0,0,0,0l3.2-4.2c0.1-0.1,0.1-0.3,0.1-0.5c0-0.2-0.2-0.3-0.3-0.4
					l-7.9-3.1l0.4-2.2c0-0.2-0.1-0.5-0.3-0.6l-1.6-0.6c-0.3-0.1-0.6,0-0.7,0.3s0,0.6,0.3,0.7l1.2,0.5l-0.4,2.2c0,0,0,0,0,0l-0.7,4.5
					l-0.5-0.2c-0.7-0.3-1.5,0.1-1.8,0.8c-0.3,0.7,0,1.5,0.7,1.8l0.7,0.3c-0.1,0.2-0.3,0.3-0.3,0.6c-0.3,0.9,0.1,1.9,0.9,2.2
					c0.8,0.3,1.8-0.1,2.1-1c0.1-0.2,0.1-0.4,0.1-0.6l1.4,0.5c-0.1,0.2-0.3,0.3-0.3,0.6c-0.3,0.9,0.1,1.9,0.9,2.2
					c0.8,0.3,1.8-0.1,2.1-1c0.3-0.9-0.1-1.9-0.9-2.2l-6.2-2.4c-0.2-0.1-0.3-0.3-0.2-0.4C1081.6-153.1,1081.8-153.2,1082-153.1z
					 M1091.5-154.8l-2.5,3.3l-5.2-2l0.6-4L1091.5-154.8z M1083.7-149.8c-0.1,0.3-0.5,0.5-0.8,0.4c-0.3-0.1-0.5-0.5-0.3-0.8
					c0.1-0.3,0.5-0.5,0.8-0.4C1083.7-150.5,1083.9-150.1,1083.7-149.8z M1087.1-147.8c-0.3-0.1-0.5-0.5-0.3-0.8
					c0.1-0.3,0.5-0.5,0.8-0.4c0.3,0.1,0.5,0.5,0.3,0.8S1087.4-147.7,1087.1-147.8z"/>
				<path id="Shape_12_" class="st2" d="M1086.9-153.2c0.3,0.1,0.6,0,0.7-0.3l0.4-1.1c0.1-0.3,0-0.6-0.3-0.7c-0.3-0.1-0.6,0-0.7,0.3
					l-0.4,1.1C1086.5-153.6,1086.6-153.3,1086.9-153.2z"/>
				<path id="Shape_11_" class="st2" d="M1084.8-154.5c0,0.3,0.1,0.5,0.3,0.6c0,0,0.1,0,0.1,0c0.3,0,0.5-0.2,0.6-0.5l0.2-1.2
					c0.1-0.3-0.1-0.6-0.4-0.6c-0.3,0-0.5,0.2-0.6,0.5L1084.8-154.5z"/>
				<path id="Shape_10_" class="st2" d="M1088.4-152.6C1088.4-152.6,1088.5-152.6,1088.4-152.6c0.3,0.1,0.6,0,0.7-0.2l0.6-1
					c0.2-0.3,0.1-0.6-0.1-0.7c-0.2-0.2-0.5-0.1-0.7,0.2l-0.6,1C1088.1-153.1,1088.2-152.8,1088.4-152.6z"/>
			</g>
		</g>
	</g>
</g>
<g id="Page-1_12_">
	<g id="A4_12_" transform="translate(-337.000000, -314.000000)">
		<g id="Group-5_2_" transform="translate(337.000000, 314.000000)">
			<path id="Oval_12_" class="st34" d="M819.5-249.5c3.9-7.2,3.8-13.1-0.4-17.7c-4.3-4.7-11.6-4.9-16.4-0.5
				c-4.8,4.4-5.1,11.7-0.8,16.4C806.1-246.8,812-246.2,819.5-249.5z"/>
			<path id="school_2_" class="st2" d="M817.9-261.7c0.2-0.2,0.5-0.2,0.6,0l1.8,2c0.2,0.2,0.2,0.5,0,0.6c-0.3,0.3-10.2,9.4-10.3,9.5
				c-0.2,0.2-0.5,0.2-0.6,0l-1.8-2c-0.2-0.2-0.2-0.5,0-0.6l1-0.9l-2.4-2.6l-0.3,0.3c-0.2,0.2-0.5,0.2-0.6,0l-1.2-1.3
				c-0.1-0.1-0.1-0.3-0.1-0.5l2.6-5.8c-0.2-0.2-1.4-1.6-1.6-1.7c-0.2-0.2-0.2-0.5,0-0.6l1.9-1.8c0.2-0.2,0.5-0.2,0.6,0
				c0.8,0.9,0.8,2.3-0.1,3.1l-0.3,0.3l0.1,0.1l6-2.1c0.2-0.1,0.3,0,0.5,0.1l1.2,1.3c0.2,0.2,0.2,0.5,0,0.6l-0.3,0.3l2.4,2.6
				L817.9-261.7z M805.9-264.8l0.7,0.7l0.3-0.3c0.4-0.4,0.5-1,0.2-1.5L805.9-264.8z M809.3-260.9c-0.2,0.2-0.5,0.2-0.7,0
				c-0.2-0.2-0.2-0.5,0-0.7c0.2-0.2,0.5-0.2,0.7,0C809.5-261.4,809.5-261.1,809.3-260.9z M810.4-262c-0.2,0.2-0.5,0.2-0.7,0
				c-0.2-0.2-0.2-0.5,0-0.7s0.5-0.2,0.7,0C810.7-262.5,810.6-262.2,810.4-262z M807.8-259.6c-0.2,0.2-0.5,0.2-0.7,0
				c-0.2-0.2-0.2-0.5,0-0.7s0.5-0.2,0.7,0C808-260.1,808-259.8,807.8-259.6z M804.8-256.9l0.7,0.8c0.3-0.3,7.9-7.3,8.4-7.7l-0.7-0.8
				l-5.9,2L804.8-256.9z M813.8-262.9l-0.7,0.7l2.4,2.6l0.7-0.7L813.8-262.9z M811.5-252.4l-1.1-1.2c-0.2,0.2-1.7,1.5-1.9,1.8
				l1.1,1.2L811.5-252.4z M809.8-254.3l-2.4-2.6l-0.7,0.7l2.4,2.6L809.8-254.3z M813-253.8l-0.7-1.6l-1.2,1.1l1.1,1.2L813-253.8z
				 M813.5-254.2l1.7-1.5l-1.5-0.8l-0.8,0.8L813.5-254.2z M812.4-256.7l0.7-0.7l-0.8-0.9c-0.1-0.2-0.4-0.1-0.6,0
				c-0.2,0.2-0.2,0.5-0.1,0.6L812.4-256.7z M816.8-257.2l-1.1-1.2l-1.2,1.1l1.5,0.8L816.8-257.2z M815-259.2l-2.4-2.6l-4.5,4.2
				l2.4,2.6l1.3-1.2l-0.9-1c-0.5-0.5-0.5-1.4,0.1-1.9c0.5-0.5,1.4-0.5,1.9,0.1l0.9,1L815-259.2z M819.2-259.4l-1.1-1.2
				c-0.2,0.2-1.7,1.5-1.9,1.8l1.1,1.2L819.2-259.4z"/>
		</g>
	</g>
</g>
<g id="Page-1_11_">
	<g id="A4_11_" transform="translate(-467.000000, -235.000000)">
		<g id="Group-4_2_" transform="translate(467.000000, 235.000000)">
			
				<linearGradient id="Oval_33_" gradientUnits="userSpaceOnUse" x1="171.4303" y1="600.5912" x2="171.4303" y2="600.0933" gradientTransform="matrix(22.4211 26.8416 28.3965 -23.72 -19727.5527 9512.7295)">
				<stop  offset="0" style="stop-color:#FDBD10"/>
				<stop  offset="1" style="stop-color:#F5841F"/>
			</linearGradient>
			<path id="Oval_11_" class="st39" d="M1156.7-120c5.2,3.2,9.6,3.3,13.2,0.4c3.6-3,4.1-8.5,1-12.2s-8.5-4.2-12.1-1.2
				C1155.1-130.1,1154.5-125.7,1156.7-120z"/>
			<path id="dinner_2_" class="st2" d="M1171.8-125.1c0-0.1-0.1-0.2-0.2-0.3c-0.7-0.4-1.4-0.5-2.1-0.4c0.1-1.2-0.3-2.5-1.1-3.4
				c-0.4-0.5-0.9-0.9-1.5-1.2c-0.3-0.2-0.7-0.3-1-0.4l0.4-0.3c0.2-0.1,0.2-0.3,0.1-0.5c-0.1-0.1-0.3-0.2-0.5,0l-1.4,1.1l-0.4-0.5
				l1.4-1.1c0.2-0.1,0.2-0.3,0.1-0.5c-0.1-0.1-0.3-0.2-0.5,0l-1.4,1.1l-0.4-0.5l1.4-1.1c0.2-0.1,0.2-0.3,0.1-0.5
				c-0.1-0.1-0.3-0.2-0.5,0c-0.2,0.2-1.9,1.6-2.2,1.8c-0.5,0.4-0.5,1-0.2,1.5l0.2,0.3l-1.1,1c-0.4-0.2-0.9-0.2-1.2,0.1l-1.6,1.4
				c-0.5,0.4-0.5,1-0.2,1.5c0.4,0.4,1,0.5,1.5,0.1l0.3-0.3c-0.2,1.3,0.2,2.6,1,3.6c0.8,1,2,1.6,3.3,1.7l-0.3,0.3
				c-0.5,0.4-0.5,1-0.2,1.5c0.4,0.4,1,0.5,1.5,0.1l2.2-1.8l4.4-3.6C1171.8-124.9,1171.8-125,1171.8-125.1z M1162.5-130.8
				c-0.1-0.2-0.1-0.4,0.1-0.5l0.3-0.3l1.4,1.7l-0.3,0.3c-0.2,0.1-0.4,0.1-0.5,0L1162.5-130.8z M1159.1-126.7
				c-0.1,0.1-0.4,0.1-0.5-0.1c-0.1-0.2-0.1-0.4,0-0.5l1.6-1.3c0.1-0.1,0.4-0.1,0.5,0.1c0.1,0.2,0.1,0.4,0,0.5L1159.1-126.7z
				 M1165.1-121.7c-1.4,0.2-2.8-0.4-3.7-1.4c-0.9-1.1-1.2-2.5-0.8-3.9l0.4-0.4c0.4-0.3,0.5-0.8,0.3-1.2l1.1-0.9l0.2,0.3
				c0.4,0.4,1,0.5,1.5,0.1c0.6-0.5,0.4-0.4,1.1-0.9c1,0.1,2,0.7,2.6,1.4c0.7,0.9,1.1,2,0.9,3.1c-0.4,0.1-0.8,0.3-1.1,0.6l-2.1,1.7
				c-0.1,0.1-0.2,0.3-0.1,0.5l0.2,0.3L1165.1-121.7z M1164.8-119.9c-0.1,0.1-0.4,0.1-0.5-0.1s-0.1-0.4,0-0.5l1.9-1.6l0.5,0.6
				L1164.8-119.9z M1167.2-121.9c-0.3-0.3-0.6-0.8-0.9-1.1l1.8-1.5c0.8-0.7,1.8-0.8,2.7-0.5L1167.2-121.9z M1165.5-124.3
				c-0.1,0-0.3,0.1-0.4,0.3c-0.1,0.2-0.3,0.4-0.5,0.6c-0.7,0.6-1.9,0.5-2.5-0.2c-0.5-0.6-0.5-1.5-0.1-2.1c0.1-0.1,0.2-0.3,0.2-0.6
				c-0.1-1,0.4-1.9,1.3-2.4c0.9-0.5,2-0.4,2.7,0.2c1.2,1,1.1,2.8,0,3.7C1166-124.5,1165.8-124.4,1165.5-124.3z M1164.5-124.2
				c0.1-0.3,0.4-0.6,0.8-0.7c0.2-0.1,0.4-0.2,0.6-0.3c0.8-0.7,0.9-2,0.1-2.7c-0.5-0.4-1.3-0.5-2-0.1c-0.7,0.4-1,1.1-1,1.8
				c0,0.4-0.1,0.7-0.3,1.1c-0.3,0.4-0.3,0.9,0,1.3c0.4,0.4,1,0.5,1.5,0.1C1164.3-123.9,1164.4-124,1164.5-124.2z M1165.5-127.2
				c0.4,0.5,0.3,1.1-0.1,1.5c-0.4,0.4-1.1,0.3-1.5-0.2c-0.4-0.5-0.3-1.1,0.1-1.5C1164.5-127.7,1165.1-127.6,1165.5-127.2z
				 M1164.4-126.1c0.1,0.2,0.4,0.2,0.6,0s0.2-0.4,0.1-0.6c-0.1-0.2-0.4-0.2-0.6,0S1164.3-126.3,1164.4-126.1z"/>
		</g>
	</g>
</g>
<g>
	<rect x="892.5" y="-33.3" class="st40" width="49" height="6.7"/>
	<rect x="941.5" y="-33.3" class="st41" width="84.1" height="6.7"/>
	<polygon class="st20" points="1057.1,-101.2 973,-101.2 941.5,-33.3 1025.6,-33.3 	"/>
	<polygon class="st41" points="941.5,-33.3 939.2,-33.3 971.8,-103.7 973,-101.2 	"/>
	<polygon class="st41" points="1057.1,-101.2 973,-101.2 971.8,-103.7 1055.3,-103.7 	"/>
</g>
<g>
	<g>
		<g>
			<path class="st2" d="M860.5-488.7c4.4,4.6,6.5,10.4,6.5,17.3c0,5.2-1.3,10-4,14.3c-2.7,4.3-6.7,7.7-12,10.2
				c-5.4,2.5-11.9,3.8-19.6,3.8c-6.4,0-12.6-0.9-18.6-2.8c-6-1.8-11-4.4-15.2-7.6l7.2-13c3.3,2.7,7.2,4.9,11.9,6.5
				c4.7,1.6,9.5,2.4,14.4,2.4c5.9,0,10.5-1.2,13.9-3.7c3.4-2.4,5.1-5.8,5.1-10c0-4.2-1.6-7.5-4.8-9.8c-3.2-2.4-8.1-3.5-14.7-3.5
				h-8.2V-496l20.4-24.3h-40.8v-14h61.2v11.2l-21.8,25.9C849.8-496.1,856.1-493.3,860.5-488.7z"/>
		</g>
		<g>
			<path class="st2" d="M934.7-496.5c4.7,2.3,8.4,5.5,11,9.7c2.7,4.2,4,9,4,14.5c0,5.8-1.5,10.9-4.4,15.3
				c-2.9,4.4-6.8,7.8-11.8,10.2c-5,2.4-10.5,3.6-16.7,3.6c-12.3,0-21.9-3.9-28.7-11.6c-6.8-7.7-10.2-18.7-10.2-33.1
				c0-10.1,1.8-18.7,5.5-25.9c3.7-7.1,8.8-12.6,15.5-16.3c6.6-3.7,14.3-5.6,23-5.6c4.6,0,9,0.5,13,1.5c4.1,1,7.6,2.4,10.6,4.3
				l-6.2,12.6c-4.5-2.9-10.1-4.4-17.1-4.4c-8.6,0-15.4,2.7-20.3,8c-4.9,5.3-7.3,13-7.3,23v0.1c2.7-3.1,6-5.4,10.1-7
				c4.1-1.6,8.7-2.4,13.9-2.4C924.7-499.9,930-498.7,934.7-496.5z M928.7-460.4c3.3-2.8,4.9-6.5,4.9-11.1c0-4.7-1.6-8.4-4.9-11.2
				c-3.3-2.7-7.6-4.1-13.1-4.1c-5.4,0-9.8,1.5-13.2,4.4c-3.4,2.9-5.1,6.6-5.1,11c0,4.4,1.6,8,4.9,10.9c3.3,2.9,7.9,4.3,13.7,4.3
				C921.2-456.2,925.4-457.6,928.7-460.4z"/>
		</g>
		<g>
			<path class="st2" d="M976.7-448.6c-5.7-3.6-10.1-8.9-13.4-15.9c-3.3-7-4.9-15.3-4.9-24.8c0-9.6,1.6-17.9,4.9-24.8
				c3.3-7,7.7-12.3,13.4-15.9c5.6-3.6,12.1-5.5,19.3-5.5c7.2,0,13.6,1.8,19.3,5.5c5.7,3.6,10.2,8.9,13.4,15.9
				c3.3,7,4.9,15.3,4.9,24.8c0,9.6-1.6,17.9-4.9,24.8c-3.3,7-7.7,12.3-13.4,15.9c-5.7,3.6-12.1,5.5-19.3,5.5
				C988.8-443.1,982.3-444.9,976.7-448.6z M1011.2-465.6c3.7-5.3,5.6-13.2,5.6-23.8c0-10.5-1.9-18.4-5.6-23.8c-3.7-5.3-8.8-8-15.2-8
				c-6.3,0-11.4,2.7-15.1,8c-3.7,5.3-5.6,13.2-5.6,23.8c0,10.5,1.9,18.4,5.6,23.8c3.7,5.3,8.8,8,15.1,8
				C1002.4-457.6,1007.4-460.3,1011.2-465.6z"/>
		</g>
		<g>
			<path class="st2" d="M1252.4-458.5v14.1h-76.7v-11.2l52.9-64.6h-52v-14.1h74.1v11.2l-52.9,64.6H1252.4z"/>
		</g>
		<g>
			<g>
				<path class="st2" d="M1077.6-473.1c-1.7-3-2.9-6.3-3.5-9.8c-2.7,2.3-5.2,4.6-7.4,6.9c-2.4,2.5-4.3,4.7-5.6,6.6
					c0.6,1.3,1.3,2.5,2,3.7c0.9,1.6,2,3.1,3.1,4.5c2.3-0.3,5-0.7,8.3-1.6c3-0.7,6.1-1.7,9.3-2.9
					C1081.2-467.7,1079.2-470.2,1077.6-473.1z"/>
			</g>
			<g>
				<path class="st2" d="M1126.5-513.1c2.4,2.1,4.4,4.6,6,7.5c1.7,3,2.9,6.3,3.5,9.8c2.7-2.3,5.2-4.6,7.4-6.9
					c2.4-2.5,4.3-4.7,5.7-6.6c-0.6-1.3-1.3-2.5-2-3.8c-0.9-1.6-1.9-3-3-4.4c-2.3,0.3-5,0.7-8.3,1.6
					C1132.9-515.2,1129.7-514.2,1126.5-513.1z"/>
			</g>
			<g>
				<path class="st2" d="M1133.6-475.2c-0.3,0.7-0.7,1.4-1.1,2.1c-2.7,4.8-6.5,8.6-11.3,11.3c-4.8,2.7-10.2,4-16.2,4
					c-0.5,0-1,0-1.4,0c-8.1,3.8-15.9,6.8-23.2,8.8c7.3,3.9,15.5,5.9,24.6,5.9c9.2,0,17.4-2,24.8-6c7.4-4,13.1-9.5,17.3-16.5
					c4.2-7,6.3-14.9,6.3-23.8c0-0.8,0-1.5-0.1-2.3C1147.9-486.1,1141.2-480.5,1133.6-475.2z"/>
			</g>
			<g>
				<path class="st2" d="M1076.5-503.5c0.3-0.7,0.7-1.4,1.1-2.1c2.7-4.8,6.5-8.6,11.3-11.3c4.8-2.7,10.2-4,16.2-4c0.5,0,1,0,1.4,0
					c8.1-3.8,15.9-6.8,23.2-8.8c-7.3-3.9-15.5-5.9-24.6-5.9c-9.2,0-17.4,2-24.8,6c-7.4,4-13.1,9.5-17.3,16.6
					c-4.2,7.1-6.3,15-6.3,23.7c0,0.8,0,1.5,0.1,2.3C1062.1-492.6,1068.9-498.2,1076.5-503.5z"/>
			</g>
		</g>
		<g>
			<g>
				<path class="st2" d="M1062-449.8c-7.3,0-12.3-2.1-14.7-6.3c-4.3-7.4,1.2-18.7,15.4-31.8l5,5.5c-12.1,11.2-15.8,19.6-14,22.6
					c1.3,2.2,7,3.8,19,1.2c11.8-2.6,26.1-8.6,40.4-16.8c14.2-8.2,26.6-17.7,34.7-26.6c8.3-9,9.7-14.8,8.4-17
					c-2.4-4.2-15-2.7-25.6,0.5l-2.1-7.1c17.9-5.4,30-4.3,34.1,2.9c3.6,6.2,0.3,15.1-9.4,25.8c-8.7,9.5-21.6,19.4-36.5,28
					s-30,14.8-42.5,17.6C1069.7-450.3,1065.6-449.8,1062-449.8z"/>
			</g>
		</g>
		<g>
			<path class="st2" d="M1077.2-473.7c-2.5-4.7-3.8-9.9-3.8-15.6c0-6,1.4-11.4,4.1-16.2c2.7-4.8,6.5-8.6,11.3-11.3
				c4.8-2.7,10.2-4,16.2-4c6,0,11.4,1.3,16.2,4c4.8,2.7,8.6,6.5,11.3,11.3c0.1,0.2,0.2,0.4,0.3,0.6l14.3-8.1
				c-4.2-7-10-12.5-17.3-16.5c-7.4-4-15.6-6-24.8-6c-9.2,0-17.4,2-24.8,6c-7.4,4-13.1,9.5-17.3,16.6c-4.2,7.1-6.3,15-6.3,23.7
				c0,8.7,2.1,16.6,6.3,23.7L1077.2-473.7z"/>
		</g>
		<g>
			<path class="st42" d="M1039-524.4c-4.8,0-8.7-3.9-8.7-8.7c0-4.8,3.9-8.7,8.7-8.7s8.7,3.9,8.7,8.7
				C1047.7-528.3,1043.8-524.4,1039-524.4z"/>
		</g>
	</g>
	<line class="st43" x1="791.9" y1="-408.6" x2="1258.1" y2="-408.6"/>
	<text transform="matrix(1 0 0 1 814.5361 -351.0273)" class="st2 st44" style="font-size:45.8526px;">A view just for you</text>
</g>
<g>
	
		<image style="overflow:visible;opacity:0.75;" width="998" height="637" xlink:href="61D35C19BD3D6E14.png"  transform="matrix(1 0 0 1 700.9921 71.9921)">
	</image>
	<g>
		<g>
			<defs>
				<rect id="SVGID_10_" x="718.4" y="162.1" width="963" height="529.8"/>
			</defs>
			<clipPath id="SVGID_13_">
				<use xlink:href="#SVGID_10_"  style="overflow:visible;"/>
			</clipPath>
			<g transform="matrix(1 0 0 1 6.103516e-05 -7.629395e-06)" style="clip-path:url(#SVGID_13_);">
				
					<image style="overflow:visible;" width="2880" height="1800" xlink:href="ssss/projects/oz-screenshot/Screen Shot 2018-11-22 at 5.14.14 pm.png"  transform="matrix(0.3344 0 0 0.3344 718.3718 89.5969)">
				</image>
			</g>
		</g>
	</g>
</g>
<g>
	<g>
		<g>
			<path class="st2" d="M148.5,256.3c4,4.2,5.9,9.4,5.9,15.7c0,4.7-1.2,9-3.6,12.9c-2.4,3.9-6,7-10.9,9.2
				c-4.8,2.3-10.8,3.4-17.7,3.4c-5.8,0-11.4-0.8-16.8-2.5c-5.4-1.7-10-4-13.8-6.9l6.5-11.7c2.9,2.5,6.5,4.4,10.8,5.9
				c4.2,1.4,8.6,2.2,13.1,2.2c5.3,0,9.6-1.1,12.6-3.3c3.1-2.2,4.6-5.2,4.6-9c0-3.8-1.5-6.8-4.4-8.9c-2.9-2.1-7.3-3.2-13.3-3.2H114
				v-10.4l18.5-22h-37V215H151v10.1l-19.8,23.5C138.8,249.6,144.5,252.1,148.5,256.3z"/>
		</g>
		<g>
			<path class="st2" d="M215.7,249.3c4.3,2.1,7.6,5,10,8.8c2.4,3.8,3.6,8.2,3.6,13.1c0,5.3-1.3,9.9-4,13.9c-2.6,4-6.2,7.1-10.7,9.2
				c-4.5,2.2-9.5,3.3-15.1,3.3c-11.2,0-19.8-3.5-26-10.5c-6.2-7-9.2-17-9.2-30c0-9.1,1.7-17,5-23.4c3.3-6.5,8-11.4,14-14.8
				c6-3.4,13-5.1,20.9-5.1c4.2,0,8.1,0.4,11.8,1.3c3.7,0.9,6.9,2.2,9.6,3.9l-5.6,11.4c-4-2.6-9.2-4-15.5-4c-7.8,0-14,2.4-18.4,7.2
				c-4.4,4.8-6.6,11.7-6.6,20.8v0.1c2.4-2.8,5.5-4.9,9.2-6.3c3.7-1.4,7.9-2.2,12.6-2.2C206.6,246.2,211.4,247.2,215.7,249.3z
				 M210.2,281.9c2.9-2.5,4.4-5.9,4.4-10.1c0-4.3-1.5-7.6-4.4-10.1c-2.9-2.5-6.9-3.7-11.9-3.7c-4.9,0-8.9,1.3-11.9,4
				c-3.1,2.6-4.6,6-4.6,10c0,4,1.5,7.2,4.5,9.8c3,2.6,7.1,3.9,12.4,3.9C203.4,285.7,207.3,284.5,210.2,281.9z"/>
		</g>
		<g>
			<path class="st2" d="M253.7,292.6c-5.1-3.3-9.1-8.1-12.1-14.4c-2.9-6.3-4.4-13.8-4.4-22.5c0-8.7,1.5-16.2,4.4-22.5
				c2.9-6.3,7-11.1,12.1-14.4c5.1-3.3,10.9-4.9,17.4-4.9c6.5,0,12.3,1.6,17.5,4.9c5.2,3.3,9.2,8.1,12.2,14.4
				c2.9,6.3,4.4,13.8,4.4,22.5c0,8.7-1.5,16.2-4.4,22.5c-2.9,6.3-7,11.1-12.2,14.4c-5.2,3.3-11,4.9-17.5,4.9
				C264.6,297.6,258.8,295.9,253.7,292.6z M284.9,277.2c3.4-4.8,5.1-12,5.1-21.5c0-9.5-1.7-16.7-5.1-21.5c-3.4-4.8-8-7.2-13.8-7.2
				c-5.7,0-10.3,2.4-13.7,7.2c-3.4,4.8-5.1,12-5.1,21.5c0,9.5,1.7,16.7,5.1,21.5c3.4,4.8,7.9,7.2,13.7,7.2
				C277,284.4,281.6,282,284.9,277.2z"/>
		</g>
		<g>
			<path class="st2" d="M503.4,283.6v12.8H434v-10.1l47.9-58.5h-47.1V215h67.1v10.1L454,283.6H503.4z"/>
		</g>
		<g>
			<g>
				<path class="st2" d="M345.1,270.4c-1.6-2.7-2.6-5.7-3.2-8.9c-2.5,2.1-4.7,4.2-6.7,6.3c-2.2,2.3-3.9,4.3-5.1,6
					c0.5,1.2,1.1,2.3,1.8,3.4c0.8,1.4,1.8,2.8,2.8,4.1c2.1-0.2,4.5-0.7,7.5-1.4c2.7-0.7,5.5-1.6,8.5-2.6
					C348.4,275.3,346.6,273,345.1,270.4z"/>
			</g>
			<g>
				<path class="st2" d="M389.4,234.2c2.1,1.9,4,4.2,5.5,6.8c1.6,2.7,2.6,5.7,3.2,8.9c2.5-2.1,4.7-4.2,6.7-6.3
					c2.2-2.3,3.9-4.3,5.1-6c-0.5-1.2-1.2-2.3-1.8-3.4c-0.8-1.4-1.8-2.7-2.7-4c-2.1,0.2-4.5,0.7-7.5,1.4
					C395.2,232.3,392.3,233.2,389.4,234.2z"/>
			</g>
			<g>
				<path class="st2" d="M395.8,268.6c-0.3,0.6-0.6,1.3-1,1.9c-2.5,4.4-5.9,7.8-10.2,10.2c-4.3,2.4-9.2,3.7-14.7,3.7
					c-0.4,0-0.9,0-1.3,0c-7.3,3.4-14.4,6.1-21,8c6.6,3.6,14.1,5.3,22.3,5.3c8.3,0,15.8-1.8,22.4-5.4c6.7-3.6,11.9-8.6,15.7-14.9
					c3.8-6.4,5.7-13.5,5.7-21.5c0-0.7,0-1.4,0-2C408.8,258.7,402.7,263.7,395.8,268.6z"/>
			</g>
			<g>
				<path class="st2" d="M344.1,242.9c0.3-0.6,0.6-1.3,1-1.9c2.5-4.4,5.9-7.8,10.2-10.2c4.3-2.4,9.2-3.7,14.7-3.7c0.4,0,0.9,0,1.3,0
					c7.3-3.4,14.4-6.1,21-8c-6.6-3.5-14.1-5.3-22.3-5.3c-8.3,0-15.8,1.8-22.4,5.4c-6.7,3.6-11.9,8.6-15.7,15
					c-3.8,6.4-5.7,13.5-5.7,21.5c0,0.7,0,1.4,0,2C331.1,252.8,337.2,247.7,344.1,242.9z"/>
			</g>
		</g>
		<g>
			<g>
				<path class="st2" d="M331,291.6c-6.6,0-11.1-1.9-13.3-5.7c-3.9-6.7,1.1-16.9,14-28.8l4.6,4.9c-11,10.2-14.3,17.7-12.7,20.5
					c1.2,2,6.3,3.5,17.2,1.1c10.7-2.4,23.7-7.8,36.6-15.2c12.9-7.4,24.1-16,31.5-24.1c7.5-8.2,8.8-13.4,7.7-15.4
					c-2.2-3.8-13.5-2.4-23.2,0.5l-1.9-6.4c16.2-4.9,27.2-3.9,30.9,2.6c3.2,5.6,0.3,13.7-8.5,23.3c-7.8,8.6-19.6,17.6-33.1,25.4
					s-27.1,13.4-38.5,15.9C338,291.1,334.2,291.6,331,291.6z"/>
			</g>
		</g>
		<g>
			<path class="st2" d="M344.8,269.9c-2.3-4.2-3.4-9-3.4-14.2c0-5.4,1.2-10.3,3.7-14.7c2.5-4.4,5.9-7.8,10.2-10.2
				c4.3-2.4,9.2-3.7,14.7-3.7c5.4,0,10.3,1.2,14.7,3.7c4.3,2.4,7.8,5.9,10.2,10.2c0.1,0.2,0.2,0.3,0.3,0.5l13-7.3
				c-3.8-6.4-9-11.3-15.7-14.9c-6.7-3.6-14.2-5.4-22.4-5.4c-8.3,0-15.8,1.8-22.4,5.4c-6.7,3.6-11.9,8.6-15.7,15
				c-3.8,6.4-5.7,13.5-5.7,21.5s1.9,15.1,5.7,21.5L344.8,269.9z"/>
		</g>
		<g>
			<path class="st42" d="M310.2,223.9c-4.3,0-7.8-3.5-7.8-7.9s3.5-7.9,7.8-7.9s7.9,3.5,7.9,7.9S314.5,223.9,310.2,223.9z"/>
		</g>
	</g>
	<line class="st43" x1="86.4" y1="328.9" x2="508.6" y2="328.9"/>
	<text transform="matrix(1 0 0 1 106.8478 380.9951)" class="st2 st44 st45">A view just for you</text>
</g>
</svg>
